G04 #@! TF.GenerationSoftware,KiCad,Pcbnew,5.0.2-bee76a0~70~ubuntu18.04.1*
G04 #@! TF.CreationDate,2019-04-24T16:28:52+03:00*
G04 #@! TF.ProjectId,hw,68772e6b-6963-4616-945f-706362585858,rev?*
G04 #@! TF.SameCoordinates,Original*
G04 #@! TF.FileFunction,Legend,Top*
G04 #@! TF.FilePolarity,Positive*
%FSLAX46Y46*%
G04 Gerber Fmt 4.6, Leading zero omitted, Abs format (unit mm)*
G04 Created by KiCad (PCBNEW 5.0.2-bee76a0~70~ubuntu18.04.1) date ke 24. huhtikuuta 2019 16.28.52*
%MOMM*%
%LPD*%
G01*
G04 APERTURE LIST*
%ADD10C,0.150000*%
%ADD11C,0.200000*%
%ADD12C,0.120000*%
G04 APERTURE END LIST*
D10*
X130190952Y-73477380D02*
X130381428Y-73477380D01*
X130476666Y-73429761D01*
X130524285Y-73382142D01*
X130619523Y-73239285D01*
X130667142Y-73048809D01*
X130667142Y-72667857D01*
X130619523Y-72572619D01*
X130571904Y-72525000D01*
X130476666Y-72477380D01*
X130286190Y-72477380D01*
X130190952Y-72525000D01*
X130143333Y-72572619D01*
X130095714Y-72667857D01*
X130095714Y-72905952D01*
X130143333Y-73001190D01*
X130190952Y-73048809D01*
X130286190Y-73096428D01*
X130476666Y-73096428D01*
X130571904Y-73048809D01*
X130619523Y-73001190D01*
X130667142Y-72905952D01*
X130952857Y-72477380D02*
X131286190Y-73477380D01*
X131619523Y-72477380D01*
X127000476Y-91892380D02*
X127000476Y-90892380D01*
X127381428Y-90892380D01*
X127476666Y-90940000D01*
X127524285Y-90987619D01*
X127571904Y-91082857D01*
X127571904Y-91225714D01*
X127524285Y-91320952D01*
X127476666Y-91368571D01*
X127381428Y-91416190D01*
X127000476Y-91416190D01*
X128000476Y-91892380D02*
X128000476Y-91225714D01*
X128000476Y-91416190D02*
X128048095Y-91320952D01*
X128095714Y-91273333D01*
X128190952Y-91225714D01*
X128286190Y-91225714D01*
X128762380Y-91892380D02*
X128667142Y-91844761D01*
X128619523Y-91797142D01*
X128571904Y-91701904D01*
X128571904Y-91416190D01*
X128619523Y-91320952D01*
X128667142Y-91273333D01*
X128762380Y-91225714D01*
X128905238Y-91225714D01*
X129000476Y-91273333D01*
X129048095Y-91320952D01*
X129095714Y-91416190D01*
X129095714Y-91701904D01*
X129048095Y-91797142D01*
X129000476Y-91844761D01*
X128905238Y-91892380D01*
X128762380Y-91892380D01*
X129524285Y-91892380D02*
X129524285Y-90892380D01*
X129524285Y-91273333D02*
X129619523Y-91225714D01*
X129810000Y-91225714D01*
X129905238Y-91273333D01*
X129952857Y-91320952D01*
X130000476Y-91416190D01*
X130000476Y-91701904D01*
X129952857Y-91797142D01*
X129905238Y-91844761D01*
X129810000Y-91892380D01*
X129619523Y-91892380D01*
X129524285Y-91844761D01*
X130810000Y-91844761D02*
X130714761Y-91892380D01*
X130524285Y-91892380D01*
X130429047Y-91844761D01*
X130381428Y-91749523D01*
X130381428Y-91368571D01*
X130429047Y-91273333D01*
X130524285Y-91225714D01*
X130714761Y-91225714D01*
X130810000Y-91273333D01*
X130857619Y-91368571D01*
X130857619Y-91463809D01*
X130381428Y-91559047D01*
X132571904Y-90940000D02*
X132476666Y-90892380D01*
X132333809Y-90892380D01*
X132190952Y-90940000D01*
X132095714Y-91035238D01*
X132048095Y-91130476D01*
X132000476Y-91320952D01*
X132000476Y-91463809D01*
X132048095Y-91654285D01*
X132095714Y-91749523D01*
X132190952Y-91844761D01*
X132333809Y-91892380D01*
X132429047Y-91892380D01*
X132571904Y-91844761D01*
X132619523Y-91797142D01*
X132619523Y-91463809D01*
X132429047Y-91463809D01*
X133048095Y-91892380D02*
X133048095Y-90892380D01*
X133619523Y-91892380D01*
X133619523Y-90892380D01*
X134095714Y-91892380D02*
X134095714Y-90892380D01*
X134333809Y-90892380D01*
X134476666Y-90940000D01*
X134571904Y-91035238D01*
X134619523Y-91130476D01*
X134667142Y-91320952D01*
X134667142Y-91463809D01*
X134619523Y-91654285D01*
X134571904Y-91749523D01*
X134476666Y-91844761D01*
X134333809Y-91892380D01*
X134095714Y-91892380D01*
D11*
X99128571Y-125138571D02*
X99128571Y-123638571D01*
X99628571Y-124710000D01*
X100128571Y-123638571D01*
X100128571Y-125138571D01*
X101485714Y-125138571D02*
X101485714Y-124352857D01*
X101414285Y-124210000D01*
X101271428Y-124138571D01*
X100985714Y-124138571D01*
X100842857Y-124210000D01*
X101485714Y-125067142D02*
X101342857Y-125138571D01*
X100985714Y-125138571D01*
X100842857Y-125067142D01*
X100771428Y-124924285D01*
X100771428Y-124781428D01*
X100842857Y-124638571D01*
X100985714Y-124567142D01*
X101342857Y-124567142D01*
X101485714Y-124495714D01*
X102057142Y-124138571D02*
X102842857Y-124138571D01*
X102057142Y-125138571D01*
X102842857Y-125138571D01*
X103985714Y-125067142D02*
X103842857Y-125138571D01*
X103557142Y-125138571D01*
X103414285Y-125067142D01*
X103342857Y-124924285D01*
X103342857Y-124352857D01*
X103414285Y-124210000D01*
X103557142Y-124138571D01*
X103842857Y-124138571D01*
X103985714Y-124210000D01*
X104057142Y-124352857D01*
X104057142Y-124495714D01*
X103342857Y-124638571D01*
X104700000Y-125138571D02*
X104700000Y-123638571D01*
X104700000Y-124210000D02*
X104842857Y-124138571D01*
X105128571Y-124138571D01*
X105271428Y-124210000D01*
X105342857Y-124281428D01*
X105414285Y-124424285D01*
X105414285Y-124852857D01*
X105342857Y-124995714D01*
X105271428Y-125067142D01*
X105128571Y-125138571D01*
X104842857Y-125138571D01*
X104700000Y-125067142D01*
X106271428Y-125138571D02*
X106128571Y-125067142D01*
X106057142Y-124924285D01*
X106057142Y-123638571D01*
X107485714Y-125138571D02*
X107485714Y-124352857D01*
X107414285Y-124210000D01*
X107271428Y-124138571D01*
X106985714Y-124138571D01*
X106842857Y-124210000D01*
X107485714Y-125067142D02*
X107342857Y-125138571D01*
X106985714Y-125138571D01*
X106842857Y-125067142D01*
X106771428Y-124924285D01*
X106771428Y-124781428D01*
X106842857Y-124638571D01*
X106985714Y-124567142D01*
X107342857Y-124567142D01*
X107485714Y-124495714D01*
X108057142Y-124138571D02*
X108842857Y-124138571D01*
X108057142Y-125138571D01*
X108842857Y-125138571D01*
X109985714Y-125067142D02*
X109842857Y-125138571D01*
X109557142Y-125138571D01*
X109414285Y-125067142D01*
X109342857Y-124924285D01*
X109342857Y-124352857D01*
X109414285Y-124210000D01*
X109557142Y-124138571D01*
X109842857Y-124138571D01*
X109985714Y-124210000D01*
X110057142Y-124352857D01*
X110057142Y-124495714D01*
X109342857Y-124638571D01*
X110700000Y-125138571D02*
X110700000Y-124138571D01*
X110700000Y-124424285D02*
X110771428Y-124281428D01*
X110842857Y-124210000D01*
X110985714Y-124138571D01*
X111128571Y-124138571D01*
X112628571Y-124138571D02*
X112985714Y-125138571D01*
X113342857Y-124138571D01*
X114700000Y-125138571D02*
X113842857Y-125138571D01*
X114271428Y-125138571D02*
X114271428Y-123638571D01*
X114128571Y-123852857D01*
X113985714Y-123995714D01*
X113842857Y-124067142D01*
X115342857Y-124995714D02*
X115414285Y-125067142D01*
X115342857Y-125138571D01*
X115271428Y-125067142D01*
X115342857Y-124995714D01*
X115342857Y-125138571D01*
X115985714Y-123781428D02*
X116057142Y-123710000D01*
X116200000Y-123638571D01*
X116557142Y-123638571D01*
X116700000Y-123710000D01*
X116771428Y-123781428D01*
X116842857Y-123924285D01*
X116842857Y-124067142D01*
X116771428Y-124281428D01*
X115914285Y-125138571D01*
X116842857Y-125138571D01*
D10*
X103854761Y-64587380D02*
X103378571Y-64587380D01*
X103378571Y-63587380D01*
X104140476Y-64539761D02*
X104283333Y-64587380D01*
X104521428Y-64587380D01*
X104616666Y-64539761D01*
X104664285Y-64492142D01*
X104711904Y-64396904D01*
X104711904Y-64301666D01*
X104664285Y-64206428D01*
X104616666Y-64158809D01*
X104521428Y-64111190D01*
X104330952Y-64063571D01*
X104235714Y-64015952D01*
X104188095Y-63968333D01*
X104140476Y-63873095D01*
X104140476Y-63777857D01*
X104188095Y-63682619D01*
X104235714Y-63635000D01*
X104330952Y-63587380D01*
X104569047Y-63587380D01*
X104711904Y-63635000D01*
X105140476Y-64587380D02*
X105140476Y-63587380D01*
X105473809Y-64301666D01*
X105807142Y-63587380D01*
X105807142Y-64587380D01*
X106188095Y-63587380D02*
X106807142Y-63587380D01*
X106473809Y-63968333D01*
X106616666Y-63968333D01*
X106711904Y-64015952D01*
X106759523Y-64063571D01*
X106807142Y-64158809D01*
X106807142Y-64396904D01*
X106759523Y-64492142D01*
X106711904Y-64539761D01*
X106616666Y-64587380D01*
X106330952Y-64587380D01*
X106235714Y-64539761D01*
X106188095Y-64492142D01*
X107426190Y-63587380D02*
X107521428Y-63587380D01*
X107616666Y-63635000D01*
X107664285Y-63682619D01*
X107711904Y-63777857D01*
X107759523Y-63968333D01*
X107759523Y-64206428D01*
X107711904Y-64396904D01*
X107664285Y-64492142D01*
X107616666Y-64539761D01*
X107521428Y-64587380D01*
X107426190Y-64587380D01*
X107330952Y-64539761D01*
X107283333Y-64492142D01*
X107235714Y-64396904D01*
X107188095Y-64206428D01*
X107188095Y-63968333D01*
X107235714Y-63777857D01*
X107283333Y-63682619D01*
X107330952Y-63635000D01*
X107426190Y-63587380D01*
X108092857Y-63587380D02*
X108711904Y-63587380D01*
X108378571Y-63968333D01*
X108521428Y-63968333D01*
X108616666Y-64015952D01*
X108664285Y-64063571D01*
X108711904Y-64158809D01*
X108711904Y-64396904D01*
X108664285Y-64492142D01*
X108616666Y-64539761D01*
X108521428Y-64587380D01*
X108235714Y-64587380D01*
X108140476Y-64539761D01*
X108092857Y-64492142D01*
X109140476Y-64587380D02*
X109140476Y-63587380D01*
X109378571Y-63587380D01*
X109521428Y-63635000D01*
X109616666Y-63730238D01*
X109664285Y-63825476D01*
X109711904Y-64015952D01*
X109711904Y-64158809D01*
X109664285Y-64349285D01*
X109616666Y-64444523D01*
X109521428Y-64539761D01*
X109378571Y-64587380D01*
X109140476Y-64587380D01*
X110616666Y-64587380D02*
X110140476Y-64587380D01*
X110140476Y-63587380D01*
X110950000Y-64587380D02*
X110950000Y-63587380D01*
X110950000Y-64063571D02*
X111521428Y-64063571D01*
X111521428Y-64587380D02*
X111521428Y-63587380D01*
X112569047Y-64492142D02*
X112521428Y-64539761D01*
X112378571Y-64587380D01*
X112283333Y-64587380D01*
X112140476Y-64539761D01*
X112045238Y-64444523D01*
X111997619Y-64349285D01*
X111950000Y-64158809D01*
X111950000Y-64015952D01*
X111997619Y-63825476D01*
X112045238Y-63730238D01*
X112140476Y-63635000D01*
X112283333Y-63587380D01*
X112378571Y-63587380D01*
X112521428Y-63635000D01*
X112569047Y-63682619D01*
X127801666Y-114077142D02*
X127801666Y-113600952D01*
X128087380Y-114172380D02*
X127087380Y-113839047D01*
X128087380Y-113505714D01*
X128087380Y-113172380D02*
X127420714Y-113172380D01*
X127611190Y-113172380D02*
X127515952Y-113124761D01*
X127468333Y-113077142D01*
X127420714Y-112981904D01*
X127420714Y-112886666D01*
X128087380Y-112124761D02*
X127087380Y-112124761D01*
X128039761Y-112124761D02*
X128087380Y-112220000D01*
X128087380Y-112410476D01*
X128039761Y-112505714D01*
X127992142Y-112553333D01*
X127896904Y-112600952D01*
X127611190Y-112600952D01*
X127515952Y-112553333D01*
X127468333Y-112505714D01*
X127420714Y-112410476D01*
X127420714Y-112220000D01*
X127468333Y-112124761D01*
X127420714Y-111220000D02*
X128087380Y-111220000D01*
X127420714Y-111648571D02*
X127944523Y-111648571D01*
X128039761Y-111600952D01*
X128087380Y-111505714D01*
X128087380Y-111362857D01*
X128039761Y-111267619D01*
X127992142Y-111220000D01*
X128087380Y-110743809D02*
X127420714Y-110743809D01*
X127087380Y-110743809D02*
X127135000Y-110791428D01*
X127182619Y-110743809D01*
X127135000Y-110696190D01*
X127087380Y-110743809D01*
X127182619Y-110743809D01*
X127420714Y-110267619D02*
X128087380Y-110267619D01*
X127515952Y-110267619D02*
X127468333Y-110220000D01*
X127420714Y-110124761D01*
X127420714Y-109981904D01*
X127468333Y-109886666D01*
X127563571Y-109839047D01*
X128087380Y-109839047D01*
X128087380Y-109220000D02*
X128039761Y-109315238D01*
X127992142Y-109362857D01*
X127896904Y-109410476D01*
X127611190Y-109410476D01*
X127515952Y-109362857D01*
X127468333Y-109315238D01*
X127420714Y-109220000D01*
X127420714Y-109077142D01*
X127468333Y-108981904D01*
X127515952Y-108934285D01*
X127611190Y-108886666D01*
X127896904Y-108886666D01*
X127992142Y-108934285D01*
X128039761Y-108981904D01*
X128087380Y-109077142D01*
X128087380Y-109220000D01*
X128087380Y-107696190D02*
X127087380Y-107696190D01*
X128087380Y-107124761D01*
X127087380Y-107124761D01*
X128087380Y-106220000D02*
X127563571Y-106220000D01*
X127468333Y-106267619D01*
X127420714Y-106362857D01*
X127420714Y-106553333D01*
X127468333Y-106648571D01*
X128039761Y-106220000D02*
X128087380Y-106315238D01*
X128087380Y-106553333D01*
X128039761Y-106648571D01*
X127944523Y-106696190D01*
X127849285Y-106696190D01*
X127754047Y-106648571D01*
X127706428Y-106553333D01*
X127706428Y-106315238D01*
X127658809Y-106220000D01*
X127420714Y-105743809D02*
X128087380Y-105743809D01*
X127515952Y-105743809D02*
X127468333Y-105696190D01*
X127420714Y-105600952D01*
X127420714Y-105458095D01*
X127468333Y-105362857D01*
X127563571Y-105315238D01*
X128087380Y-105315238D01*
X128087380Y-104696190D02*
X128039761Y-104791428D01*
X127992142Y-104839047D01*
X127896904Y-104886666D01*
X127611190Y-104886666D01*
X127515952Y-104839047D01*
X127468333Y-104791428D01*
X127420714Y-104696190D01*
X127420714Y-104553333D01*
X127468333Y-104458095D01*
X127515952Y-104410476D01*
X127611190Y-104362857D01*
X127896904Y-104362857D01*
X127992142Y-104410476D01*
X128039761Y-104458095D01*
X128087380Y-104553333D01*
X128087380Y-104696190D01*
X94917142Y-89622380D02*
X95488571Y-89622380D01*
X95202857Y-90622380D02*
X95202857Y-89622380D01*
X96155238Y-90098571D02*
X96298095Y-90146190D01*
X96345714Y-90193809D01*
X96393333Y-90289047D01*
X96393333Y-90431904D01*
X96345714Y-90527142D01*
X96298095Y-90574761D01*
X96202857Y-90622380D01*
X95821904Y-90622380D01*
X95821904Y-89622380D01*
X96155238Y-89622380D01*
X96250476Y-89670000D01*
X96298095Y-89717619D01*
X96345714Y-89812857D01*
X96345714Y-89908095D01*
X96298095Y-90003333D01*
X96250476Y-90050952D01*
X96155238Y-90098571D01*
X95821904Y-90098571D01*
X97250476Y-89622380D02*
X97060000Y-89622380D01*
X96964761Y-89670000D01*
X96917142Y-89717619D01*
X96821904Y-89860476D01*
X96774285Y-90050952D01*
X96774285Y-90431904D01*
X96821904Y-90527142D01*
X96869523Y-90574761D01*
X96964761Y-90622380D01*
X97155238Y-90622380D01*
X97250476Y-90574761D01*
X97298095Y-90527142D01*
X97345714Y-90431904D01*
X97345714Y-90193809D01*
X97298095Y-90098571D01*
X97250476Y-90050952D01*
X97155238Y-90003333D01*
X96964761Y-90003333D01*
X96869523Y-90050952D01*
X96821904Y-90098571D01*
X96774285Y-90193809D01*
X98202857Y-89622380D02*
X98012380Y-89622380D01*
X97917142Y-89670000D01*
X97869523Y-89717619D01*
X97774285Y-89860476D01*
X97726666Y-90050952D01*
X97726666Y-90431904D01*
X97774285Y-90527142D01*
X97821904Y-90574761D01*
X97917142Y-90622380D01*
X98107619Y-90622380D01*
X98202857Y-90574761D01*
X98250476Y-90527142D01*
X98298095Y-90431904D01*
X98298095Y-90193809D01*
X98250476Y-90098571D01*
X98202857Y-90050952D01*
X98107619Y-90003333D01*
X97917142Y-90003333D01*
X97821904Y-90050952D01*
X97774285Y-90098571D01*
X97726666Y-90193809D01*
X99250476Y-90622380D02*
X98679047Y-90622380D01*
X98964761Y-90622380D02*
X98964761Y-89622380D01*
X98869523Y-89765238D01*
X98774285Y-89860476D01*
X98679047Y-89908095D01*
X99631428Y-89717619D02*
X99679047Y-89670000D01*
X99774285Y-89622380D01*
X100012380Y-89622380D01*
X100107619Y-89670000D01*
X100155238Y-89717619D01*
X100202857Y-89812857D01*
X100202857Y-89908095D01*
X100155238Y-90050952D01*
X99583809Y-90622380D01*
X100202857Y-90622380D01*
X100964761Y-90098571D02*
X100631428Y-90098571D01*
X100631428Y-90622380D02*
X100631428Y-89622380D01*
X101107619Y-89622380D01*
X101488571Y-90622380D02*
X101488571Y-89622380D01*
X102060000Y-90622380D01*
X102060000Y-89622380D01*
X103060000Y-89670000D02*
X102964761Y-89622380D01*
X102821904Y-89622380D01*
X102679047Y-89670000D01*
X102583809Y-89765238D01*
X102536190Y-89860476D01*
X102488571Y-90050952D01*
X102488571Y-90193809D01*
X102536190Y-90384285D01*
X102583809Y-90479523D01*
X102679047Y-90574761D01*
X102821904Y-90622380D01*
X102917142Y-90622380D01*
X103060000Y-90574761D01*
X103107619Y-90527142D01*
X103107619Y-90193809D01*
X102917142Y-90193809D01*
X133485000Y-84581904D02*
X133437380Y-84677142D01*
X133437380Y-84820000D01*
X133485000Y-84962857D01*
X133580238Y-85058095D01*
X133675476Y-85105714D01*
X133865952Y-85153333D01*
X134008809Y-85153333D01*
X134199285Y-85105714D01*
X134294523Y-85058095D01*
X134389761Y-84962857D01*
X134437380Y-84820000D01*
X134437380Y-84724761D01*
X134389761Y-84581904D01*
X134342142Y-84534285D01*
X134008809Y-84534285D01*
X134008809Y-84724761D01*
X134437380Y-84105714D02*
X133437380Y-84105714D01*
X134437380Y-83534285D01*
X133437380Y-83534285D01*
X134437380Y-83058095D02*
X133437380Y-83058095D01*
X133437380Y-82820000D01*
X133485000Y-82677142D01*
X133580238Y-82581904D01*
X133675476Y-82534285D01*
X133865952Y-82486666D01*
X134008809Y-82486666D01*
X134199285Y-82534285D01*
X134294523Y-82581904D01*
X134389761Y-82677142D01*
X134437380Y-82820000D01*
X134437380Y-83058095D01*
X133604047Y-81351428D02*
X134365952Y-81351428D01*
X133985000Y-81732380D02*
X133985000Y-80970476D01*
D12*
G04 #@! TO.C,*
X129480000Y-76895000D02*
X132140000Y-76895000D01*
X129480000Y-76835000D02*
X129480000Y-76895000D01*
X132140000Y-76835000D02*
X132140000Y-76895000D01*
X129480000Y-76835000D02*
X132140000Y-76835000D01*
X129480000Y-75565000D02*
X129480000Y-74235000D01*
X129480000Y-74235000D02*
X130810000Y-74235000D01*
G04 #@! TO.C,TP5*
X126930000Y-121285000D02*
G75*
G03X126930000Y-121285000I-1200000J0D01*
G01*
G04 #@! TO.C,TP4*
X96450000Y-121285000D02*
G75*
G03X96450000Y-121285000I-1200000J0D01*
G01*
G04 #@! TO.C,TP3*
X128835000Y-50800000D02*
G75*
G03X128835000Y-50800000I-1200000J0D01*
G01*
G04 #@! TO.C,TP2*
X114865000Y-50800000D02*
G75*
G03X114865000Y-50800000I-1200000J0D01*
G01*
G04 #@! TO.C,*
X84686000Y-122800000D02*
G75*
G03X84686000Y-122800000I-2286000J0D01*
G01*
X135786000Y-122800000D02*
G75*
G03X135786000Y-122800000I-2286000J0D01*
G01*
X135786000Y-52400000D02*
G75*
G03X135786000Y-52400000I-2286000J0D01*
G01*
X84686000Y-52400000D02*
G75*
G03X84686000Y-52400000I-2286000J0D01*
G01*
G04 #@! TO.C,A1*
X124460000Y-102870000D02*
X127000000Y-102870000D01*
X127000000Y-102870000D02*
X127000000Y-100200000D01*
X124460000Y-100200000D02*
X86230000Y-100200000D01*
X129670000Y-100200000D02*
X127000000Y-100200000D01*
X127000000Y-115570000D02*
X127000000Y-118240000D01*
X127000000Y-115570000D02*
X88900000Y-115570000D01*
X88900000Y-115570000D02*
X88900000Y-118240000D01*
X124460000Y-102870000D02*
X124460000Y-100200000D01*
X124460000Y-102870000D02*
X88900000Y-102870000D01*
X88900000Y-102870000D02*
X88900000Y-100200000D01*
X86230000Y-100200000D02*
X86230000Y-118240000D01*
X86230000Y-118240000D02*
X129670000Y-118240000D01*
X129670000Y-118240000D02*
X129670000Y-100200000D01*
G04 #@! TO.C,BT1*
X129480000Y-82550000D02*
X132140000Y-82550000D01*
X129480000Y-82550000D02*
X129480000Y-85150000D01*
X129480000Y-85150000D02*
X132140000Y-85150000D01*
X132140000Y-82550000D02*
X132140000Y-85150000D01*
X132140000Y-79950000D02*
X132140000Y-81280000D01*
X130810000Y-79950000D02*
X132140000Y-79950000D01*
G04 #@! TO.C,C1*
X125170000Y-87630000D02*
G75*
G03X125170000Y-87630000I-3270000J0D01*
G01*
X121900000Y-84400000D02*
X121900000Y-90860000D01*
X121940000Y-84400000D02*
X121940000Y-90860000D01*
X121980000Y-84400000D02*
X121980000Y-90860000D01*
X122020000Y-84402000D02*
X122020000Y-90858000D01*
X122060000Y-84403000D02*
X122060000Y-90857000D01*
X122100000Y-84406000D02*
X122100000Y-90854000D01*
X122140000Y-84408000D02*
X122140000Y-86590000D01*
X122140000Y-88670000D02*
X122140000Y-90852000D01*
X122180000Y-84412000D02*
X122180000Y-86590000D01*
X122180000Y-88670000D02*
X122180000Y-90848000D01*
X122220000Y-84415000D02*
X122220000Y-86590000D01*
X122220000Y-88670000D02*
X122220000Y-90845000D01*
X122260000Y-84419000D02*
X122260000Y-86590000D01*
X122260000Y-88670000D02*
X122260000Y-90841000D01*
X122300000Y-84424000D02*
X122300000Y-86590000D01*
X122300000Y-88670000D02*
X122300000Y-90836000D01*
X122340000Y-84429000D02*
X122340000Y-86590000D01*
X122340000Y-88670000D02*
X122340000Y-90831000D01*
X122380000Y-84435000D02*
X122380000Y-86590000D01*
X122380000Y-88670000D02*
X122380000Y-90825000D01*
X122420000Y-84441000D02*
X122420000Y-86590000D01*
X122420000Y-88670000D02*
X122420000Y-90819000D01*
X122460000Y-84448000D02*
X122460000Y-86590000D01*
X122460000Y-88670000D02*
X122460000Y-90812000D01*
X122500000Y-84455000D02*
X122500000Y-86590000D01*
X122500000Y-88670000D02*
X122500000Y-90805000D01*
X122540000Y-84463000D02*
X122540000Y-86590000D01*
X122540000Y-88670000D02*
X122540000Y-90797000D01*
X122580000Y-84471000D02*
X122580000Y-86590000D01*
X122580000Y-88670000D02*
X122580000Y-90789000D01*
X122621000Y-84480000D02*
X122621000Y-86590000D01*
X122621000Y-88670000D02*
X122621000Y-90780000D01*
X122661000Y-84489000D02*
X122661000Y-86590000D01*
X122661000Y-88670000D02*
X122661000Y-90771000D01*
X122701000Y-84499000D02*
X122701000Y-86590000D01*
X122701000Y-88670000D02*
X122701000Y-90761000D01*
X122741000Y-84509000D02*
X122741000Y-86590000D01*
X122741000Y-88670000D02*
X122741000Y-90751000D01*
X122781000Y-84520000D02*
X122781000Y-86590000D01*
X122781000Y-88670000D02*
X122781000Y-90740000D01*
X122821000Y-84532000D02*
X122821000Y-86590000D01*
X122821000Y-88670000D02*
X122821000Y-90728000D01*
X122861000Y-84544000D02*
X122861000Y-86590000D01*
X122861000Y-88670000D02*
X122861000Y-90716000D01*
X122901000Y-84556000D02*
X122901000Y-86590000D01*
X122901000Y-88670000D02*
X122901000Y-90704000D01*
X122941000Y-84569000D02*
X122941000Y-86590000D01*
X122941000Y-88670000D02*
X122941000Y-90691000D01*
X122981000Y-84583000D02*
X122981000Y-86590000D01*
X122981000Y-88670000D02*
X122981000Y-90677000D01*
X123021000Y-84597000D02*
X123021000Y-86590000D01*
X123021000Y-88670000D02*
X123021000Y-90663000D01*
X123061000Y-84612000D02*
X123061000Y-86590000D01*
X123061000Y-88670000D02*
X123061000Y-90648000D01*
X123101000Y-84628000D02*
X123101000Y-86590000D01*
X123101000Y-88670000D02*
X123101000Y-90632000D01*
X123141000Y-84644000D02*
X123141000Y-86590000D01*
X123141000Y-88670000D02*
X123141000Y-90616000D01*
X123181000Y-84660000D02*
X123181000Y-86590000D01*
X123181000Y-88670000D02*
X123181000Y-90600000D01*
X123221000Y-84678000D02*
X123221000Y-86590000D01*
X123221000Y-88670000D02*
X123221000Y-90582000D01*
X123261000Y-84696000D02*
X123261000Y-86590000D01*
X123261000Y-88670000D02*
X123261000Y-90564000D01*
X123301000Y-84714000D02*
X123301000Y-86590000D01*
X123301000Y-88670000D02*
X123301000Y-90546000D01*
X123341000Y-84734000D02*
X123341000Y-86590000D01*
X123341000Y-88670000D02*
X123341000Y-90526000D01*
X123381000Y-84754000D02*
X123381000Y-86590000D01*
X123381000Y-88670000D02*
X123381000Y-90506000D01*
X123421000Y-84774000D02*
X123421000Y-86590000D01*
X123421000Y-88670000D02*
X123421000Y-90486000D01*
X123461000Y-84796000D02*
X123461000Y-86590000D01*
X123461000Y-88670000D02*
X123461000Y-90464000D01*
X123501000Y-84818000D02*
X123501000Y-86590000D01*
X123501000Y-88670000D02*
X123501000Y-90442000D01*
X123541000Y-84840000D02*
X123541000Y-86590000D01*
X123541000Y-88670000D02*
X123541000Y-90420000D01*
X123581000Y-84864000D02*
X123581000Y-86590000D01*
X123581000Y-88670000D02*
X123581000Y-90396000D01*
X123621000Y-84888000D02*
X123621000Y-86590000D01*
X123621000Y-88670000D02*
X123621000Y-90372000D01*
X123661000Y-84914000D02*
X123661000Y-86590000D01*
X123661000Y-88670000D02*
X123661000Y-90346000D01*
X123701000Y-84940000D02*
X123701000Y-86590000D01*
X123701000Y-88670000D02*
X123701000Y-90320000D01*
X123741000Y-84966000D02*
X123741000Y-86590000D01*
X123741000Y-88670000D02*
X123741000Y-90294000D01*
X123781000Y-84994000D02*
X123781000Y-86590000D01*
X123781000Y-88670000D02*
X123781000Y-90266000D01*
X123821000Y-85023000D02*
X123821000Y-86590000D01*
X123821000Y-88670000D02*
X123821000Y-90237000D01*
X123861000Y-85052000D02*
X123861000Y-86590000D01*
X123861000Y-88670000D02*
X123861000Y-90208000D01*
X123901000Y-85082000D02*
X123901000Y-86590000D01*
X123901000Y-88670000D02*
X123901000Y-90178000D01*
X123941000Y-85114000D02*
X123941000Y-86590000D01*
X123941000Y-88670000D02*
X123941000Y-90146000D01*
X123981000Y-85146000D02*
X123981000Y-86590000D01*
X123981000Y-88670000D02*
X123981000Y-90114000D01*
X124021000Y-85180000D02*
X124021000Y-86590000D01*
X124021000Y-88670000D02*
X124021000Y-90080000D01*
X124061000Y-85214000D02*
X124061000Y-86590000D01*
X124061000Y-88670000D02*
X124061000Y-90046000D01*
X124101000Y-85250000D02*
X124101000Y-86590000D01*
X124101000Y-88670000D02*
X124101000Y-90010000D01*
X124141000Y-85287000D02*
X124141000Y-86590000D01*
X124141000Y-88670000D02*
X124141000Y-89973000D01*
X124181000Y-85325000D02*
X124181000Y-86590000D01*
X124181000Y-88670000D02*
X124181000Y-89935000D01*
X124221000Y-85365000D02*
X124221000Y-89895000D01*
X124261000Y-85406000D02*
X124261000Y-89854000D01*
X124301000Y-85448000D02*
X124301000Y-89812000D01*
X124341000Y-85493000D02*
X124341000Y-89767000D01*
X124381000Y-85538000D02*
X124381000Y-89722000D01*
X124421000Y-85586000D02*
X124421000Y-89674000D01*
X124461000Y-85635000D02*
X124461000Y-89625000D01*
X124501000Y-85686000D02*
X124501000Y-89574000D01*
X124541000Y-85740000D02*
X124541000Y-89520000D01*
X124581000Y-85796000D02*
X124581000Y-89464000D01*
X124621000Y-85854000D02*
X124621000Y-89406000D01*
X124661000Y-85916000D02*
X124661000Y-89344000D01*
X124701000Y-85980000D02*
X124701000Y-89280000D01*
X124741000Y-86049000D02*
X124741000Y-89211000D01*
X124781000Y-86121000D02*
X124781000Y-89139000D01*
X124821000Y-86198000D02*
X124821000Y-89062000D01*
X124861000Y-86280000D02*
X124861000Y-88980000D01*
X124901000Y-86368000D02*
X124901000Y-88892000D01*
X124941000Y-86465000D02*
X124941000Y-88795000D01*
X124981000Y-86571000D02*
X124981000Y-88689000D01*
X125021000Y-86690000D02*
X125021000Y-88570000D01*
X125061000Y-86828000D02*
X125061000Y-88432000D01*
X125101000Y-86997000D02*
X125101000Y-88263000D01*
X125141000Y-87228000D02*
X125141000Y-88032000D01*
X118399759Y-85791000D02*
X119029759Y-85791000D01*
X118714759Y-85476000D02*
X118714759Y-86106000D01*
G04 #@! TO.C,C2*
X124476252Y-112955000D02*
X123953748Y-112955000D01*
X124476252Y-114375000D02*
X123953748Y-114375000D01*
G04 #@! TO.C,C3*
X99770000Y-56643748D02*
X99770000Y-57166252D01*
X98350000Y-56643748D02*
X98350000Y-57166252D01*
G04 #@! TO.C,C4*
X113740000Y-56643748D02*
X113740000Y-57166252D01*
X112320000Y-56643748D02*
X112320000Y-57166252D01*
G04 #@! TO.C,C5*
X126290000Y-56643748D02*
X126290000Y-57166252D01*
X127710000Y-56643748D02*
X127710000Y-57166252D01*
G04 #@! TO.C,C6*
X112320000Y-113291252D02*
X112320000Y-112768748D01*
X113740000Y-113291252D02*
X113740000Y-112768748D01*
G04 #@! TO.C,C7*
X116280000Y-113291252D02*
X116280000Y-112768748D01*
X114860000Y-113291252D02*
X114860000Y-112768748D01*
G04 #@! TO.C,D1*
X121740000Y-79940000D02*
X121740000Y-79810000D01*
X121740000Y-79810000D02*
X127180000Y-79810000D01*
X127180000Y-79810000D02*
X127180000Y-79940000D01*
X121740000Y-82620000D02*
X121740000Y-82750000D01*
X121740000Y-82750000D02*
X127180000Y-82750000D01*
X127180000Y-82750000D02*
X127180000Y-82620000D01*
X122640000Y-79810000D02*
X122640000Y-82750000D01*
X122760000Y-79810000D02*
X122760000Y-82750000D01*
X122520000Y-79810000D02*
X122520000Y-82750000D01*
G04 #@! TO.C,J1*
X99060000Y-77410000D02*
X99060000Y-80070000D01*
X99060000Y-77410000D02*
X96460000Y-77410000D01*
X96460000Y-77410000D02*
X96460000Y-80070000D01*
X99060000Y-80070000D02*
X96460000Y-80070000D01*
X101660000Y-80070000D02*
X100330000Y-80070000D01*
X101660000Y-78740000D02*
X101660000Y-80070000D01*
G04 #@! TO.C,J2*
X96580000Y-78740000D02*
X96580000Y-80070000D01*
X96580000Y-80070000D02*
X95250000Y-80070000D01*
X93980000Y-80070000D02*
X91380000Y-80070000D01*
X91380000Y-77410000D02*
X91380000Y-80070000D01*
X93980000Y-77410000D02*
X91380000Y-77410000D01*
X93980000Y-77410000D02*
X93980000Y-80070000D01*
G04 #@! TO.C,J3*
X106680000Y-52130000D02*
X106680000Y-49470000D01*
X106680000Y-52130000D02*
X111820000Y-52130000D01*
X111820000Y-52130000D02*
X111820000Y-49470000D01*
X106680000Y-49470000D02*
X111820000Y-49470000D01*
X104080000Y-49470000D02*
X105410000Y-49470000D01*
X104080000Y-50800000D02*
X104080000Y-49470000D01*
G04 #@! TO.C,J4*
X92710000Y-52130000D02*
X92710000Y-49470000D01*
X92710000Y-52130000D02*
X97850000Y-52130000D01*
X97850000Y-52130000D02*
X97850000Y-49470000D01*
X92710000Y-49470000D02*
X97850000Y-49470000D01*
X90110000Y-49470000D02*
X91440000Y-49470000D01*
X90110000Y-50800000D02*
X90110000Y-49470000D01*
G04 #@! TO.C,J5*
X118050000Y-50800000D02*
X118050000Y-49470000D01*
X118050000Y-49470000D02*
X119380000Y-49470000D01*
X120650000Y-49470000D02*
X125790000Y-49470000D01*
X125790000Y-52130000D02*
X125790000Y-49470000D01*
X120650000Y-52130000D02*
X125790000Y-52130000D01*
X120650000Y-52130000D02*
X120650000Y-49470000D01*
G04 #@! TO.C,J6*
X127060000Y-99120000D02*
X127060000Y-96460000D01*
X124460000Y-99120000D02*
X127060000Y-99120000D01*
X124460000Y-96460000D02*
X127060000Y-96460000D01*
X124460000Y-99120000D02*
X124460000Y-96460000D01*
X123190000Y-99120000D02*
X121860000Y-99120000D01*
X121860000Y-99120000D02*
X121860000Y-97790000D01*
G04 #@! TO.C,J7*
X88840000Y-124460000D02*
X88840000Y-123130000D01*
X88840000Y-123130000D02*
X90170000Y-123130000D01*
X91440000Y-123130000D02*
X96580000Y-123130000D01*
X96580000Y-125790000D02*
X96580000Y-123130000D01*
X91440000Y-125790000D02*
X96580000Y-125790000D01*
X91440000Y-125790000D02*
X91440000Y-123130000D01*
G04 #@! TO.C,J8*
X121920000Y-125790000D02*
X121920000Y-123130000D01*
X121920000Y-125790000D02*
X127060000Y-125790000D01*
X127060000Y-125790000D02*
X127060000Y-123130000D01*
X121920000Y-123130000D02*
X127060000Y-123130000D01*
X119320000Y-123130000D02*
X120650000Y-123130000D01*
X119320000Y-124460000D02*
X119320000Y-123130000D01*
G04 #@! TO.C,R1*
X109780000Y-57166252D02*
X109780000Y-56643748D01*
X111200000Y-57166252D02*
X111200000Y-56643748D01*
G04 #@! TO.C,R2*
X97230000Y-57166252D02*
X97230000Y-56643748D01*
X95810000Y-57166252D02*
X95810000Y-56643748D01*
G04 #@! TO.C,R3*
X125170000Y-57166252D02*
X125170000Y-56643748D01*
X123750000Y-57166252D02*
X123750000Y-56643748D01*
G04 #@! TO.C,R4*
X104700000Y-56643748D02*
X104700000Y-57166252D01*
X106120000Y-56643748D02*
X106120000Y-57166252D01*
G04 #@! TO.C,R5*
X92150000Y-56643748D02*
X92150000Y-57166252D01*
X90730000Y-56643748D02*
X90730000Y-57166252D01*
G04 #@! TO.C,R6*
X120090000Y-56643748D02*
X120090000Y-57166252D01*
X118670000Y-56643748D02*
X118670000Y-57166252D01*
G04 #@! TO.C,R7*
X109780000Y-112768748D02*
X109780000Y-113291252D01*
X111200000Y-112768748D02*
X111200000Y-113291252D01*
G04 #@! TO.C,R8*
X89460000Y-120666252D02*
X89460000Y-120143748D01*
X90880000Y-120666252D02*
X90880000Y-120143748D01*
G04 #@! TO.C,R9*
X118820000Y-112768748D02*
X118820000Y-113291252D01*
X117400000Y-112768748D02*
X117400000Y-113291252D01*
G04 #@! TO.C,R10*
X121360000Y-120666252D02*
X121360000Y-120143748D01*
X119940000Y-120666252D02*
X119940000Y-120143748D01*
D10*
G04 #@! TO.C,U1*
X109220000Y-81280000D02*
X109220000Y-99060000D01*
X109220000Y-99060000D02*
X88900000Y-99060000D01*
X88900000Y-99060000D02*
X88900000Y-81280000D01*
X88900000Y-81280000D02*
X109220000Y-81280000D01*
G04 #@! TO.C,U2*
X96520000Y-76200000D02*
X119380000Y-76200000D01*
X119380000Y-76200000D02*
X124460000Y-76200000D01*
X124460000Y-71120000D02*
G75*
G02X124460000Y-76200000I0J-2540000D01*
G01*
X124460000Y-71120000D02*
X121920000Y-71120000D01*
X96520000Y-76200000D02*
X91440000Y-76200000D01*
X91440000Y-76200000D02*
G75*
G02X91440000Y-71120000I0J2540000D01*
G01*
X91440000Y-71120000D02*
X93980000Y-71120000D01*
X121920000Y-71120000D02*
X121920000Y-58420000D01*
X121920000Y-58420000D02*
X124460000Y-58420000D01*
X124460000Y-53340000D02*
X91440000Y-53340000D01*
X91440000Y-58420000D02*
X93980000Y-58420000D01*
X93980000Y-58420000D02*
X93980000Y-71120000D01*
X124460000Y-53340000D02*
G75*
G02X124460000Y-58420000I0J-2540000D01*
G01*
X91440000Y-58420000D02*
G75*
G02X91440000Y-53340000I0J2540000D01*
G01*
X125730000Y-55880000D02*
G75*
G03X125730000Y-55880000I-1270000J0D01*
G01*
X92710000Y-55880000D02*
G75*
G03X92710000Y-55880000I-1270000J0D01*
G01*
X125730000Y-73660000D02*
G75*
G03X125730000Y-73660000I-1270000J0D01*
G01*
X92710000Y-73660000D02*
G75*
G03X92710000Y-73660000I-1270000J0D01*
G01*
D12*
G04 #@! TO.C,*
X95190000Y-72450000D02*
X95190000Y-71120000D01*
X96520000Y-72450000D02*
X95190000Y-72450000D01*
X97790000Y-72450000D02*
X97790000Y-69790000D01*
X97790000Y-69790000D02*
X120710000Y-69790000D01*
X97790000Y-72450000D02*
X120710000Y-72450000D01*
X120710000Y-72450000D02*
X120710000Y-69790000D01*
X129480000Y-87570000D02*
X130810000Y-87570000D01*
X129480000Y-88900000D02*
X129480000Y-87570000D01*
X129480000Y-90170000D02*
X132140000Y-90170000D01*
X132140000Y-90170000D02*
X132140000Y-90230000D01*
X129480000Y-90170000D02*
X129480000Y-90230000D01*
X129480000Y-90230000D02*
X132140000Y-90230000D01*
G04 #@! TO.C,TP1*
X100895000Y-50800000D02*
G75*
G03X100895000Y-50800000I-1200000J0D01*
G01*
G04 #@! TO.C,5V*
X104080000Y-77410000D02*
X105410000Y-77410000D01*
X104080000Y-78740000D02*
X104080000Y-77410000D01*
X104080000Y-80010000D02*
X106740000Y-80010000D01*
X106740000Y-80010000D02*
X106740000Y-80070000D01*
X104080000Y-80010000D02*
X104080000Y-80070000D01*
X104080000Y-80070000D02*
X106740000Y-80070000D01*
G04 #@! TO.C,*
D10*
G04 #@! TO.C,TP5*
X127643095Y-120737380D02*
X128214523Y-120737380D01*
X127928809Y-121737380D02*
X127928809Y-120737380D01*
X128547857Y-121737380D02*
X128547857Y-120737380D01*
X128928809Y-120737380D01*
X129024047Y-120785000D01*
X129071666Y-120832619D01*
X129119285Y-120927857D01*
X129119285Y-121070714D01*
X129071666Y-121165952D01*
X129024047Y-121213571D01*
X128928809Y-121261190D01*
X128547857Y-121261190D01*
X130024047Y-120737380D02*
X129547857Y-120737380D01*
X129500238Y-121213571D01*
X129547857Y-121165952D01*
X129643095Y-121118333D01*
X129881190Y-121118333D01*
X129976428Y-121165952D01*
X130024047Y-121213571D01*
X130071666Y-121308809D01*
X130071666Y-121546904D01*
X130024047Y-121642142D01*
X129976428Y-121689761D01*
X129881190Y-121737380D01*
X129643095Y-121737380D01*
X129547857Y-121689761D01*
X129500238Y-121642142D01*
G04 #@! TO.C,TP4*
X97163095Y-120737380D02*
X97734523Y-120737380D01*
X97448809Y-121737380D02*
X97448809Y-120737380D01*
X98067857Y-121737380D02*
X98067857Y-120737380D01*
X98448809Y-120737380D01*
X98544047Y-120785000D01*
X98591666Y-120832619D01*
X98639285Y-120927857D01*
X98639285Y-121070714D01*
X98591666Y-121165952D01*
X98544047Y-121213571D01*
X98448809Y-121261190D01*
X98067857Y-121261190D01*
X99496428Y-121070714D02*
X99496428Y-121737380D01*
X99258333Y-120689761D02*
X99020238Y-121404047D01*
X99639285Y-121404047D01*
G04 #@! TO.C,TP3*
X126373095Y-52792380D02*
X126944523Y-52792380D01*
X126658809Y-53792380D02*
X126658809Y-52792380D01*
X127277857Y-53792380D02*
X127277857Y-52792380D01*
X127658809Y-52792380D01*
X127754047Y-52840000D01*
X127801666Y-52887619D01*
X127849285Y-52982857D01*
X127849285Y-53125714D01*
X127801666Y-53220952D01*
X127754047Y-53268571D01*
X127658809Y-53316190D01*
X127277857Y-53316190D01*
X128182619Y-52792380D02*
X128801666Y-52792380D01*
X128468333Y-53173333D01*
X128611190Y-53173333D01*
X128706428Y-53220952D01*
X128754047Y-53268571D01*
X128801666Y-53363809D01*
X128801666Y-53601904D01*
X128754047Y-53697142D01*
X128706428Y-53744761D01*
X128611190Y-53792380D01*
X128325476Y-53792380D01*
X128230238Y-53744761D01*
X128182619Y-53697142D01*
G04 #@! TO.C,TP2*
X112403095Y-52157380D02*
X112974523Y-52157380D01*
X112688809Y-53157380D02*
X112688809Y-52157380D01*
X113307857Y-53157380D02*
X113307857Y-52157380D01*
X113688809Y-52157380D01*
X113784047Y-52205000D01*
X113831666Y-52252619D01*
X113879285Y-52347857D01*
X113879285Y-52490714D01*
X113831666Y-52585952D01*
X113784047Y-52633571D01*
X113688809Y-52681190D01*
X113307857Y-52681190D01*
X114260238Y-52252619D02*
X114307857Y-52205000D01*
X114403095Y-52157380D01*
X114641190Y-52157380D01*
X114736428Y-52205000D01*
X114784047Y-52252619D01*
X114831666Y-52347857D01*
X114831666Y-52443095D01*
X114784047Y-52585952D01*
X114212619Y-53157380D01*
X114831666Y-53157380D01*
G04 #@! TO.C,*
G04 #@! TO.C,A1*
X130976666Y-109934285D02*
X130976666Y-109458095D01*
X131262380Y-110029523D02*
X130262380Y-109696190D01*
X131262380Y-109362857D01*
X131262380Y-108505714D02*
X131262380Y-109077142D01*
X131262380Y-108791428D02*
X130262380Y-108791428D01*
X130405238Y-108886666D01*
X130500476Y-108981904D01*
X130548095Y-109077142D01*
G04 #@! TO.C,BT1*
X130024285Y-78438571D02*
X130167142Y-78486190D01*
X130214761Y-78533809D01*
X130262380Y-78629047D01*
X130262380Y-78771904D01*
X130214761Y-78867142D01*
X130167142Y-78914761D01*
X130071904Y-78962380D01*
X129690952Y-78962380D01*
X129690952Y-77962380D01*
X130024285Y-77962380D01*
X130119523Y-78010000D01*
X130167142Y-78057619D01*
X130214761Y-78152857D01*
X130214761Y-78248095D01*
X130167142Y-78343333D01*
X130119523Y-78390952D01*
X130024285Y-78438571D01*
X129690952Y-78438571D01*
X130548095Y-77962380D02*
X131119523Y-77962380D01*
X130833809Y-78962380D02*
X130833809Y-77962380D01*
X131976666Y-78962380D02*
X131405238Y-78962380D01*
X131690952Y-78962380D02*
X131690952Y-77962380D01*
X131595714Y-78105238D01*
X131500476Y-78200476D01*
X131405238Y-78248095D01*
G04 #@! TO.C,C1*
X116673333Y-88622142D02*
X116625714Y-88669761D01*
X116482857Y-88717380D01*
X116387619Y-88717380D01*
X116244761Y-88669761D01*
X116149523Y-88574523D01*
X116101904Y-88479285D01*
X116054285Y-88288809D01*
X116054285Y-88145952D01*
X116101904Y-87955476D01*
X116149523Y-87860238D01*
X116244761Y-87765000D01*
X116387619Y-87717380D01*
X116482857Y-87717380D01*
X116625714Y-87765000D01*
X116673333Y-87812619D01*
X117625714Y-88717380D02*
X117054285Y-88717380D01*
X117340000Y-88717380D02*
X117340000Y-87717380D01*
X117244761Y-87860238D01*
X117149523Y-87955476D01*
X117054285Y-88003095D01*
G04 #@! TO.C,C2*
X124048333Y-112117142D02*
X124000714Y-112164761D01*
X123857857Y-112212380D01*
X123762619Y-112212380D01*
X123619761Y-112164761D01*
X123524523Y-112069523D01*
X123476904Y-111974285D01*
X123429285Y-111783809D01*
X123429285Y-111640952D01*
X123476904Y-111450476D01*
X123524523Y-111355238D01*
X123619761Y-111260000D01*
X123762619Y-111212380D01*
X123857857Y-111212380D01*
X124000714Y-111260000D01*
X124048333Y-111307619D01*
X124429285Y-111307619D02*
X124476904Y-111260000D01*
X124572142Y-111212380D01*
X124810238Y-111212380D01*
X124905476Y-111260000D01*
X124953095Y-111307619D01*
X125000714Y-111402857D01*
X125000714Y-111498095D01*
X124953095Y-111640952D01*
X124381666Y-112212380D01*
X125000714Y-112212380D01*
G04 #@! TO.C,C3*
X99417142Y-60491666D02*
X99464761Y-60539285D01*
X99512380Y-60682142D01*
X99512380Y-60777380D01*
X99464761Y-60920238D01*
X99369523Y-61015476D01*
X99274285Y-61063095D01*
X99083809Y-61110714D01*
X98940952Y-61110714D01*
X98750476Y-61063095D01*
X98655238Y-61015476D01*
X98560000Y-60920238D01*
X98512380Y-60777380D01*
X98512380Y-60682142D01*
X98560000Y-60539285D01*
X98607619Y-60491666D01*
X98512380Y-60158333D02*
X98512380Y-59539285D01*
X98893333Y-59872619D01*
X98893333Y-59729761D01*
X98940952Y-59634523D01*
X98988571Y-59586904D01*
X99083809Y-59539285D01*
X99321904Y-59539285D01*
X99417142Y-59586904D01*
X99464761Y-59634523D01*
X99512380Y-59729761D01*
X99512380Y-60015476D01*
X99464761Y-60110714D01*
X99417142Y-60158333D01*
G04 #@! TO.C,C4*
X113387142Y-60491666D02*
X113434761Y-60539285D01*
X113482380Y-60682142D01*
X113482380Y-60777380D01*
X113434761Y-60920238D01*
X113339523Y-61015476D01*
X113244285Y-61063095D01*
X113053809Y-61110714D01*
X112910952Y-61110714D01*
X112720476Y-61063095D01*
X112625238Y-61015476D01*
X112530000Y-60920238D01*
X112482380Y-60777380D01*
X112482380Y-60682142D01*
X112530000Y-60539285D01*
X112577619Y-60491666D01*
X112815714Y-59634523D02*
X113482380Y-59634523D01*
X112434761Y-59872619D02*
X113149047Y-60110714D01*
X113149047Y-59491666D01*
G04 #@! TO.C,C5*
X127357142Y-60491666D02*
X127404761Y-60539285D01*
X127452380Y-60682142D01*
X127452380Y-60777380D01*
X127404761Y-60920238D01*
X127309523Y-61015476D01*
X127214285Y-61063095D01*
X127023809Y-61110714D01*
X126880952Y-61110714D01*
X126690476Y-61063095D01*
X126595238Y-61015476D01*
X126500000Y-60920238D01*
X126452380Y-60777380D01*
X126452380Y-60682142D01*
X126500000Y-60539285D01*
X126547619Y-60491666D01*
X126452380Y-59586904D02*
X126452380Y-60063095D01*
X126928571Y-60110714D01*
X126880952Y-60063095D01*
X126833333Y-59967857D01*
X126833333Y-59729761D01*
X126880952Y-59634523D01*
X126928571Y-59586904D01*
X127023809Y-59539285D01*
X127261904Y-59539285D01*
X127357142Y-59586904D01*
X127404761Y-59634523D01*
X127452380Y-59729761D01*
X127452380Y-59967857D01*
X127404761Y-60063095D01*
X127357142Y-60110714D01*
G04 #@! TO.C,C6*
X113387142Y-110021666D02*
X113434761Y-110069285D01*
X113482380Y-110212142D01*
X113482380Y-110307380D01*
X113434761Y-110450238D01*
X113339523Y-110545476D01*
X113244285Y-110593095D01*
X113053809Y-110640714D01*
X112910952Y-110640714D01*
X112720476Y-110593095D01*
X112625238Y-110545476D01*
X112530000Y-110450238D01*
X112482380Y-110307380D01*
X112482380Y-110212142D01*
X112530000Y-110069285D01*
X112577619Y-110021666D01*
X112482380Y-109164523D02*
X112482380Y-109355000D01*
X112530000Y-109450238D01*
X112577619Y-109497857D01*
X112720476Y-109593095D01*
X112910952Y-109640714D01*
X113291904Y-109640714D01*
X113387142Y-109593095D01*
X113434761Y-109545476D01*
X113482380Y-109450238D01*
X113482380Y-109259761D01*
X113434761Y-109164523D01*
X113387142Y-109116904D01*
X113291904Y-109069285D01*
X113053809Y-109069285D01*
X112958571Y-109116904D01*
X112910952Y-109164523D01*
X112863333Y-109259761D01*
X112863333Y-109450238D01*
X112910952Y-109545476D01*
X112958571Y-109593095D01*
X113053809Y-109640714D01*
G04 #@! TO.C,C7*
X115927142Y-110021666D02*
X115974761Y-110069285D01*
X116022380Y-110212142D01*
X116022380Y-110307380D01*
X115974761Y-110450238D01*
X115879523Y-110545476D01*
X115784285Y-110593095D01*
X115593809Y-110640714D01*
X115450952Y-110640714D01*
X115260476Y-110593095D01*
X115165238Y-110545476D01*
X115070000Y-110450238D01*
X115022380Y-110307380D01*
X115022380Y-110212142D01*
X115070000Y-110069285D01*
X115117619Y-110021666D01*
X115022380Y-109688333D02*
X115022380Y-109021666D01*
X116022380Y-109450238D01*
G04 #@! TO.C,D1*
X123721904Y-79262380D02*
X123721904Y-78262380D01*
X123960000Y-78262380D01*
X124102857Y-78310000D01*
X124198095Y-78405238D01*
X124245714Y-78500476D01*
X124293333Y-78690952D01*
X124293333Y-78833809D01*
X124245714Y-79024285D01*
X124198095Y-79119523D01*
X124102857Y-79214761D01*
X123960000Y-79262380D01*
X123721904Y-79262380D01*
X125245714Y-79262380D02*
X124674285Y-79262380D01*
X124960000Y-79262380D02*
X124960000Y-78262380D01*
X124864761Y-78405238D01*
X124769523Y-78500476D01*
X124674285Y-78548095D01*
X120388095Y-79632380D02*
X120388095Y-78632380D01*
X120959523Y-79632380D02*
X120530952Y-79060952D01*
X120959523Y-78632380D02*
X120388095Y-79203809D01*
G04 #@! TO.C,J1*
X102552380Y-79073333D02*
X103266666Y-79073333D01*
X103409523Y-79120952D01*
X103504761Y-79216190D01*
X103552380Y-79359047D01*
X103552380Y-79454285D01*
X103552380Y-78073333D02*
X103552380Y-78644761D01*
X103552380Y-78359047D02*
X102552380Y-78359047D01*
X102695238Y-78454285D01*
X102790476Y-78549523D01*
X102838095Y-78644761D01*
G04 #@! TO.C,J2*
X89622380Y-79073333D02*
X90336666Y-79073333D01*
X90479523Y-79120952D01*
X90574761Y-79216190D01*
X90622380Y-79359047D01*
X90622380Y-79454285D01*
X89717619Y-78644761D02*
X89670000Y-78597142D01*
X89622380Y-78501904D01*
X89622380Y-78263809D01*
X89670000Y-78168571D01*
X89717619Y-78120952D01*
X89812857Y-78073333D01*
X89908095Y-78073333D01*
X90050952Y-78120952D01*
X90622380Y-78692380D01*
X90622380Y-78073333D01*
G04 #@! TO.C,J3*
X102092380Y-51133333D02*
X102806666Y-51133333D01*
X102949523Y-51180952D01*
X103044761Y-51276190D01*
X103092380Y-51419047D01*
X103092380Y-51514285D01*
X102092380Y-50752380D02*
X102092380Y-50133333D01*
X102473333Y-50466666D01*
X102473333Y-50323809D01*
X102520952Y-50228571D01*
X102568571Y-50180952D01*
X102663809Y-50133333D01*
X102901904Y-50133333D01*
X102997142Y-50180952D01*
X103044761Y-50228571D01*
X103092380Y-50323809D01*
X103092380Y-50609523D01*
X103044761Y-50704761D01*
X102997142Y-50752380D01*
G04 #@! TO.C,J4*
X88122380Y-51133333D02*
X88836666Y-51133333D01*
X88979523Y-51180952D01*
X89074761Y-51276190D01*
X89122380Y-51419047D01*
X89122380Y-51514285D01*
X88455714Y-50228571D02*
X89122380Y-50228571D01*
X88074761Y-50466666D02*
X88789047Y-50704761D01*
X88789047Y-50085714D01*
G04 #@! TO.C,J5*
X116062380Y-51133333D02*
X116776666Y-51133333D01*
X116919523Y-51180952D01*
X117014761Y-51276190D01*
X117062380Y-51419047D01*
X117062380Y-51514285D01*
X116062380Y-50180952D02*
X116062380Y-50657142D01*
X116538571Y-50704761D01*
X116490952Y-50657142D01*
X116443333Y-50561904D01*
X116443333Y-50323809D01*
X116490952Y-50228571D01*
X116538571Y-50180952D01*
X116633809Y-50133333D01*
X116871904Y-50133333D01*
X116967142Y-50180952D01*
X117014761Y-50228571D01*
X117062380Y-50323809D01*
X117062380Y-50561904D01*
X117014761Y-50657142D01*
X116967142Y-50704761D01*
G04 #@! TO.C,J6*
X120312380Y-98123333D02*
X121026666Y-98123333D01*
X121169523Y-98170952D01*
X121264761Y-98266190D01*
X121312380Y-98409047D01*
X121312380Y-98504285D01*
X120312380Y-97218571D02*
X120312380Y-97409047D01*
X120360000Y-97504285D01*
X120407619Y-97551904D01*
X120550476Y-97647142D01*
X120740952Y-97694761D01*
X121121904Y-97694761D01*
X121217142Y-97647142D01*
X121264761Y-97599523D01*
X121312380Y-97504285D01*
X121312380Y-97313809D01*
X121264761Y-97218571D01*
X121217142Y-97170952D01*
X121121904Y-97123333D01*
X120883809Y-97123333D01*
X120788571Y-97170952D01*
X120740952Y-97218571D01*
X120693333Y-97313809D01*
X120693333Y-97504285D01*
X120740952Y-97599523D01*
X120788571Y-97647142D01*
X120883809Y-97694761D01*
G04 #@! TO.C,J7*
X86852380Y-124793333D02*
X87566666Y-124793333D01*
X87709523Y-124840952D01*
X87804761Y-124936190D01*
X87852380Y-125079047D01*
X87852380Y-125174285D01*
X86852380Y-124412380D02*
X86852380Y-123745714D01*
X87852380Y-124174285D01*
G04 #@! TO.C,J8*
X127722380Y-124793333D02*
X128436666Y-124793333D01*
X128579523Y-124840952D01*
X128674761Y-124936190D01*
X128722380Y-125079047D01*
X128722380Y-125174285D01*
X128150952Y-124174285D02*
X128103333Y-124269523D01*
X128055714Y-124317142D01*
X127960476Y-124364761D01*
X127912857Y-124364761D01*
X127817619Y-124317142D01*
X127770000Y-124269523D01*
X127722380Y-124174285D01*
X127722380Y-123983809D01*
X127770000Y-123888571D01*
X127817619Y-123840952D01*
X127912857Y-123793333D01*
X127960476Y-123793333D01*
X128055714Y-123840952D01*
X128103333Y-123888571D01*
X128150952Y-123983809D01*
X128150952Y-124174285D01*
X128198571Y-124269523D01*
X128246190Y-124317142D01*
X128341428Y-124364761D01*
X128531904Y-124364761D01*
X128627142Y-124317142D01*
X128674761Y-124269523D01*
X128722380Y-124174285D01*
X128722380Y-123983809D01*
X128674761Y-123888571D01*
X128627142Y-123840952D01*
X128531904Y-123793333D01*
X128341428Y-123793333D01*
X128246190Y-123840952D01*
X128198571Y-123888571D01*
X128150952Y-123983809D01*
G04 #@! TO.C,R1*
X110942380Y-60491666D02*
X110466190Y-60825000D01*
X110942380Y-61063095D02*
X109942380Y-61063095D01*
X109942380Y-60682142D01*
X109990000Y-60586904D01*
X110037619Y-60539285D01*
X110132857Y-60491666D01*
X110275714Y-60491666D01*
X110370952Y-60539285D01*
X110418571Y-60586904D01*
X110466190Y-60682142D01*
X110466190Y-61063095D01*
X110942380Y-59539285D02*
X110942380Y-60110714D01*
X110942380Y-59825000D02*
X109942380Y-59825000D01*
X110085238Y-59920238D01*
X110180476Y-60015476D01*
X110228095Y-60110714D01*
G04 #@! TO.C,R2*
X96972380Y-60491666D02*
X96496190Y-60825000D01*
X96972380Y-61063095D02*
X95972380Y-61063095D01*
X95972380Y-60682142D01*
X96020000Y-60586904D01*
X96067619Y-60539285D01*
X96162857Y-60491666D01*
X96305714Y-60491666D01*
X96400952Y-60539285D01*
X96448571Y-60586904D01*
X96496190Y-60682142D01*
X96496190Y-61063095D01*
X96067619Y-60110714D02*
X96020000Y-60063095D01*
X95972380Y-59967857D01*
X95972380Y-59729761D01*
X96020000Y-59634523D01*
X96067619Y-59586904D01*
X96162857Y-59539285D01*
X96258095Y-59539285D01*
X96400952Y-59586904D01*
X96972380Y-60158333D01*
X96972380Y-59539285D01*
G04 #@! TO.C,R3*
X124912380Y-60491666D02*
X124436190Y-60825000D01*
X124912380Y-61063095D02*
X123912380Y-61063095D01*
X123912380Y-60682142D01*
X123960000Y-60586904D01*
X124007619Y-60539285D01*
X124102857Y-60491666D01*
X124245714Y-60491666D01*
X124340952Y-60539285D01*
X124388571Y-60586904D01*
X124436190Y-60682142D01*
X124436190Y-61063095D01*
X123912380Y-60158333D02*
X123912380Y-59539285D01*
X124293333Y-59872619D01*
X124293333Y-59729761D01*
X124340952Y-59634523D01*
X124388571Y-59586904D01*
X124483809Y-59539285D01*
X124721904Y-59539285D01*
X124817142Y-59586904D01*
X124864761Y-59634523D01*
X124912380Y-59729761D01*
X124912380Y-60015476D01*
X124864761Y-60110714D01*
X124817142Y-60158333D01*
G04 #@! TO.C,R4*
X105862380Y-60491666D02*
X105386190Y-60825000D01*
X105862380Y-61063095D02*
X104862380Y-61063095D01*
X104862380Y-60682142D01*
X104910000Y-60586904D01*
X104957619Y-60539285D01*
X105052857Y-60491666D01*
X105195714Y-60491666D01*
X105290952Y-60539285D01*
X105338571Y-60586904D01*
X105386190Y-60682142D01*
X105386190Y-61063095D01*
X105195714Y-59634523D02*
X105862380Y-59634523D01*
X104814761Y-59872619D02*
X105529047Y-60110714D01*
X105529047Y-59491666D01*
G04 #@! TO.C,R5*
X91892380Y-60491666D02*
X91416190Y-60825000D01*
X91892380Y-61063095D02*
X90892380Y-61063095D01*
X90892380Y-60682142D01*
X90940000Y-60586904D01*
X90987619Y-60539285D01*
X91082857Y-60491666D01*
X91225714Y-60491666D01*
X91320952Y-60539285D01*
X91368571Y-60586904D01*
X91416190Y-60682142D01*
X91416190Y-61063095D01*
X90892380Y-59586904D02*
X90892380Y-60063095D01*
X91368571Y-60110714D01*
X91320952Y-60063095D01*
X91273333Y-59967857D01*
X91273333Y-59729761D01*
X91320952Y-59634523D01*
X91368571Y-59586904D01*
X91463809Y-59539285D01*
X91701904Y-59539285D01*
X91797142Y-59586904D01*
X91844761Y-59634523D01*
X91892380Y-59729761D01*
X91892380Y-59967857D01*
X91844761Y-60063095D01*
X91797142Y-60110714D01*
G04 #@! TO.C,R6*
X119832380Y-60491666D02*
X119356190Y-60825000D01*
X119832380Y-61063095D02*
X118832380Y-61063095D01*
X118832380Y-60682142D01*
X118880000Y-60586904D01*
X118927619Y-60539285D01*
X119022857Y-60491666D01*
X119165714Y-60491666D01*
X119260952Y-60539285D01*
X119308571Y-60586904D01*
X119356190Y-60682142D01*
X119356190Y-61063095D01*
X118832380Y-59634523D02*
X118832380Y-59825000D01*
X118880000Y-59920238D01*
X118927619Y-59967857D01*
X119070476Y-60063095D01*
X119260952Y-60110714D01*
X119641904Y-60110714D01*
X119737142Y-60063095D01*
X119784761Y-60015476D01*
X119832380Y-59920238D01*
X119832380Y-59729761D01*
X119784761Y-59634523D01*
X119737142Y-59586904D01*
X119641904Y-59539285D01*
X119403809Y-59539285D01*
X119308571Y-59586904D01*
X119260952Y-59634523D01*
X119213333Y-59729761D01*
X119213333Y-59920238D01*
X119260952Y-60015476D01*
X119308571Y-60063095D01*
X119403809Y-60110714D01*
G04 #@! TO.C,R7*
X110942380Y-110021666D02*
X110466190Y-110355000D01*
X110942380Y-110593095D02*
X109942380Y-110593095D01*
X109942380Y-110212142D01*
X109990000Y-110116904D01*
X110037619Y-110069285D01*
X110132857Y-110021666D01*
X110275714Y-110021666D01*
X110370952Y-110069285D01*
X110418571Y-110116904D01*
X110466190Y-110212142D01*
X110466190Y-110593095D01*
X109942380Y-109688333D02*
X109942380Y-109021666D01*
X110942380Y-109450238D01*
G04 #@! TO.C,R8*
X88972380Y-120571666D02*
X88496190Y-120905000D01*
X88972380Y-121143095D02*
X87972380Y-121143095D01*
X87972380Y-120762142D01*
X88020000Y-120666904D01*
X88067619Y-120619285D01*
X88162857Y-120571666D01*
X88305714Y-120571666D01*
X88400952Y-120619285D01*
X88448571Y-120666904D01*
X88496190Y-120762142D01*
X88496190Y-121143095D01*
X88400952Y-120000238D02*
X88353333Y-120095476D01*
X88305714Y-120143095D01*
X88210476Y-120190714D01*
X88162857Y-120190714D01*
X88067619Y-120143095D01*
X88020000Y-120095476D01*
X87972380Y-120000238D01*
X87972380Y-119809761D01*
X88020000Y-119714523D01*
X88067619Y-119666904D01*
X88162857Y-119619285D01*
X88210476Y-119619285D01*
X88305714Y-119666904D01*
X88353333Y-119714523D01*
X88400952Y-119809761D01*
X88400952Y-120000238D01*
X88448571Y-120095476D01*
X88496190Y-120143095D01*
X88591428Y-120190714D01*
X88781904Y-120190714D01*
X88877142Y-120143095D01*
X88924761Y-120095476D01*
X88972380Y-120000238D01*
X88972380Y-119809761D01*
X88924761Y-119714523D01*
X88877142Y-119666904D01*
X88781904Y-119619285D01*
X88591428Y-119619285D01*
X88496190Y-119666904D01*
X88448571Y-119714523D01*
X88400952Y-119809761D01*
G04 #@! TO.C,R9*
X118562380Y-110021666D02*
X118086190Y-110355000D01*
X118562380Y-110593095D02*
X117562380Y-110593095D01*
X117562380Y-110212142D01*
X117610000Y-110116904D01*
X117657619Y-110069285D01*
X117752857Y-110021666D01*
X117895714Y-110021666D01*
X117990952Y-110069285D01*
X118038571Y-110116904D01*
X118086190Y-110212142D01*
X118086190Y-110593095D01*
X118562380Y-109545476D02*
X118562380Y-109355000D01*
X118514761Y-109259761D01*
X118467142Y-109212142D01*
X118324285Y-109116904D01*
X118133809Y-109069285D01*
X117752857Y-109069285D01*
X117657619Y-109116904D01*
X117610000Y-109164523D01*
X117562380Y-109259761D01*
X117562380Y-109450238D01*
X117610000Y-109545476D01*
X117657619Y-109593095D01*
X117752857Y-109640714D01*
X117990952Y-109640714D01*
X118086190Y-109593095D01*
X118133809Y-109545476D01*
X118181428Y-109450238D01*
X118181428Y-109259761D01*
X118133809Y-109164523D01*
X118086190Y-109116904D01*
X117990952Y-109069285D01*
G04 #@! TO.C,R10*
X119452380Y-121047857D02*
X118976190Y-121381190D01*
X119452380Y-121619285D02*
X118452380Y-121619285D01*
X118452380Y-121238333D01*
X118500000Y-121143095D01*
X118547619Y-121095476D01*
X118642857Y-121047857D01*
X118785714Y-121047857D01*
X118880952Y-121095476D01*
X118928571Y-121143095D01*
X118976190Y-121238333D01*
X118976190Y-121619285D01*
X119452380Y-120095476D02*
X119452380Y-120666904D01*
X119452380Y-120381190D02*
X118452380Y-120381190D01*
X118595238Y-120476428D01*
X118690476Y-120571666D01*
X118738095Y-120666904D01*
X118452380Y-119476428D02*
X118452380Y-119381190D01*
X118500000Y-119285952D01*
X118547619Y-119238333D01*
X118642857Y-119190714D01*
X118833333Y-119143095D01*
X119071428Y-119143095D01*
X119261904Y-119190714D01*
X119357142Y-119238333D01*
X119404761Y-119285952D01*
X119452380Y-119381190D01*
X119452380Y-119476428D01*
X119404761Y-119571666D01*
X119357142Y-119619285D01*
X119261904Y-119666904D01*
X119071428Y-119714523D01*
X118833333Y-119714523D01*
X118642857Y-119666904D01*
X118547619Y-119619285D01*
X118500000Y-119571666D01*
X118452380Y-119476428D01*
G04 #@! TO.C,U1*
X107402380Y-90931904D02*
X108211904Y-90931904D01*
X108307142Y-90884285D01*
X108354761Y-90836666D01*
X108402380Y-90741428D01*
X108402380Y-90550952D01*
X108354761Y-90455714D01*
X108307142Y-90408095D01*
X108211904Y-90360476D01*
X107402380Y-90360476D01*
X108402380Y-89360476D02*
X108402380Y-89931904D01*
X108402380Y-89646190D02*
X107402380Y-89646190D01*
X107545238Y-89741428D01*
X107640476Y-89836666D01*
X107688095Y-89931904D01*
G04 #@! TO.C,U2*
X107188095Y-66127380D02*
X107188095Y-66936904D01*
X107235714Y-67032142D01*
X107283333Y-67079761D01*
X107378571Y-67127380D01*
X107569047Y-67127380D01*
X107664285Y-67079761D01*
X107711904Y-67032142D01*
X107759523Y-66936904D01*
X107759523Y-66127380D01*
X108188095Y-66222619D02*
X108235714Y-66175000D01*
X108330952Y-66127380D01*
X108569047Y-66127380D01*
X108664285Y-66175000D01*
X108711904Y-66222619D01*
X108759523Y-66317857D01*
X108759523Y-66413095D01*
X108711904Y-66555952D01*
X108140476Y-67127380D01*
X108759523Y-67127380D01*
G04 #@! TO.C,*
G04 #@! TO.C,TP1*
X98433095Y-52157380D02*
X99004523Y-52157380D01*
X98718809Y-53157380D02*
X98718809Y-52157380D01*
X99337857Y-53157380D02*
X99337857Y-52157380D01*
X99718809Y-52157380D01*
X99814047Y-52205000D01*
X99861666Y-52252619D01*
X99909285Y-52347857D01*
X99909285Y-52490714D01*
X99861666Y-52585952D01*
X99814047Y-52633571D01*
X99718809Y-52681190D01*
X99337857Y-52681190D01*
X100861666Y-53157380D02*
X100290238Y-53157380D01*
X100575952Y-53157380D02*
X100575952Y-52157380D01*
X100480714Y-52300238D01*
X100385476Y-52395476D01*
X100290238Y-52443095D01*
G04 #@! TO.C,5V*
X107759523Y-78192380D02*
X107283333Y-78192380D01*
X107235714Y-78668571D01*
X107283333Y-78620952D01*
X107378571Y-78573333D01*
X107616666Y-78573333D01*
X107711904Y-78620952D01*
X107759523Y-78668571D01*
X107807142Y-78763809D01*
X107807142Y-79001904D01*
X107759523Y-79097142D01*
X107711904Y-79144761D01*
X107616666Y-79192380D01*
X107378571Y-79192380D01*
X107283333Y-79144761D01*
X107235714Y-79097142D01*
X108092857Y-78192380D02*
X108426190Y-79192380D01*
X108759523Y-78192380D01*
G04 #@! TD*
M02*
