G04 #@! TF.GenerationSoftware,KiCad,Pcbnew,5.0.2-bee76a0~70~ubuntu18.04.1*
G04 #@! TF.CreationDate,2019-04-24T16:28:52+03:00*
G04 #@! TF.ProjectId,hw,68772e6b-6963-4616-945f-706362585858,rev?*
G04 #@! TF.SameCoordinates,Original*
G04 #@! TF.FileFunction,Copper,L1,Top*
G04 #@! TF.FilePolarity,Positive*
%FSLAX46Y46*%
G04 Gerber Fmt 4.6, Leading zero omitted, Abs format (unit mm)*
G04 Created by KiCad (PCBNEW 5.0.2-bee76a0~70~ubuntu18.04.1) date ke 24. huhtikuuta 2019 16.28.52*
%MOMM*%
%LPD*%
G01*
G04 APERTURE LIST*
G04 #@! TA.AperFunction,ComponentPad*
%ADD10R,1.700000X1.700000*%
G04 #@! TD*
G04 #@! TA.AperFunction,BGAPad,CuDef*
%ADD11C,2.000000*%
G04 #@! TD*
G04 #@! TA.AperFunction,ComponentPad*
%ADD12C,4.000000*%
G04 #@! TD*
G04 #@! TA.AperFunction,ComponentPad*
%ADD13R,1.600000X1.600000*%
G04 #@! TD*
G04 #@! TA.AperFunction,ComponentPad*
%ADD14O,1.600000X1.600000*%
G04 #@! TD*
G04 #@! TA.AperFunction,ComponentPad*
%ADD15O,1.700000X1.700000*%
G04 #@! TD*
G04 #@! TA.AperFunction,ComponentPad*
%ADD16C,1.600000*%
G04 #@! TD*
G04 #@! TA.AperFunction,Conductor*
%ADD17C,0.100000*%
G04 #@! TD*
G04 #@! TA.AperFunction,SMDPad,CuDef*
%ADD18C,1.150000*%
G04 #@! TD*
G04 #@! TA.AperFunction,ComponentPad*
%ADD19R,2.200000X2.200000*%
G04 #@! TD*
G04 #@! TA.AperFunction,ComponentPad*
%ADD20O,2.200000X2.200000*%
G04 #@! TD*
G04 #@! TA.AperFunction,ComponentPad*
%ADD21C,1.524000*%
G04 #@! TD*
G04 #@! TA.AperFunction,ViaPad*
%ADD22C,0.700000*%
G04 #@! TD*
G04 #@! TA.AperFunction,ViaPad*
%ADD23C,1.000000*%
G04 #@! TD*
G04 #@! TA.AperFunction,Conductor*
%ADD24C,0.300000*%
G04 #@! TD*
G04 #@! TA.AperFunction,Conductor*
%ADD25C,0.500000*%
G04 #@! TD*
G04 #@! TA.AperFunction,Conductor*
%ADD26C,0.254000*%
G04 #@! TD*
G04 APERTURE END LIST*
D10*
G04 #@! TO.P,,1*
G04 #@! TO.N,+9V*
X130810000Y-75565000D03*
G04 #@! TD*
D11*
G04 #@! TO.P,TP5,1*
G04 #@! TO.N,dist-sig-5*
X125730000Y-121285000D03*
G04 #@! TD*
G04 #@! TO.P,TP4,1*
G04 #@! TO.N,dist-sig-4*
X95250000Y-121285000D03*
G04 #@! TD*
G04 #@! TO.P,TP3,1*
G04 #@! TO.N,dist-sig-3*
X127635000Y-50800000D03*
G04 #@! TD*
G04 #@! TO.P,TP2,1*
G04 #@! TO.N,dist-sig-2*
X113665000Y-50800000D03*
G04 #@! TD*
D12*
G04 #@! TO.P,,*
G04 #@! TO.N,*
X82400000Y-122800000D03*
G04 #@! TD*
G04 #@! TO.P,,*
G04 #@! TO.N,*
X133500000Y-122800000D03*
G04 #@! TD*
G04 #@! TO.P,,*
G04 #@! TO.N,*
X133500000Y-52400000D03*
G04 #@! TD*
G04 #@! TO.P,,*
G04 #@! TO.N,*
X82400000Y-52400000D03*
G04 #@! TD*
D13*
G04 #@! TO.P,A1,1*
G04 #@! TO.N,Net-(A1-Pad1)*
X125730000Y-101600000D03*
D14*
G04 #@! TO.P,A1,17*
G04 #@! TO.N,Net-(A1-Pad17)*
X92710000Y-116840000D03*
G04 #@! TO.P,A1,2*
G04 #@! TO.N,Net-(A1-Pad2)*
X123190000Y-101600000D03*
G04 #@! TO.P,A1,18*
G04 #@! TO.N,Net-(A1-Pad18)*
X95250000Y-116840000D03*
G04 #@! TO.P,A1,3*
G04 #@! TO.N,Net-(A1-Pad3)*
X120650000Y-101600000D03*
G04 #@! TO.P,A1,19*
G04 #@! TO.N,dist-sig-1*
X97790000Y-116840000D03*
G04 #@! TO.P,A1,4*
G04 #@! TO.N,GND*
X118110000Y-101600000D03*
G04 #@! TO.P,A1,20*
G04 #@! TO.N,dist-sig-2*
X100330000Y-116840000D03*
G04 #@! TO.P,A1,5*
G04 #@! TO.N,dist-led-1*
X115570000Y-101600000D03*
G04 #@! TO.P,A1,21*
G04 #@! TO.N,dist-sig-3*
X102870000Y-116840000D03*
G04 #@! TO.P,A1,6*
G04 #@! TO.N,dist-led-2*
X113030000Y-101600000D03*
G04 #@! TO.P,A1,22*
G04 #@! TO.N,Net-(A1-Pad22)*
X105410000Y-116840000D03*
G04 #@! TO.P,A1,7*
G04 #@! TO.N,dist-led-3*
X110490000Y-101600000D03*
G04 #@! TO.P,A1,23*
G04 #@! TO.N,IMU_SDA*
X107950000Y-116840000D03*
G04 #@! TO.P,A1,8*
G04 #@! TO.N,Net-(A1-Pad8)*
X107950000Y-101600000D03*
G04 #@! TO.P,A1,24*
G04 #@! TO.N,IMU_SCL*
X110490000Y-116840000D03*
G04 #@! TO.P,A1,9*
G04 #@! TO.N,Net-(A1-Pad9)*
X105410000Y-101600000D03*
G04 #@! TO.P,A1,25*
G04 #@! TO.N,dist-sig-4*
X113030000Y-116840000D03*
G04 #@! TO.P,A1,10*
G04 #@! TO.N,Net-(A1-Pad10)*
X102870000Y-101600000D03*
G04 #@! TO.P,A1,26*
G04 #@! TO.N,dist-sig-5*
X115570000Y-116840000D03*
G04 #@! TO.P,A1,11*
G04 #@! TO.N,Net-(A1-Pad11)*
X100330000Y-101600000D03*
G04 #@! TO.P,A1,27*
G04 #@! TO.N,+5V*
X118110000Y-116840000D03*
G04 #@! TO.P,A1,12*
G04 #@! TO.N,Net-(A1-Pad12)*
X97790000Y-101600000D03*
G04 #@! TO.P,A1,28*
G04 #@! TO.N,Net-(A1-Pad28)*
X120650000Y-116840000D03*
G04 #@! TO.P,A1,13*
G04 #@! TO.N,Net-(A1-Pad13)*
X95250000Y-101600000D03*
G04 #@! TO.P,A1,29*
G04 #@! TO.N,GND*
X123190000Y-116840000D03*
G04 #@! TO.P,A1,14*
G04 #@! TO.N,Net-(A1-Pad14)*
X92710000Y-101600000D03*
G04 #@! TO.P,A1,30*
G04 #@! TO.N,V_a*
X125730000Y-116840000D03*
G04 #@! TO.P,A1,15*
G04 #@! TO.N,dist-led-4*
X90170000Y-101600000D03*
G04 #@! TO.P,A1,16*
G04 #@! TO.N,dist-led-5*
X90170000Y-116840000D03*
G04 #@! TD*
D10*
G04 #@! TO.P,BT1,1*
G04 #@! TO.N,+9V*
X130810000Y-81280000D03*
D15*
G04 #@! TO.P,BT1,2*
G04 #@! TO.N,GND*
X130810000Y-83820000D03*
G04 #@! TD*
D13*
G04 #@! TO.P,C1,1*
G04 #@! TO.N,V_a*
X120650000Y-87630000D03*
D16*
G04 #@! TO.P,C1,2*
G04 #@! TO.N,GND*
X123150000Y-87630000D03*
G04 #@! TD*
D17*
G04 #@! TO.N,GND*
G04 #@! TO.C,C2*
G36*
X123539505Y-112966204D02*
X123563773Y-112969804D01*
X123587572Y-112975765D01*
X123610671Y-112984030D01*
X123632850Y-112994520D01*
X123653893Y-113007132D01*
X123673599Y-113021747D01*
X123691777Y-113038223D01*
X123708253Y-113056401D01*
X123722868Y-113076107D01*
X123735480Y-113097150D01*
X123745970Y-113119329D01*
X123754235Y-113142428D01*
X123760196Y-113166227D01*
X123763796Y-113190495D01*
X123765000Y-113214999D01*
X123765000Y-114115001D01*
X123763796Y-114139505D01*
X123760196Y-114163773D01*
X123754235Y-114187572D01*
X123745970Y-114210671D01*
X123735480Y-114232850D01*
X123722868Y-114253893D01*
X123708253Y-114273599D01*
X123691777Y-114291777D01*
X123673599Y-114308253D01*
X123653893Y-114322868D01*
X123632850Y-114335480D01*
X123610671Y-114345970D01*
X123587572Y-114354235D01*
X123563773Y-114360196D01*
X123539505Y-114363796D01*
X123515001Y-114365000D01*
X122864999Y-114365000D01*
X122840495Y-114363796D01*
X122816227Y-114360196D01*
X122792428Y-114354235D01*
X122769329Y-114345970D01*
X122747150Y-114335480D01*
X122726107Y-114322868D01*
X122706401Y-114308253D01*
X122688223Y-114291777D01*
X122671747Y-114273599D01*
X122657132Y-114253893D01*
X122644520Y-114232850D01*
X122634030Y-114210671D01*
X122625765Y-114187572D01*
X122619804Y-114163773D01*
X122616204Y-114139505D01*
X122615000Y-114115001D01*
X122615000Y-113214999D01*
X122616204Y-113190495D01*
X122619804Y-113166227D01*
X122625765Y-113142428D01*
X122634030Y-113119329D01*
X122644520Y-113097150D01*
X122657132Y-113076107D01*
X122671747Y-113056401D01*
X122688223Y-113038223D01*
X122706401Y-113021747D01*
X122726107Y-113007132D01*
X122747150Y-112994520D01*
X122769329Y-112984030D01*
X122792428Y-112975765D01*
X122816227Y-112969804D01*
X122840495Y-112966204D01*
X122864999Y-112965000D01*
X123515001Y-112965000D01*
X123539505Y-112966204D01*
X123539505Y-112966204D01*
G37*
D18*
G04 #@! TD*
G04 #@! TO.P,C2,2*
G04 #@! TO.N,GND*
X123190000Y-113665000D03*
D17*
G04 #@! TO.N,V_a*
G04 #@! TO.C,C2*
G36*
X125589505Y-112966204D02*
X125613773Y-112969804D01*
X125637572Y-112975765D01*
X125660671Y-112984030D01*
X125682850Y-112994520D01*
X125703893Y-113007132D01*
X125723599Y-113021747D01*
X125741777Y-113038223D01*
X125758253Y-113056401D01*
X125772868Y-113076107D01*
X125785480Y-113097150D01*
X125795970Y-113119329D01*
X125804235Y-113142428D01*
X125810196Y-113166227D01*
X125813796Y-113190495D01*
X125815000Y-113214999D01*
X125815000Y-114115001D01*
X125813796Y-114139505D01*
X125810196Y-114163773D01*
X125804235Y-114187572D01*
X125795970Y-114210671D01*
X125785480Y-114232850D01*
X125772868Y-114253893D01*
X125758253Y-114273599D01*
X125741777Y-114291777D01*
X125723599Y-114308253D01*
X125703893Y-114322868D01*
X125682850Y-114335480D01*
X125660671Y-114345970D01*
X125637572Y-114354235D01*
X125613773Y-114360196D01*
X125589505Y-114363796D01*
X125565001Y-114365000D01*
X124914999Y-114365000D01*
X124890495Y-114363796D01*
X124866227Y-114360196D01*
X124842428Y-114354235D01*
X124819329Y-114345970D01*
X124797150Y-114335480D01*
X124776107Y-114322868D01*
X124756401Y-114308253D01*
X124738223Y-114291777D01*
X124721747Y-114273599D01*
X124707132Y-114253893D01*
X124694520Y-114232850D01*
X124684030Y-114210671D01*
X124675765Y-114187572D01*
X124669804Y-114163773D01*
X124666204Y-114139505D01*
X124665000Y-114115001D01*
X124665000Y-113214999D01*
X124666204Y-113190495D01*
X124669804Y-113166227D01*
X124675765Y-113142428D01*
X124684030Y-113119329D01*
X124694520Y-113097150D01*
X124707132Y-113076107D01*
X124721747Y-113056401D01*
X124738223Y-113038223D01*
X124756401Y-113021747D01*
X124776107Y-113007132D01*
X124797150Y-112994520D01*
X124819329Y-112984030D01*
X124842428Y-112975765D01*
X124866227Y-112969804D01*
X124890495Y-112966204D01*
X124914999Y-112965000D01*
X125565001Y-112965000D01*
X125589505Y-112966204D01*
X125589505Y-112966204D01*
G37*
D18*
G04 #@! TD*
G04 #@! TO.P,C2,1*
G04 #@! TO.N,V_a*
X125240000Y-113665000D03*
D17*
G04 #@! TO.N,dist-sig-1*
G04 #@! TO.C,C3*
G36*
X99534505Y-55306204D02*
X99558773Y-55309804D01*
X99582572Y-55315765D01*
X99605671Y-55324030D01*
X99627850Y-55334520D01*
X99648893Y-55347132D01*
X99668599Y-55361747D01*
X99686777Y-55378223D01*
X99703253Y-55396401D01*
X99717868Y-55416107D01*
X99730480Y-55437150D01*
X99740970Y-55459329D01*
X99749235Y-55482428D01*
X99755196Y-55506227D01*
X99758796Y-55530495D01*
X99760000Y-55554999D01*
X99760000Y-56205001D01*
X99758796Y-56229505D01*
X99755196Y-56253773D01*
X99749235Y-56277572D01*
X99740970Y-56300671D01*
X99730480Y-56322850D01*
X99717868Y-56343893D01*
X99703253Y-56363599D01*
X99686777Y-56381777D01*
X99668599Y-56398253D01*
X99648893Y-56412868D01*
X99627850Y-56425480D01*
X99605671Y-56435970D01*
X99582572Y-56444235D01*
X99558773Y-56450196D01*
X99534505Y-56453796D01*
X99510001Y-56455000D01*
X98609999Y-56455000D01*
X98585495Y-56453796D01*
X98561227Y-56450196D01*
X98537428Y-56444235D01*
X98514329Y-56435970D01*
X98492150Y-56425480D01*
X98471107Y-56412868D01*
X98451401Y-56398253D01*
X98433223Y-56381777D01*
X98416747Y-56363599D01*
X98402132Y-56343893D01*
X98389520Y-56322850D01*
X98379030Y-56300671D01*
X98370765Y-56277572D01*
X98364804Y-56253773D01*
X98361204Y-56229505D01*
X98360000Y-56205001D01*
X98360000Y-55554999D01*
X98361204Y-55530495D01*
X98364804Y-55506227D01*
X98370765Y-55482428D01*
X98379030Y-55459329D01*
X98389520Y-55437150D01*
X98402132Y-55416107D01*
X98416747Y-55396401D01*
X98433223Y-55378223D01*
X98451401Y-55361747D01*
X98471107Y-55347132D01*
X98492150Y-55334520D01*
X98514329Y-55324030D01*
X98537428Y-55315765D01*
X98561227Y-55309804D01*
X98585495Y-55306204D01*
X98609999Y-55305000D01*
X99510001Y-55305000D01*
X99534505Y-55306204D01*
X99534505Y-55306204D01*
G37*
D18*
G04 #@! TD*
G04 #@! TO.P,C3,1*
G04 #@! TO.N,dist-sig-1*
X99060000Y-55880000D03*
D17*
G04 #@! TO.N,GND*
G04 #@! TO.C,C3*
G36*
X99534505Y-57356204D02*
X99558773Y-57359804D01*
X99582572Y-57365765D01*
X99605671Y-57374030D01*
X99627850Y-57384520D01*
X99648893Y-57397132D01*
X99668599Y-57411747D01*
X99686777Y-57428223D01*
X99703253Y-57446401D01*
X99717868Y-57466107D01*
X99730480Y-57487150D01*
X99740970Y-57509329D01*
X99749235Y-57532428D01*
X99755196Y-57556227D01*
X99758796Y-57580495D01*
X99760000Y-57604999D01*
X99760000Y-58255001D01*
X99758796Y-58279505D01*
X99755196Y-58303773D01*
X99749235Y-58327572D01*
X99740970Y-58350671D01*
X99730480Y-58372850D01*
X99717868Y-58393893D01*
X99703253Y-58413599D01*
X99686777Y-58431777D01*
X99668599Y-58448253D01*
X99648893Y-58462868D01*
X99627850Y-58475480D01*
X99605671Y-58485970D01*
X99582572Y-58494235D01*
X99558773Y-58500196D01*
X99534505Y-58503796D01*
X99510001Y-58505000D01*
X98609999Y-58505000D01*
X98585495Y-58503796D01*
X98561227Y-58500196D01*
X98537428Y-58494235D01*
X98514329Y-58485970D01*
X98492150Y-58475480D01*
X98471107Y-58462868D01*
X98451401Y-58448253D01*
X98433223Y-58431777D01*
X98416747Y-58413599D01*
X98402132Y-58393893D01*
X98389520Y-58372850D01*
X98379030Y-58350671D01*
X98370765Y-58327572D01*
X98364804Y-58303773D01*
X98361204Y-58279505D01*
X98360000Y-58255001D01*
X98360000Y-57604999D01*
X98361204Y-57580495D01*
X98364804Y-57556227D01*
X98370765Y-57532428D01*
X98379030Y-57509329D01*
X98389520Y-57487150D01*
X98402132Y-57466107D01*
X98416747Y-57446401D01*
X98433223Y-57428223D01*
X98451401Y-57411747D01*
X98471107Y-57397132D01*
X98492150Y-57384520D01*
X98514329Y-57374030D01*
X98537428Y-57365765D01*
X98561227Y-57359804D01*
X98585495Y-57356204D01*
X98609999Y-57355000D01*
X99510001Y-57355000D01*
X99534505Y-57356204D01*
X99534505Y-57356204D01*
G37*
D18*
G04 #@! TD*
G04 #@! TO.P,C3,2*
G04 #@! TO.N,GND*
X99060000Y-57930000D03*
D17*
G04 #@! TO.N,dist-sig-2*
G04 #@! TO.C,C4*
G36*
X113504505Y-55306204D02*
X113528773Y-55309804D01*
X113552572Y-55315765D01*
X113575671Y-55324030D01*
X113597850Y-55334520D01*
X113618893Y-55347132D01*
X113638599Y-55361747D01*
X113656777Y-55378223D01*
X113673253Y-55396401D01*
X113687868Y-55416107D01*
X113700480Y-55437150D01*
X113710970Y-55459329D01*
X113719235Y-55482428D01*
X113725196Y-55506227D01*
X113728796Y-55530495D01*
X113730000Y-55554999D01*
X113730000Y-56205001D01*
X113728796Y-56229505D01*
X113725196Y-56253773D01*
X113719235Y-56277572D01*
X113710970Y-56300671D01*
X113700480Y-56322850D01*
X113687868Y-56343893D01*
X113673253Y-56363599D01*
X113656777Y-56381777D01*
X113638599Y-56398253D01*
X113618893Y-56412868D01*
X113597850Y-56425480D01*
X113575671Y-56435970D01*
X113552572Y-56444235D01*
X113528773Y-56450196D01*
X113504505Y-56453796D01*
X113480001Y-56455000D01*
X112579999Y-56455000D01*
X112555495Y-56453796D01*
X112531227Y-56450196D01*
X112507428Y-56444235D01*
X112484329Y-56435970D01*
X112462150Y-56425480D01*
X112441107Y-56412868D01*
X112421401Y-56398253D01*
X112403223Y-56381777D01*
X112386747Y-56363599D01*
X112372132Y-56343893D01*
X112359520Y-56322850D01*
X112349030Y-56300671D01*
X112340765Y-56277572D01*
X112334804Y-56253773D01*
X112331204Y-56229505D01*
X112330000Y-56205001D01*
X112330000Y-55554999D01*
X112331204Y-55530495D01*
X112334804Y-55506227D01*
X112340765Y-55482428D01*
X112349030Y-55459329D01*
X112359520Y-55437150D01*
X112372132Y-55416107D01*
X112386747Y-55396401D01*
X112403223Y-55378223D01*
X112421401Y-55361747D01*
X112441107Y-55347132D01*
X112462150Y-55334520D01*
X112484329Y-55324030D01*
X112507428Y-55315765D01*
X112531227Y-55309804D01*
X112555495Y-55306204D01*
X112579999Y-55305000D01*
X113480001Y-55305000D01*
X113504505Y-55306204D01*
X113504505Y-55306204D01*
G37*
D18*
G04 #@! TD*
G04 #@! TO.P,C4,1*
G04 #@! TO.N,dist-sig-2*
X113030000Y-55880000D03*
D17*
G04 #@! TO.N,GND*
G04 #@! TO.C,C4*
G36*
X113504505Y-57356204D02*
X113528773Y-57359804D01*
X113552572Y-57365765D01*
X113575671Y-57374030D01*
X113597850Y-57384520D01*
X113618893Y-57397132D01*
X113638599Y-57411747D01*
X113656777Y-57428223D01*
X113673253Y-57446401D01*
X113687868Y-57466107D01*
X113700480Y-57487150D01*
X113710970Y-57509329D01*
X113719235Y-57532428D01*
X113725196Y-57556227D01*
X113728796Y-57580495D01*
X113730000Y-57604999D01*
X113730000Y-58255001D01*
X113728796Y-58279505D01*
X113725196Y-58303773D01*
X113719235Y-58327572D01*
X113710970Y-58350671D01*
X113700480Y-58372850D01*
X113687868Y-58393893D01*
X113673253Y-58413599D01*
X113656777Y-58431777D01*
X113638599Y-58448253D01*
X113618893Y-58462868D01*
X113597850Y-58475480D01*
X113575671Y-58485970D01*
X113552572Y-58494235D01*
X113528773Y-58500196D01*
X113504505Y-58503796D01*
X113480001Y-58505000D01*
X112579999Y-58505000D01*
X112555495Y-58503796D01*
X112531227Y-58500196D01*
X112507428Y-58494235D01*
X112484329Y-58485970D01*
X112462150Y-58475480D01*
X112441107Y-58462868D01*
X112421401Y-58448253D01*
X112403223Y-58431777D01*
X112386747Y-58413599D01*
X112372132Y-58393893D01*
X112359520Y-58372850D01*
X112349030Y-58350671D01*
X112340765Y-58327572D01*
X112334804Y-58303773D01*
X112331204Y-58279505D01*
X112330000Y-58255001D01*
X112330000Y-57604999D01*
X112331204Y-57580495D01*
X112334804Y-57556227D01*
X112340765Y-57532428D01*
X112349030Y-57509329D01*
X112359520Y-57487150D01*
X112372132Y-57466107D01*
X112386747Y-57446401D01*
X112403223Y-57428223D01*
X112421401Y-57411747D01*
X112441107Y-57397132D01*
X112462150Y-57384520D01*
X112484329Y-57374030D01*
X112507428Y-57365765D01*
X112531227Y-57359804D01*
X112555495Y-57356204D01*
X112579999Y-57355000D01*
X113480001Y-57355000D01*
X113504505Y-57356204D01*
X113504505Y-57356204D01*
G37*
D18*
G04 #@! TD*
G04 #@! TO.P,C4,2*
G04 #@! TO.N,GND*
X113030000Y-57930000D03*
D17*
G04 #@! TO.N,GND*
G04 #@! TO.C,C5*
G36*
X127474505Y-57356204D02*
X127498773Y-57359804D01*
X127522572Y-57365765D01*
X127545671Y-57374030D01*
X127567850Y-57384520D01*
X127588893Y-57397132D01*
X127608599Y-57411747D01*
X127626777Y-57428223D01*
X127643253Y-57446401D01*
X127657868Y-57466107D01*
X127670480Y-57487150D01*
X127680970Y-57509329D01*
X127689235Y-57532428D01*
X127695196Y-57556227D01*
X127698796Y-57580495D01*
X127700000Y-57604999D01*
X127700000Y-58255001D01*
X127698796Y-58279505D01*
X127695196Y-58303773D01*
X127689235Y-58327572D01*
X127680970Y-58350671D01*
X127670480Y-58372850D01*
X127657868Y-58393893D01*
X127643253Y-58413599D01*
X127626777Y-58431777D01*
X127608599Y-58448253D01*
X127588893Y-58462868D01*
X127567850Y-58475480D01*
X127545671Y-58485970D01*
X127522572Y-58494235D01*
X127498773Y-58500196D01*
X127474505Y-58503796D01*
X127450001Y-58505000D01*
X126549999Y-58505000D01*
X126525495Y-58503796D01*
X126501227Y-58500196D01*
X126477428Y-58494235D01*
X126454329Y-58485970D01*
X126432150Y-58475480D01*
X126411107Y-58462868D01*
X126391401Y-58448253D01*
X126373223Y-58431777D01*
X126356747Y-58413599D01*
X126342132Y-58393893D01*
X126329520Y-58372850D01*
X126319030Y-58350671D01*
X126310765Y-58327572D01*
X126304804Y-58303773D01*
X126301204Y-58279505D01*
X126300000Y-58255001D01*
X126300000Y-57604999D01*
X126301204Y-57580495D01*
X126304804Y-57556227D01*
X126310765Y-57532428D01*
X126319030Y-57509329D01*
X126329520Y-57487150D01*
X126342132Y-57466107D01*
X126356747Y-57446401D01*
X126373223Y-57428223D01*
X126391401Y-57411747D01*
X126411107Y-57397132D01*
X126432150Y-57384520D01*
X126454329Y-57374030D01*
X126477428Y-57365765D01*
X126501227Y-57359804D01*
X126525495Y-57356204D01*
X126549999Y-57355000D01*
X127450001Y-57355000D01*
X127474505Y-57356204D01*
X127474505Y-57356204D01*
G37*
D18*
G04 #@! TD*
G04 #@! TO.P,C5,2*
G04 #@! TO.N,GND*
X127000000Y-57930000D03*
D17*
G04 #@! TO.N,dist-sig-3*
G04 #@! TO.C,C5*
G36*
X127474505Y-55306204D02*
X127498773Y-55309804D01*
X127522572Y-55315765D01*
X127545671Y-55324030D01*
X127567850Y-55334520D01*
X127588893Y-55347132D01*
X127608599Y-55361747D01*
X127626777Y-55378223D01*
X127643253Y-55396401D01*
X127657868Y-55416107D01*
X127670480Y-55437150D01*
X127680970Y-55459329D01*
X127689235Y-55482428D01*
X127695196Y-55506227D01*
X127698796Y-55530495D01*
X127700000Y-55554999D01*
X127700000Y-56205001D01*
X127698796Y-56229505D01*
X127695196Y-56253773D01*
X127689235Y-56277572D01*
X127680970Y-56300671D01*
X127670480Y-56322850D01*
X127657868Y-56343893D01*
X127643253Y-56363599D01*
X127626777Y-56381777D01*
X127608599Y-56398253D01*
X127588893Y-56412868D01*
X127567850Y-56425480D01*
X127545671Y-56435970D01*
X127522572Y-56444235D01*
X127498773Y-56450196D01*
X127474505Y-56453796D01*
X127450001Y-56455000D01*
X126549999Y-56455000D01*
X126525495Y-56453796D01*
X126501227Y-56450196D01*
X126477428Y-56444235D01*
X126454329Y-56435970D01*
X126432150Y-56425480D01*
X126411107Y-56412868D01*
X126391401Y-56398253D01*
X126373223Y-56381777D01*
X126356747Y-56363599D01*
X126342132Y-56343893D01*
X126329520Y-56322850D01*
X126319030Y-56300671D01*
X126310765Y-56277572D01*
X126304804Y-56253773D01*
X126301204Y-56229505D01*
X126300000Y-56205001D01*
X126300000Y-55554999D01*
X126301204Y-55530495D01*
X126304804Y-55506227D01*
X126310765Y-55482428D01*
X126319030Y-55459329D01*
X126329520Y-55437150D01*
X126342132Y-55416107D01*
X126356747Y-55396401D01*
X126373223Y-55378223D01*
X126391401Y-55361747D01*
X126411107Y-55347132D01*
X126432150Y-55334520D01*
X126454329Y-55324030D01*
X126477428Y-55315765D01*
X126501227Y-55309804D01*
X126525495Y-55306204D01*
X126549999Y-55305000D01*
X127450001Y-55305000D01*
X127474505Y-55306204D01*
X127474505Y-55306204D01*
G37*
D18*
G04 #@! TD*
G04 #@! TO.P,C5,1*
G04 #@! TO.N,dist-sig-3*
X127000000Y-55880000D03*
D17*
G04 #@! TO.N,dist-sig-4*
G04 #@! TO.C,C6*
G36*
X113504505Y-113481204D02*
X113528773Y-113484804D01*
X113552572Y-113490765D01*
X113575671Y-113499030D01*
X113597850Y-113509520D01*
X113618893Y-113522132D01*
X113638599Y-113536747D01*
X113656777Y-113553223D01*
X113673253Y-113571401D01*
X113687868Y-113591107D01*
X113700480Y-113612150D01*
X113710970Y-113634329D01*
X113719235Y-113657428D01*
X113725196Y-113681227D01*
X113728796Y-113705495D01*
X113730000Y-113729999D01*
X113730000Y-114380001D01*
X113728796Y-114404505D01*
X113725196Y-114428773D01*
X113719235Y-114452572D01*
X113710970Y-114475671D01*
X113700480Y-114497850D01*
X113687868Y-114518893D01*
X113673253Y-114538599D01*
X113656777Y-114556777D01*
X113638599Y-114573253D01*
X113618893Y-114587868D01*
X113597850Y-114600480D01*
X113575671Y-114610970D01*
X113552572Y-114619235D01*
X113528773Y-114625196D01*
X113504505Y-114628796D01*
X113480001Y-114630000D01*
X112579999Y-114630000D01*
X112555495Y-114628796D01*
X112531227Y-114625196D01*
X112507428Y-114619235D01*
X112484329Y-114610970D01*
X112462150Y-114600480D01*
X112441107Y-114587868D01*
X112421401Y-114573253D01*
X112403223Y-114556777D01*
X112386747Y-114538599D01*
X112372132Y-114518893D01*
X112359520Y-114497850D01*
X112349030Y-114475671D01*
X112340765Y-114452572D01*
X112334804Y-114428773D01*
X112331204Y-114404505D01*
X112330000Y-114380001D01*
X112330000Y-113729999D01*
X112331204Y-113705495D01*
X112334804Y-113681227D01*
X112340765Y-113657428D01*
X112349030Y-113634329D01*
X112359520Y-113612150D01*
X112372132Y-113591107D01*
X112386747Y-113571401D01*
X112403223Y-113553223D01*
X112421401Y-113536747D01*
X112441107Y-113522132D01*
X112462150Y-113509520D01*
X112484329Y-113499030D01*
X112507428Y-113490765D01*
X112531227Y-113484804D01*
X112555495Y-113481204D01*
X112579999Y-113480000D01*
X113480001Y-113480000D01*
X113504505Y-113481204D01*
X113504505Y-113481204D01*
G37*
D18*
G04 #@! TD*
G04 #@! TO.P,C6,1*
G04 #@! TO.N,dist-sig-4*
X113030000Y-114055000D03*
D17*
G04 #@! TO.N,GND*
G04 #@! TO.C,C6*
G36*
X113504505Y-111431204D02*
X113528773Y-111434804D01*
X113552572Y-111440765D01*
X113575671Y-111449030D01*
X113597850Y-111459520D01*
X113618893Y-111472132D01*
X113638599Y-111486747D01*
X113656777Y-111503223D01*
X113673253Y-111521401D01*
X113687868Y-111541107D01*
X113700480Y-111562150D01*
X113710970Y-111584329D01*
X113719235Y-111607428D01*
X113725196Y-111631227D01*
X113728796Y-111655495D01*
X113730000Y-111679999D01*
X113730000Y-112330001D01*
X113728796Y-112354505D01*
X113725196Y-112378773D01*
X113719235Y-112402572D01*
X113710970Y-112425671D01*
X113700480Y-112447850D01*
X113687868Y-112468893D01*
X113673253Y-112488599D01*
X113656777Y-112506777D01*
X113638599Y-112523253D01*
X113618893Y-112537868D01*
X113597850Y-112550480D01*
X113575671Y-112560970D01*
X113552572Y-112569235D01*
X113528773Y-112575196D01*
X113504505Y-112578796D01*
X113480001Y-112580000D01*
X112579999Y-112580000D01*
X112555495Y-112578796D01*
X112531227Y-112575196D01*
X112507428Y-112569235D01*
X112484329Y-112560970D01*
X112462150Y-112550480D01*
X112441107Y-112537868D01*
X112421401Y-112523253D01*
X112403223Y-112506777D01*
X112386747Y-112488599D01*
X112372132Y-112468893D01*
X112359520Y-112447850D01*
X112349030Y-112425671D01*
X112340765Y-112402572D01*
X112334804Y-112378773D01*
X112331204Y-112354505D01*
X112330000Y-112330001D01*
X112330000Y-111679999D01*
X112331204Y-111655495D01*
X112334804Y-111631227D01*
X112340765Y-111607428D01*
X112349030Y-111584329D01*
X112359520Y-111562150D01*
X112372132Y-111541107D01*
X112386747Y-111521401D01*
X112403223Y-111503223D01*
X112421401Y-111486747D01*
X112441107Y-111472132D01*
X112462150Y-111459520D01*
X112484329Y-111449030D01*
X112507428Y-111440765D01*
X112531227Y-111434804D01*
X112555495Y-111431204D01*
X112579999Y-111430000D01*
X113480001Y-111430000D01*
X113504505Y-111431204D01*
X113504505Y-111431204D01*
G37*
D18*
G04 #@! TD*
G04 #@! TO.P,C6,2*
G04 #@! TO.N,GND*
X113030000Y-112005000D03*
D17*
G04 #@! TO.N,GND*
G04 #@! TO.C,C7*
G36*
X116044505Y-111431204D02*
X116068773Y-111434804D01*
X116092572Y-111440765D01*
X116115671Y-111449030D01*
X116137850Y-111459520D01*
X116158893Y-111472132D01*
X116178599Y-111486747D01*
X116196777Y-111503223D01*
X116213253Y-111521401D01*
X116227868Y-111541107D01*
X116240480Y-111562150D01*
X116250970Y-111584329D01*
X116259235Y-111607428D01*
X116265196Y-111631227D01*
X116268796Y-111655495D01*
X116270000Y-111679999D01*
X116270000Y-112330001D01*
X116268796Y-112354505D01*
X116265196Y-112378773D01*
X116259235Y-112402572D01*
X116250970Y-112425671D01*
X116240480Y-112447850D01*
X116227868Y-112468893D01*
X116213253Y-112488599D01*
X116196777Y-112506777D01*
X116178599Y-112523253D01*
X116158893Y-112537868D01*
X116137850Y-112550480D01*
X116115671Y-112560970D01*
X116092572Y-112569235D01*
X116068773Y-112575196D01*
X116044505Y-112578796D01*
X116020001Y-112580000D01*
X115119999Y-112580000D01*
X115095495Y-112578796D01*
X115071227Y-112575196D01*
X115047428Y-112569235D01*
X115024329Y-112560970D01*
X115002150Y-112550480D01*
X114981107Y-112537868D01*
X114961401Y-112523253D01*
X114943223Y-112506777D01*
X114926747Y-112488599D01*
X114912132Y-112468893D01*
X114899520Y-112447850D01*
X114889030Y-112425671D01*
X114880765Y-112402572D01*
X114874804Y-112378773D01*
X114871204Y-112354505D01*
X114870000Y-112330001D01*
X114870000Y-111679999D01*
X114871204Y-111655495D01*
X114874804Y-111631227D01*
X114880765Y-111607428D01*
X114889030Y-111584329D01*
X114899520Y-111562150D01*
X114912132Y-111541107D01*
X114926747Y-111521401D01*
X114943223Y-111503223D01*
X114961401Y-111486747D01*
X114981107Y-111472132D01*
X115002150Y-111459520D01*
X115024329Y-111449030D01*
X115047428Y-111440765D01*
X115071227Y-111434804D01*
X115095495Y-111431204D01*
X115119999Y-111430000D01*
X116020001Y-111430000D01*
X116044505Y-111431204D01*
X116044505Y-111431204D01*
G37*
D18*
G04 #@! TD*
G04 #@! TO.P,C7,2*
G04 #@! TO.N,GND*
X115570000Y-112005000D03*
D17*
G04 #@! TO.N,dist-sig-5*
G04 #@! TO.C,C7*
G36*
X116044505Y-113481204D02*
X116068773Y-113484804D01*
X116092572Y-113490765D01*
X116115671Y-113499030D01*
X116137850Y-113509520D01*
X116158893Y-113522132D01*
X116178599Y-113536747D01*
X116196777Y-113553223D01*
X116213253Y-113571401D01*
X116227868Y-113591107D01*
X116240480Y-113612150D01*
X116250970Y-113634329D01*
X116259235Y-113657428D01*
X116265196Y-113681227D01*
X116268796Y-113705495D01*
X116270000Y-113729999D01*
X116270000Y-114380001D01*
X116268796Y-114404505D01*
X116265196Y-114428773D01*
X116259235Y-114452572D01*
X116250970Y-114475671D01*
X116240480Y-114497850D01*
X116227868Y-114518893D01*
X116213253Y-114538599D01*
X116196777Y-114556777D01*
X116178599Y-114573253D01*
X116158893Y-114587868D01*
X116137850Y-114600480D01*
X116115671Y-114610970D01*
X116092572Y-114619235D01*
X116068773Y-114625196D01*
X116044505Y-114628796D01*
X116020001Y-114630000D01*
X115119999Y-114630000D01*
X115095495Y-114628796D01*
X115071227Y-114625196D01*
X115047428Y-114619235D01*
X115024329Y-114610970D01*
X115002150Y-114600480D01*
X114981107Y-114587868D01*
X114961401Y-114573253D01*
X114943223Y-114556777D01*
X114926747Y-114538599D01*
X114912132Y-114518893D01*
X114899520Y-114497850D01*
X114889030Y-114475671D01*
X114880765Y-114452572D01*
X114874804Y-114428773D01*
X114871204Y-114404505D01*
X114870000Y-114380001D01*
X114870000Y-113729999D01*
X114871204Y-113705495D01*
X114874804Y-113681227D01*
X114880765Y-113657428D01*
X114889030Y-113634329D01*
X114899520Y-113612150D01*
X114912132Y-113591107D01*
X114926747Y-113571401D01*
X114943223Y-113553223D01*
X114961401Y-113536747D01*
X114981107Y-113522132D01*
X115002150Y-113509520D01*
X115024329Y-113499030D01*
X115047428Y-113490765D01*
X115071227Y-113484804D01*
X115095495Y-113481204D01*
X115119999Y-113480000D01*
X116020001Y-113480000D01*
X116044505Y-113481204D01*
X116044505Y-113481204D01*
G37*
D18*
G04 #@! TD*
G04 #@! TO.P,C7,1*
G04 #@! TO.N,dist-sig-5*
X115570000Y-114055000D03*
D19*
G04 #@! TO.P,D1,1*
G04 #@! TO.N,V_a*
X120650000Y-81280000D03*
D20*
G04 #@! TO.P,D1,2*
G04 #@! TO.N,+9V*
X128270000Y-81280000D03*
G04 #@! TD*
D10*
G04 #@! TO.P,J1,1*
G04 #@! TO.N,Net-(J1-Pad1)*
X100330000Y-78740000D03*
D15*
G04 #@! TO.P,J1,2*
G04 #@! TO.N,Net-(J1-Pad2)*
X97790000Y-78740000D03*
G04 #@! TD*
G04 #@! TO.P,J2,2*
G04 #@! TO.N,Net-(J2-Pad2)*
X92710000Y-78740000D03*
D10*
G04 #@! TO.P,J2,1*
G04 #@! TO.N,Net-(J2-Pad1)*
X95250000Y-78740000D03*
G04 #@! TD*
G04 #@! TO.P,J3,1*
G04 #@! TO.N,Net-(J3-Pad1)*
X105410000Y-50800000D03*
D15*
G04 #@! TO.P,J3,2*
G04 #@! TO.N,dist-led-2*
X107950000Y-50800000D03*
G04 #@! TO.P,J3,3*
G04 #@! TO.N,dist-sig-2*
X110490000Y-50800000D03*
G04 #@! TD*
D10*
G04 #@! TO.P,J4,1*
G04 #@! TO.N,Net-(J4-Pad1)*
X91440000Y-50800000D03*
D15*
G04 #@! TO.P,J4,2*
G04 #@! TO.N,dist-led-1*
X93980000Y-50800000D03*
G04 #@! TO.P,J4,3*
G04 #@! TO.N,dist-sig-1*
X96520000Y-50800000D03*
G04 #@! TD*
G04 #@! TO.P,J5,3*
G04 #@! TO.N,dist-sig-3*
X124460000Y-50800000D03*
G04 #@! TO.P,J5,2*
G04 #@! TO.N,dist-led-3*
X121920000Y-50800000D03*
D10*
G04 #@! TO.P,J5,1*
G04 #@! TO.N,Net-(J5-Pad1)*
X119380000Y-50800000D03*
G04 #@! TD*
G04 #@! TO.P,J6,1*
G04 #@! TO.N,Net-(A1-Pad2)*
X123190000Y-97790000D03*
D15*
G04 #@! TO.P,J6,2*
G04 #@! TO.N,Net-(A1-Pad1)*
X125730000Y-97790000D03*
G04 #@! TD*
G04 #@! TO.P,J7,3*
G04 #@! TO.N,dist-sig-4*
X95250000Y-124460000D03*
G04 #@! TO.P,J7,2*
G04 #@! TO.N,dist-led-4*
X92710000Y-124460000D03*
D10*
G04 #@! TO.P,J7,1*
G04 #@! TO.N,Net-(J7-Pad1)*
X90170000Y-124460000D03*
G04 #@! TD*
G04 #@! TO.P,J8,1*
G04 #@! TO.N,Net-(J8-Pad1)*
X120650000Y-124460000D03*
D15*
G04 #@! TO.P,J8,2*
G04 #@! TO.N,dist-led-5*
X123190000Y-124460000D03*
G04 #@! TO.P,J8,3*
G04 #@! TO.N,dist-sig-5*
X125730000Y-124460000D03*
G04 #@! TD*
D17*
G04 #@! TO.N,GND*
G04 #@! TO.C,R1*
G36*
X110964505Y-57356204D02*
X110988773Y-57359804D01*
X111012572Y-57365765D01*
X111035671Y-57374030D01*
X111057850Y-57384520D01*
X111078893Y-57397132D01*
X111098599Y-57411747D01*
X111116777Y-57428223D01*
X111133253Y-57446401D01*
X111147868Y-57466107D01*
X111160480Y-57487150D01*
X111170970Y-57509329D01*
X111179235Y-57532428D01*
X111185196Y-57556227D01*
X111188796Y-57580495D01*
X111190000Y-57604999D01*
X111190000Y-58255001D01*
X111188796Y-58279505D01*
X111185196Y-58303773D01*
X111179235Y-58327572D01*
X111170970Y-58350671D01*
X111160480Y-58372850D01*
X111147868Y-58393893D01*
X111133253Y-58413599D01*
X111116777Y-58431777D01*
X111098599Y-58448253D01*
X111078893Y-58462868D01*
X111057850Y-58475480D01*
X111035671Y-58485970D01*
X111012572Y-58494235D01*
X110988773Y-58500196D01*
X110964505Y-58503796D01*
X110940001Y-58505000D01*
X110039999Y-58505000D01*
X110015495Y-58503796D01*
X109991227Y-58500196D01*
X109967428Y-58494235D01*
X109944329Y-58485970D01*
X109922150Y-58475480D01*
X109901107Y-58462868D01*
X109881401Y-58448253D01*
X109863223Y-58431777D01*
X109846747Y-58413599D01*
X109832132Y-58393893D01*
X109819520Y-58372850D01*
X109809030Y-58350671D01*
X109800765Y-58327572D01*
X109794804Y-58303773D01*
X109791204Y-58279505D01*
X109790000Y-58255001D01*
X109790000Y-57604999D01*
X109791204Y-57580495D01*
X109794804Y-57556227D01*
X109800765Y-57532428D01*
X109809030Y-57509329D01*
X109819520Y-57487150D01*
X109832132Y-57466107D01*
X109846747Y-57446401D01*
X109863223Y-57428223D01*
X109881401Y-57411747D01*
X109901107Y-57397132D01*
X109922150Y-57384520D01*
X109944329Y-57374030D01*
X109967428Y-57365765D01*
X109991227Y-57359804D01*
X110015495Y-57356204D01*
X110039999Y-57355000D01*
X110940001Y-57355000D01*
X110964505Y-57356204D01*
X110964505Y-57356204D01*
G37*
D18*
G04 #@! TD*
G04 #@! TO.P,R1,1*
G04 #@! TO.N,GND*
X110490000Y-57930000D03*
D17*
G04 #@! TO.N,dist-sig-2*
G04 #@! TO.C,R1*
G36*
X110964505Y-55306204D02*
X110988773Y-55309804D01*
X111012572Y-55315765D01*
X111035671Y-55324030D01*
X111057850Y-55334520D01*
X111078893Y-55347132D01*
X111098599Y-55361747D01*
X111116777Y-55378223D01*
X111133253Y-55396401D01*
X111147868Y-55416107D01*
X111160480Y-55437150D01*
X111170970Y-55459329D01*
X111179235Y-55482428D01*
X111185196Y-55506227D01*
X111188796Y-55530495D01*
X111190000Y-55554999D01*
X111190000Y-56205001D01*
X111188796Y-56229505D01*
X111185196Y-56253773D01*
X111179235Y-56277572D01*
X111170970Y-56300671D01*
X111160480Y-56322850D01*
X111147868Y-56343893D01*
X111133253Y-56363599D01*
X111116777Y-56381777D01*
X111098599Y-56398253D01*
X111078893Y-56412868D01*
X111057850Y-56425480D01*
X111035671Y-56435970D01*
X111012572Y-56444235D01*
X110988773Y-56450196D01*
X110964505Y-56453796D01*
X110940001Y-56455000D01*
X110039999Y-56455000D01*
X110015495Y-56453796D01*
X109991227Y-56450196D01*
X109967428Y-56444235D01*
X109944329Y-56435970D01*
X109922150Y-56425480D01*
X109901107Y-56412868D01*
X109881401Y-56398253D01*
X109863223Y-56381777D01*
X109846747Y-56363599D01*
X109832132Y-56343893D01*
X109819520Y-56322850D01*
X109809030Y-56300671D01*
X109800765Y-56277572D01*
X109794804Y-56253773D01*
X109791204Y-56229505D01*
X109790000Y-56205001D01*
X109790000Y-55554999D01*
X109791204Y-55530495D01*
X109794804Y-55506227D01*
X109800765Y-55482428D01*
X109809030Y-55459329D01*
X109819520Y-55437150D01*
X109832132Y-55416107D01*
X109846747Y-55396401D01*
X109863223Y-55378223D01*
X109881401Y-55361747D01*
X109901107Y-55347132D01*
X109922150Y-55334520D01*
X109944329Y-55324030D01*
X109967428Y-55315765D01*
X109991227Y-55309804D01*
X110015495Y-55306204D01*
X110039999Y-55305000D01*
X110940001Y-55305000D01*
X110964505Y-55306204D01*
X110964505Y-55306204D01*
G37*
D18*
G04 #@! TD*
G04 #@! TO.P,R1,2*
G04 #@! TO.N,dist-sig-2*
X110490000Y-55880000D03*
D17*
G04 #@! TO.N,dist-sig-1*
G04 #@! TO.C,R2*
G36*
X96994505Y-55306204D02*
X97018773Y-55309804D01*
X97042572Y-55315765D01*
X97065671Y-55324030D01*
X97087850Y-55334520D01*
X97108893Y-55347132D01*
X97128599Y-55361747D01*
X97146777Y-55378223D01*
X97163253Y-55396401D01*
X97177868Y-55416107D01*
X97190480Y-55437150D01*
X97200970Y-55459329D01*
X97209235Y-55482428D01*
X97215196Y-55506227D01*
X97218796Y-55530495D01*
X97220000Y-55554999D01*
X97220000Y-56205001D01*
X97218796Y-56229505D01*
X97215196Y-56253773D01*
X97209235Y-56277572D01*
X97200970Y-56300671D01*
X97190480Y-56322850D01*
X97177868Y-56343893D01*
X97163253Y-56363599D01*
X97146777Y-56381777D01*
X97128599Y-56398253D01*
X97108893Y-56412868D01*
X97087850Y-56425480D01*
X97065671Y-56435970D01*
X97042572Y-56444235D01*
X97018773Y-56450196D01*
X96994505Y-56453796D01*
X96970001Y-56455000D01*
X96069999Y-56455000D01*
X96045495Y-56453796D01*
X96021227Y-56450196D01*
X95997428Y-56444235D01*
X95974329Y-56435970D01*
X95952150Y-56425480D01*
X95931107Y-56412868D01*
X95911401Y-56398253D01*
X95893223Y-56381777D01*
X95876747Y-56363599D01*
X95862132Y-56343893D01*
X95849520Y-56322850D01*
X95839030Y-56300671D01*
X95830765Y-56277572D01*
X95824804Y-56253773D01*
X95821204Y-56229505D01*
X95820000Y-56205001D01*
X95820000Y-55554999D01*
X95821204Y-55530495D01*
X95824804Y-55506227D01*
X95830765Y-55482428D01*
X95839030Y-55459329D01*
X95849520Y-55437150D01*
X95862132Y-55416107D01*
X95876747Y-55396401D01*
X95893223Y-55378223D01*
X95911401Y-55361747D01*
X95931107Y-55347132D01*
X95952150Y-55334520D01*
X95974329Y-55324030D01*
X95997428Y-55315765D01*
X96021227Y-55309804D01*
X96045495Y-55306204D01*
X96069999Y-55305000D01*
X96970001Y-55305000D01*
X96994505Y-55306204D01*
X96994505Y-55306204D01*
G37*
D18*
G04 #@! TD*
G04 #@! TO.P,R2,2*
G04 #@! TO.N,dist-sig-1*
X96520000Y-55880000D03*
D17*
G04 #@! TO.N,GND*
G04 #@! TO.C,R2*
G36*
X96994505Y-57356204D02*
X97018773Y-57359804D01*
X97042572Y-57365765D01*
X97065671Y-57374030D01*
X97087850Y-57384520D01*
X97108893Y-57397132D01*
X97128599Y-57411747D01*
X97146777Y-57428223D01*
X97163253Y-57446401D01*
X97177868Y-57466107D01*
X97190480Y-57487150D01*
X97200970Y-57509329D01*
X97209235Y-57532428D01*
X97215196Y-57556227D01*
X97218796Y-57580495D01*
X97220000Y-57604999D01*
X97220000Y-58255001D01*
X97218796Y-58279505D01*
X97215196Y-58303773D01*
X97209235Y-58327572D01*
X97200970Y-58350671D01*
X97190480Y-58372850D01*
X97177868Y-58393893D01*
X97163253Y-58413599D01*
X97146777Y-58431777D01*
X97128599Y-58448253D01*
X97108893Y-58462868D01*
X97087850Y-58475480D01*
X97065671Y-58485970D01*
X97042572Y-58494235D01*
X97018773Y-58500196D01*
X96994505Y-58503796D01*
X96970001Y-58505000D01*
X96069999Y-58505000D01*
X96045495Y-58503796D01*
X96021227Y-58500196D01*
X95997428Y-58494235D01*
X95974329Y-58485970D01*
X95952150Y-58475480D01*
X95931107Y-58462868D01*
X95911401Y-58448253D01*
X95893223Y-58431777D01*
X95876747Y-58413599D01*
X95862132Y-58393893D01*
X95849520Y-58372850D01*
X95839030Y-58350671D01*
X95830765Y-58327572D01*
X95824804Y-58303773D01*
X95821204Y-58279505D01*
X95820000Y-58255001D01*
X95820000Y-57604999D01*
X95821204Y-57580495D01*
X95824804Y-57556227D01*
X95830765Y-57532428D01*
X95839030Y-57509329D01*
X95849520Y-57487150D01*
X95862132Y-57466107D01*
X95876747Y-57446401D01*
X95893223Y-57428223D01*
X95911401Y-57411747D01*
X95931107Y-57397132D01*
X95952150Y-57384520D01*
X95974329Y-57374030D01*
X95997428Y-57365765D01*
X96021227Y-57359804D01*
X96045495Y-57356204D01*
X96069999Y-57355000D01*
X96970001Y-57355000D01*
X96994505Y-57356204D01*
X96994505Y-57356204D01*
G37*
D18*
G04 #@! TD*
G04 #@! TO.P,R2,1*
G04 #@! TO.N,GND*
X96520000Y-57930000D03*
D17*
G04 #@! TO.N,dist-sig-3*
G04 #@! TO.C,R3*
G36*
X124934505Y-55306204D02*
X124958773Y-55309804D01*
X124982572Y-55315765D01*
X125005671Y-55324030D01*
X125027850Y-55334520D01*
X125048893Y-55347132D01*
X125068599Y-55361747D01*
X125086777Y-55378223D01*
X125103253Y-55396401D01*
X125117868Y-55416107D01*
X125130480Y-55437150D01*
X125140970Y-55459329D01*
X125149235Y-55482428D01*
X125155196Y-55506227D01*
X125158796Y-55530495D01*
X125160000Y-55554999D01*
X125160000Y-56205001D01*
X125158796Y-56229505D01*
X125155196Y-56253773D01*
X125149235Y-56277572D01*
X125140970Y-56300671D01*
X125130480Y-56322850D01*
X125117868Y-56343893D01*
X125103253Y-56363599D01*
X125086777Y-56381777D01*
X125068599Y-56398253D01*
X125048893Y-56412868D01*
X125027850Y-56425480D01*
X125005671Y-56435970D01*
X124982572Y-56444235D01*
X124958773Y-56450196D01*
X124934505Y-56453796D01*
X124910001Y-56455000D01*
X124009999Y-56455000D01*
X123985495Y-56453796D01*
X123961227Y-56450196D01*
X123937428Y-56444235D01*
X123914329Y-56435970D01*
X123892150Y-56425480D01*
X123871107Y-56412868D01*
X123851401Y-56398253D01*
X123833223Y-56381777D01*
X123816747Y-56363599D01*
X123802132Y-56343893D01*
X123789520Y-56322850D01*
X123779030Y-56300671D01*
X123770765Y-56277572D01*
X123764804Y-56253773D01*
X123761204Y-56229505D01*
X123760000Y-56205001D01*
X123760000Y-55554999D01*
X123761204Y-55530495D01*
X123764804Y-55506227D01*
X123770765Y-55482428D01*
X123779030Y-55459329D01*
X123789520Y-55437150D01*
X123802132Y-55416107D01*
X123816747Y-55396401D01*
X123833223Y-55378223D01*
X123851401Y-55361747D01*
X123871107Y-55347132D01*
X123892150Y-55334520D01*
X123914329Y-55324030D01*
X123937428Y-55315765D01*
X123961227Y-55309804D01*
X123985495Y-55306204D01*
X124009999Y-55305000D01*
X124910001Y-55305000D01*
X124934505Y-55306204D01*
X124934505Y-55306204D01*
G37*
D18*
G04 #@! TD*
G04 #@! TO.P,R3,2*
G04 #@! TO.N,dist-sig-3*
X124460000Y-55880000D03*
D17*
G04 #@! TO.N,GND*
G04 #@! TO.C,R3*
G36*
X124934505Y-57356204D02*
X124958773Y-57359804D01*
X124982572Y-57365765D01*
X125005671Y-57374030D01*
X125027850Y-57384520D01*
X125048893Y-57397132D01*
X125068599Y-57411747D01*
X125086777Y-57428223D01*
X125103253Y-57446401D01*
X125117868Y-57466107D01*
X125130480Y-57487150D01*
X125140970Y-57509329D01*
X125149235Y-57532428D01*
X125155196Y-57556227D01*
X125158796Y-57580495D01*
X125160000Y-57604999D01*
X125160000Y-58255001D01*
X125158796Y-58279505D01*
X125155196Y-58303773D01*
X125149235Y-58327572D01*
X125140970Y-58350671D01*
X125130480Y-58372850D01*
X125117868Y-58393893D01*
X125103253Y-58413599D01*
X125086777Y-58431777D01*
X125068599Y-58448253D01*
X125048893Y-58462868D01*
X125027850Y-58475480D01*
X125005671Y-58485970D01*
X124982572Y-58494235D01*
X124958773Y-58500196D01*
X124934505Y-58503796D01*
X124910001Y-58505000D01*
X124009999Y-58505000D01*
X123985495Y-58503796D01*
X123961227Y-58500196D01*
X123937428Y-58494235D01*
X123914329Y-58485970D01*
X123892150Y-58475480D01*
X123871107Y-58462868D01*
X123851401Y-58448253D01*
X123833223Y-58431777D01*
X123816747Y-58413599D01*
X123802132Y-58393893D01*
X123789520Y-58372850D01*
X123779030Y-58350671D01*
X123770765Y-58327572D01*
X123764804Y-58303773D01*
X123761204Y-58279505D01*
X123760000Y-58255001D01*
X123760000Y-57604999D01*
X123761204Y-57580495D01*
X123764804Y-57556227D01*
X123770765Y-57532428D01*
X123779030Y-57509329D01*
X123789520Y-57487150D01*
X123802132Y-57466107D01*
X123816747Y-57446401D01*
X123833223Y-57428223D01*
X123851401Y-57411747D01*
X123871107Y-57397132D01*
X123892150Y-57384520D01*
X123914329Y-57374030D01*
X123937428Y-57365765D01*
X123961227Y-57359804D01*
X123985495Y-57356204D01*
X124009999Y-57355000D01*
X124910001Y-57355000D01*
X124934505Y-57356204D01*
X124934505Y-57356204D01*
G37*
D18*
G04 #@! TD*
G04 #@! TO.P,R3,1*
G04 #@! TO.N,GND*
X124460000Y-57930000D03*
D17*
G04 #@! TO.N,GND*
G04 #@! TO.C,R4*
G36*
X105884505Y-57356204D02*
X105908773Y-57359804D01*
X105932572Y-57365765D01*
X105955671Y-57374030D01*
X105977850Y-57384520D01*
X105998893Y-57397132D01*
X106018599Y-57411747D01*
X106036777Y-57428223D01*
X106053253Y-57446401D01*
X106067868Y-57466107D01*
X106080480Y-57487150D01*
X106090970Y-57509329D01*
X106099235Y-57532428D01*
X106105196Y-57556227D01*
X106108796Y-57580495D01*
X106110000Y-57604999D01*
X106110000Y-58255001D01*
X106108796Y-58279505D01*
X106105196Y-58303773D01*
X106099235Y-58327572D01*
X106090970Y-58350671D01*
X106080480Y-58372850D01*
X106067868Y-58393893D01*
X106053253Y-58413599D01*
X106036777Y-58431777D01*
X106018599Y-58448253D01*
X105998893Y-58462868D01*
X105977850Y-58475480D01*
X105955671Y-58485970D01*
X105932572Y-58494235D01*
X105908773Y-58500196D01*
X105884505Y-58503796D01*
X105860001Y-58505000D01*
X104959999Y-58505000D01*
X104935495Y-58503796D01*
X104911227Y-58500196D01*
X104887428Y-58494235D01*
X104864329Y-58485970D01*
X104842150Y-58475480D01*
X104821107Y-58462868D01*
X104801401Y-58448253D01*
X104783223Y-58431777D01*
X104766747Y-58413599D01*
X104752132Y-58393893D01*
X104739520Y-58372850D01*
X104729030Y-58350671D01*
X104720765Y-58327572D01*
X104714804Y-58303773D01*
X104711204Y-58279505D01*
X104710000Y-58255001D01*
X104710000Y-57604999D01*
X104711204Y-57580495D01*
X104714804Y-57556227D01*
X104720765Y-57532428D01*
X104729030Y-57509329D01*
X104739520Y-57487150D01*
X104752132Y-57466107D01*
X104766747Y-57446401D01*
X104783223Y-57428223D01*
X104801401Y-57411747D01*
X104821107Y-57397132D01*
X104842150Y-57384520D01*
X104864329Y-57374030D01*
X104887428Y-57365765D01*
X104911227Y-57359804D01*
X104935495Y-57356204D01*
X104959999Y-57355000D01*
X105860001Y-57355000D01*
X105884505Y-57356204D01*
X105884505Y-57356204D01*
G37*
D18*
G04 #@! TD*
G04 #@! TO.P,R4,2*
G04 #@! TO.N,GND*
X105410000Y-57930000D03*
D17*
G04 #@! TO.N,Net-(J3-Pad1)*
G04 #@! TO.C,R4*
G36*
X105884505Y-55306204D02*
X105908773Y-55309804D01*
X105932572Y-55315765D01*
X105955671Y-55324030D01*
X105977850Y-55334520D01*
X105998893Y-55347132D01*
X106018599Y-55361747D01*
X106036777Y-55378223D01*
X106053253Y-55396401D01*
X106067868Y-55416107D01*
X106080480Y-55437150D01*
X106090970Y-55459329D01*
X106099235Y-55482428D01*
X106105196Y-55506227D01*
X106108796Y-55530495D01*
X106110000Y-55554999D01*
X106110000Y-56205001D01*
X106108796Y-56229505D01*
X106105196Y-56253773D01*
X106099235Y-56277572D01*
X106090970Y-56300671D01*
X106080480Y-56322850D01*
X106067868Y-56343893D01*
X106053253Y-56363599D01*
X106036777Y-56381777D01*
X106018599Y-56398253D01*
X105998893Y-56412868D01*
X105977850Y-56425480D01*
X105955671Y-56435970D01*
X105932572Y-56444235D01*
X105908773Y-56450196D01*
X105884505Y-56453796D01*
X105860001Y-56455000D01*
X104959999Y-56455000D01*
X104935495Y-56453796D01*
X104911227Y-56450196D01*
X104887428Y-56444235D01*
X104864329Y-56435970D01*
X104842150Y-56425480D01*
X104821107Y-56412868D01*
X104801401Y-56398253D01*
X104783223Y-56381777D01*
X104766747Y-56363599D01*
X104752132Y-56343893D01*
X104739520Y-56322850D01*
X104729030Y-56300671D01*
X104720765Y-56277572D01*
X104714804Y-56253773D01*
X104711204Y-56229505D01*
X104710000Y-56205001D01*
X104710000Y-55554999D01*
X104711204Y-55530495D01*
X104714804Y-55506227D01*
X104720765Y-55482428D01*
X104729030Y-55459329D01*
X104739520Y-55437150D01*
X104752132Y-55416107D01*
X104766747Y-55396401D01*
X104783223Y-55378223D01*
X104801401Y-55361747D01*
X104821107Y-55347132D01*
X104842150Y-55334520D01*
X104864329Y-55324030D01*
X104887428Y-55315765D01*
X104911227Y-55309804D01*
X104935495Y-55306204D01*
X104959999Y-55305000D01*
X105860001Y-55305000D01*
X105884505Y-55306204D01*
X105884505Y-55306204D01*
G37*
D18*
G04 #@! TD*
G04 #@! TO.P,R4,1*
G04 #@! TO.N,Net-(J3-Pad1)*
X105410000Y-55880000D03*
D17*
G04 #@! TO.N,Net-(J4-Pad1)*
G04 #@! TO.C,R5*
G36*
X91914505Y-55306204D02*
X91938773Y-55309804D01*
X91962572Y-55315765D01*
X91985671Y-55324030D01*
X92007850Y-55334520D01*
X92028893Y-55347132D01*
X92048599Y-55361747D01*
X92066777Y-55378223D01*
X92083253Y-55396401D01*
X92097868Y-55416107D01*
X92110480Y-55437150D01*
X92120970Y-55459329D01*
X92129235Y-55482428D01*
X92135196Y-55506227D01*
X92138796Y-55530495D01*
X92140000Y-55554999D01*
X92140000Y-56205001D01*
X92138796Y-56229505D01*
X92135196Y-56253773D01*
X92129235Y-56277572D01*
X92120970Y-56300671D01*
X92110480Y-56322850D01*
X92097868Y-56343893D01*
X92083253Y-56363599D01*
X92066777Y-56381777D01*
X92048599Y-56398253D01*
X92028893Y-56412868D01*
X92007850Y-56425480D01*
X91985671Y-56435970D01*
X91962572Y-56444235D01*
X91938773Y-56450196D01*
X91914505Y-56453796D01*
X91890001Y-56455000D01*
X90989999Y-56455000D01*
X90965495Y-56453796D01*
X90941227Y-56450196D01*
X90917428Y-56444235D01*
X90894329Y-56435970D01*
X90872150Y-56425480D01*
X90851107Y-56412868D01*
X90831401Y-56398253D01*
X90813223Y-56381777D01*
X90796747Y-56363599D01*
X90782132Y-56343893D01*
X90769520Y-56322850D01*
X90759030Y-56300671D01*
X90750765Y-56277572D01*
X90744804Y-56253773D01*
X90741204Y-56229505D01*
X90740000Y-56205001D01*
X90740000Y-55554999D01*
X90741204Y-55530495D01*
X90744804Y-55506227D01*
X90750765Y-55482428D01*
X90759030Y-55459329D01*
X90769520Y-55437150D01*
X90782132Y-55416107D01*
X90796747Y-55396401D01*
X90813223Y-55378223D01*
X90831401Y-55361747D01*
X90851107Y-55347132D01*
X90872150Y-55334520D01*
X90894329Y-55324030D01*
X90917428Y-55315765D01*
X90941227Y-55309804D01*
X90965495Y-55306204D01*
X90989999Y-55305000D01*
X91890001Y-55305000D01*
X91914505Y-55306204D01*
X91914505Y-55306204D01*
G37*
D18*
G04 #@! TD*
G04 #@! TO.P,R5,1*
G04 #@! TO.N,Net-(J4-Pad1)*
X91440000Y-55880000D03*
D17*
G04 #@! TO.N,GND*
G04 #@! TO.C,R5*
G36*
X91914505Y-57356204D02*
X91938773Y-57359804D01*
X91962572Y-57365765D01*
X91985671Y-57374030D01*
X92007850Y-57384520D01*
X92028893Y-57397132D01*
X92048599Y-57411747D01*
X92066777Y-57428223D01*
X92083253Y-57446401D01*
X92097868Y-57466107D01*
X92110480Y-57487150D01*
X92120970Y-57509329D01*
X92129235Y-57532428D01*
X92135196Y-57556227D01*
X92138796Y-57580495D01*
X92140000Y-57604999D01*
X92140000Y-58255001D01*
X92138796Y-58279505D01*
X92135196Y-58303773D01*
X92129235Y-58327572D01*
X92120970Y-58350671D01*
X92110480Y-58372850D01*
X92097868Y-58393893D01*
X92083253Y-58413599D01*
X92066777Y-58431777D01*
X92048599Y-58448253D01*
X92028893Y-58462868D01*
X92007850Y-58475480D01*
X91985671Y-58485970D01*
X91962572Y-58494235D01*
X91938773Y-58500196D01*
X91914505Y-58503796D01*
X91890001Y-58505000D01*
X90989999Y-58505000D01*
X90965495Y-58503796D01*
X90941227Y-58500196D01*
X90917428Y-58494235D01*
X90894329Y-58485970D01*
X90872150Y-58475480D01*
X90851107Y-58462868D01*
X90831401Y-58448253D01*
X90813223Y-58431777D01*
X90796747Y-58413599D01*
X90782132Y-58393893D01*
X90769520Y-58372850D01*
X90759030Y-58350671D01*
X90750765Y-58327572D01*
X90744804Y-58303773D01*
X90741204Y-58279505D01*
X90740000Y-58255001D01*
X90740000Y-57604999D01*
X90741204Y-57580495D01*
X90744804Y-57556227D01*
X90750765Y-57532428D01*
X90759030Y-57509329D01*
X90769520Y-57487150D01*
X90782132Y-57466107D01*
X90796747Y-57446401D01*
X90813223Y-57428223D01*
X90831401Y-57411747D01*
X90851107Y-57397132D01*
X90872150Y-57384520D01*
X90894329Y-57374030D01*
X90917428Y-57365765D01*
X90941227Y-57359804D01*
X90965495Y-57356204D01*
X90989999Y-57355000D01*
X91890001Y-57355000D01*
X91914505Y-57356204D01*
X91914505Y-57356204D01*
G37*
D18*
G04 #@! TD*
G04 #@! TO.P,R5,2*
G04 #@! TO.N,GND*
X91440000Y-57930000D03*
D17*
G04 #@! TO.N,Net-(J5-Pad1)*
G04 #@! TO.C,R6*
G36*
X119854505Y-55306204D02*
X119878773Y-55309804D01*
X119902572Y-55315765D01*
X119925671Y-55324030D01*
X119947850Y-55334520D01*
X119968893Y-55347132D01*
X119988599Y-55361747D01*
X120006777Y-55378223D01*
X120023253Y-55396401D01*
X120037868Y-55416107D01*
X120050480Y-55437150D01*
X120060970Y-55459329D01*
X120069235Y-55482428D01*
X120075196Y-55506227D01*
X120078796Y-55530495D01*
X120080000Y-55554999D01*
X120080000Y-56205001D01*
X120078796Y-56229505D01*
X120075196Y-56253773D01*
X120069235Y-56277572D01*
X120060970Y-56300671D01*
X120050480Y-56322850D01*
X120037868Y-56343893D01*
X120023253Y-56363599D01*
X120006777Y-56381777D01*
X119988599Y-56398253D01*
X119968893Y-56412868D01*
X119947850Y-56425480D01*
X119925671Y-56435970D01*
X119902572Y-56444235D01*
X119878773Y-56450196D01*
X119854505Y-56453796D01*
X119830001Y-56455000D01*
X118929999Y-56455000D01*
X118905495Y-56453796D01*
X118881227Y-56450196D01*
X118857428Y-56444235D01*
X118834329Y-56435970D01*
X118812150Y-56425480D01*
X118791107Y-56412868D01*
X118771401Y-56398253D01*
X118753223Y-56381777D01*
X118736747Y-56363599D01*
X118722132Y-56343893D01*
X118709520Y-56322850D01*
X118699030Y-56300671D01*
X118690765Y-56277572D01*
X118684804Y-56253773D01*
X118681204Y-56229505D01*
X118680000Y-56205001D01*
X118680000Y-55554999D01*
X118681204Y-55530495D01*
X118684804Y-55506227D01*
X118690765Y-55482428D01*
X118699030Y-55459329D01*
X118709520Y-55437150D01*
X118722132Y-55416107D01*
X118736747Y-55396401D01*
X118753223Y-55378223D01*
X118771401Y-55361747D01*
X118791107Y-55347132D01*
X118812150Y-55334520D01*
X118834329Y-55324030D01*
X118857428Y-55315765D01*
X118881227Y-55309804D01*
X118905495Y-55306204D01*
X118929999Y-55305000D01*
X119830001Y-55305000D01*
X119854505Y-55306204D01*
X119854505Y-55306204D01*
G37*
D18*
G04 #@! TD*
G04 #@! TO.P,R6,1*
G04 #@! TO.N,Net-(J5-Pad1)*
X119380000Y-55880000D03*
D17*
G04 #@! TO.N,GND*
G04 #@! TO.C,R6*
G36*
X119854505Y-57356204D02*
X119878773Y-57359804D01*
X119902572Y-57365765D01*
X119925671Y-57374030D01*
X119947850Y-57384520D01*
X119968893Y-57397132D01*
X119988599Y-57411747D01*
X120006777Y-57428223D01*
X120023253Y-57446401D01*
X120037868Y-57466107D01*
X120050480Y-57487150D01*
X120060970Y-57509329D01*
X120069235Y-57532428D01*
X120075196Y-57556227D01*
X120078796Y-57580495D01*
X120080000Y-57604999D01*
X120080000Y-58255001D01*
X120078796Y-58279505D01*
X120075196Y-58303773D01*
X120069235Y-58327572D01*
X120060970Y-58350671D01*
X120050480Y-58372850D01*
X120037868Y-58393893D01*
X120023253Y-58413599D01*
X120006777Y-58431777D01*
X119988599Y-58448253D01*
X119968893Y-58462868D01*
X119947850Y-58475480D01*
X119925671Y-58485970D01*
X119902572Y-58494235D01*
X119878773Y-58500196D01*
X119854505Y-58503796D01*
X119830001Y-58505000D01*
X118929999Y-58505000D01*
X118905495Y-58503796D01*
X118881227Y-58500196D01*
X118857428Y-58494235D01*
X118834329Y-58485970D01*
X118812150Y-58475480D01*
X118791107Y-58462868D01*
X118771401Y-58448253D01*
X118753223Y-58431777D01*
X118736747Y-58413599D01*
X118722132Y-58393893D01*
X118709520Y-58372850D01*
X118699030Y-58350671D01*
X118690765Y-58327572D01*
X118684804Y-58303773D01*
X118681204Y-58279505D01*
X118680000Y-58255001D01*
X118680000Y-57604999D01*
X118681204Y-57580495D01*
X118684804Y-57556227D01*
X118690765Y-57532428D01*
X118699030Y-57509329D01*
X118709520Y-57487150D01*
X118722132Y-57466107D01*
X118736747Y-57446401D01*
X118753223Y-57428223D01*
X118771401Y-57411747D01*
X118791107Y-57397132D01*
X118812150Y-57384520D01*
X118834329Y-57374030D01*
X118857428Y-57365765D01*
X118881227Y-57359804D01*
X118905495Y-57356204D01*
X118929999Y-57355000D01*
X119830001Y-57355000D01*
X119854505Y-57356204D01*
X119854505Y-57356204D01*
G37*
D18*
G04 #@! TD*
G04 #@! TO.P,R6,2*
G04 #@! TO.N,GND*
X119380000Y-57930000D03*
D17*
G04 #@! TO.N,dist-sig-4*
G04 #@! TO.C,R7*
G36*
X110964505Y-113481204D02*
X110988773Y-113484804D01*
X111012572Y-113490765D01*
X111035671Y-113499030D01*
X111057850Y-113509520D01*
X111078893Y-113522132D01*
X111098599Y-113536747D01*
X111116777Y-113553223D01*
X111133253Y-113571401D01*
X111147868Y-113591107D01*
X111160480Y-113612150D01*
X111170970Y-113634329D01*
X111179235Y-113657428D01*
X111185196Y-113681227D01*
X111188796Y-113705495D01*
X111190000Y-113729999D01*
X111190000Y-114380001D01*
X111188796Y-114404505D01*
X111185196Y-114428773D01*
X111179235Y-114452572D01*
X111170970Y-114475671D01*
X111160480Y-114497850D01*
X111147868Y-114518893D01*
X111133253Y-114538599D01*
X111116777Y-114556777D01*
X111098599Y-114573253D01*
X111078893Y-114587868D01*
X111057850Y-114600480D01*
X111035671Y-114610970D01*
X111012572Y-114619235D01*
X110988773Y-114625196D01*
X110964505Y-114628796D01*
X110940001Y-114630000D01*
X110039999Y-114630000D01*
X110015495Y-114628796D01*
X109991227Y-114625196D01*
X109967428Y-114619235D01*
X109944329Y-114610970D01*
X109922150Y-114600480D01*
X109901107Y-114587868D01*
X109881401Y-114573253D01*
X109863223Y-114556777D01*
X109846747Y-114538599D01*
X109832132Y-114518893D01*
X109819520Y-114497850D01*
X109809030Y-114475671D01*
X109800765Y-114452572D01*
X109794804Y-114428773D01*
X109791204Y-114404505D01*
X109790000Y-114380001D01*
X109790000Y-113729999D01*
X109791204Y-113705495D01*
X109794804Y-113681227D01*
X109800765Y-113657428D01*
X109809030Y-113634329D01*
X109819520Y-113612150D01*
X109832132Y-113591107D01*
X109846747Y-113571401D01*
X109863223Y-113553223D01*
X109881401Y-113536747D01*
X109901107Y-113522132D01*
X109922150Y-113509520D01*
X109944329Y-113499030D01*
X109967428Y-113490765D01*
X109991227Y-113484804D01*
X110015495Y-113481204D01*
X110039999Y-113480000D01*
X110940001Y-113480000D01*
X110964505Y-113481204D01*
X110964505Y-113481204D01*
G37*
D18*
G04 #@! TD*
G04 #@! TO.P,R7,2*
G04 #@! TO.N,dist-sig-4*
X110490000Y-114055000D03*
D17*
G04 #@! TO.N,GND*
G04 #@! TO.C,R7*
G36*
X110964505Y-111431204D02*
X110988773Y-111434804D01*
X111012572Y-111440765D01*
X111035671Y-111449030D01*
X111057850Y-111459520D01*
X111078893Y-111472132D01*
X111098599Y-111486747D01*
X111116777Y-111503223D01*
X111133253Y-111521401D01*
X111147868Y-111541107D01*
X111160480Y-111562150D01*
X111170970Y-111584329D01*
X111179235Y-111607428D01*
X111185196Y-111631227D01*
X111188796Y-111655495D01*
X111190000Y-111679999D01*
X111190000Y-112330001D01*
X111188796Y-112354505D01*
X111185196Y-112378773D01*
X111179235Y-112402572D01*
X111170970Y-112425671D01*
X111160480Y-112447850D01*
X111147868Y-112468893D01*
X111133253Y-112488599D01*
X111116777Y-112506777D01*
X111098599Y-112523253D01*
X111078893Y-112537868D01*
X111057850Y-112550480D01*
X111035671Y-112560970D01*
X111012572Y-112569235D01*
X110988773Y-112575196D01*
X110964505Y-112578796D01*
X110940001Y-112580000D01*
X110039999Y-112580000D01*
X110015495Y-112578796D01*
X109991227Y-112575196D01*
X109967428Y-112569235D01*
X109944329Y-112560970D01*
X109922150Y-112550480D01*
X109901107Y-112537868D01*
X109881401Y-112523253D01*
X109863223Y-112506777D01*
X109846747Y-112488599D01*
X109832132Y-112468893D01*
X109819520Y-112447850D01*
X109809030Y-112425671D01*
X109800765Y-112402572D01*
X109794804Y-112378773D01*
X109791204Y-112354505D01*
X109790000Y-112330001D01*
X109790000Y-111679999D01*
X109791204Y-111655495D01*
X109794804Y-111631227D01*
X109800765Y-111607428D01*
X109809030Y-111584329D01*
X109819520Y-111562150D01*
X109832132Y-111541107D01*
X109846747Y-111521401D01*
X109863223Y-111503223D01*
X109881401Y-111486747D01*
X109901107Y-111472132D01*
X109922150Y-111459520D01*
X109944329Y-111449030D01*
X109967428Y-111440765D01*
X109991227Y-111434804D01*
X110015495Y-111431204D01*
X110039999Y-111430000D01*
X110940001Y-111430000D01*
X110964505Y-111431204D01*
X110964505Y-111431204D01*
G37*
D18*
G04 #@! TD*
G04 #@! TO.P,R7,1*
G04 #@! TO.N,GND*
X110490000Y-112005000D03*
D17*
G04 #@! TO.N,Net-(J7-Pad1)*
G04 #@! TO.C,R8*
G36*
X90644505Y-120856204D02*
X90668773Y-120859804D01*
X90692572Y-120865765D01*
X90715671Y-120874030D01*
X90737850Y-120884520D01*
X90758893Y-120897132D01*
X90778599Y-120911747D01*
X90796777Y-120928223D01*
X90813253Y-120946401D01*
X90827868Y-120966107D01*
X90840480Y-120987150D01*
X90850970Y-121009329D01*
X90859235Y-121032428D01*
X90865196Y-121056227D01*
X90868796Y-121080495D01*
X90870000Y-121104999D01*
X90870000Y-121755001D01*
X90868796Y-121779505D01*
X90865196Y-121803773D01*
X90859235Y-121827572D01*
X90850970Y-121850671D01*
X90840480Y-121872850D01*
X90827868Y-121893893D01*
X90813253Y-121913599D01*
X90796777Y-121931777D01*
X90778599Y-121948253D01*
X90758893Y-121962868D01*
X90737850Y-121975480D01*
X90715671Y-121985970D01*
X90692572Y-121994235D01*
X90668773Y-122000196D01*
X90644505Y-122003796D01*
X90620001Y-122005000D01*
X89719999Y-122005000D01*
X89695495Y-122003796D01*
X89671227Y-122000196D01*
X89647428Y-121994235D01*
X89624329Y-121985970D01*
X89602150Y-121975480D01*
X89581107Y-121962868D01*
X89561401Y-121948253D01*
X89543223Y-121931777D01*
X89526747Y-121913599D01*
X89512132Y-121893893D01*
X89499520Y-121872850D01*
X89489030Y-121850671D01*
X89480765Y-121827572D01*
X89474804Y-121803773D01*
X89471204Y-121779505D01*
X89470000Y-121755001D01*
X89470000Y-121104999D01*
X89471204Y-121080495D01*
X89474804Y-121056227D01*
X89480765Y-121032428D01*
X89489030Y-121009329D01*
X89499520Y-120987150D01*
X89512132Y-120966107D01*
X89526747Y-120946401D01*
X89543223Y-120928223D01*
X89561401Y-120911747D01*
X89581107Y-120897132D01*
X89602150Y-120884520D01*
X89624329Y-120874030D01*
X89647428Y-120865765D01*
X89671227Y-120859804D01*
X89695495Y-120856204D01*
X89719999Y-120855000D01*
X90620001Y-120855000D01*
X90644505Y-120856204D01*
X90644505Y-120856204D01*
G37*
D18*
G04 #@! TD*
G04 #@! TO.P,R8,1*
G04 #@! TO.N,Net-(J7-Pad1)*
X90170000Y-121430000D03*
D17*
G04 #@! TO.N,GND*
G04 #@! TO.C,R8*
G36*
X90644505Y-118806204D02*
X90668773Y-118809804D01*
X90692572Y-118815765D01*
X90715671Y-118824030D01*
X90737850Y-118834520D01*
X90758893Y-118847132D01*
X90778599Y-118861747D01*
X90796777Y-118878223D01*
X90813253Y-118896401D01*
X90827868Y-118916107D01*
X90840480Y-118937150D01*
X90850970Y-118959329D01*
X90859235Y-118982428D01*
X90865196Y-119006227D01*
X90868796Y-119030495D01*
X90870000Y-119054999D01*
X90870000Y-119705001D01*
X90868796Y-119729505D01*
X90865196Y-119753773D01*
X90859235Y-119777572D01*
X90850970Y-119800671D01*
X90840480Y-119822850D01*
X90827868Y-119843893D01*
X90813253Y-119863599D01*
X90796777Y-119881777D01*
X90778599Y-119898253D01*
X90758893Y-119912868D01*
X90737850Y-119925480D01*
X90715671Y-119935970D01*
X90692572Y-119944235D01*
X90668773Y-119950196D01*
X90644505Y-119953796D01*
X90620001Y-119955000D01*
X89719999Y-119955000D01*
X89695495Y-119953796D01*
X89671227Y-119950196D01*
X89647428Y-119944235D01*
X89624329Y-119935970D01*
X89602150Y-119925480D01*
X89581107Y-119912868D01*
X89561401Y-119898253D01*
X89543223Y-119881777D01*
X89526747Y-119863599D01*
X89512132Y-119843893D01*
X89499520Y-119822850D01*
X89489030Y-119800671D01*
X89480765Y-119777572D01*
X89474804Y-119753773D01*
X89471204Y-119729505D01*
X89470000Y-119705001D01*
X89470000Y-119054999D01*
X89471204Y-119030495D01*
X89474804Y-119006227D01*
X89480765Y-118982428D01*
X89489030Y-118959329D01*
X89499520Y-118937150D01*
X89512132Y-118916107D01*
X89526747Y-118896401D01*
X89543223Y-118878223D01*
X89561401Y-118861747D01*
X89581107Y-118847132D01*
X89602150Y-118834520D01*
X89624329Y-118824030D01*
X89647428Y-118815765D01*
X89671227Y-118809804D01*
X89695495Y-118806204D01*
X89719999Y-118805000D01*
X90620001Y-118805000D01*
X90644505Y-118806204D01*
X90644505Y-118806204D01*
G37*
D18*
G04 #@! TD*
G04 #@! TO.P,R8,2*
G04 #@! TO.N,GND*
X90170000Y-119380000D03*
D17*
G04 #@! TO.N,GND*
G04 #@! TO.C,R9*
G36*
X118584505Y-111431204D02*
X118608773Y-111434804D01*
X118632572Y-111440765D01*
X118655671Y-111449030D01*
X118677850Y-111459520D01*
X118698893Y-111472132D01*
X118718599Y-111486747D01*
X118736777Y-111503223D01*
X118753253Y-111521401D01*
X118767868Y-111541107D01*
X118780480Y-111562150D01*
X118790970Y-111584329D01*
X118799235Y-111607428D01*
X118805196Y-111631227D01*
X118808796Y-111655495D01*
X118810000Y-111679999D01*
X118810000Y-112330001D01*
X118808796Y-112354505D01*
X118805196Y-112378773D01*
X118799235Y-112402572D01*
X118790970Y-112425671D01*
X118780480Y-112447850D01*
X118767868Y-112468893D01*
X118753253Y-112488599D01*
X118736777Y-112506777D01*
X118718599Y-112523253D01*
X118698893Y-112537868D01*
X118677850Y-112550480D01*
X118655671Y-112560970D01*
X118632572Y-112569235D01*
X118608773Y-112575196D01*
X118584505Y-112578796D01*
X118560001Y-112580000D01*
X117659999Y-112580000D01*
X117635495Y-112578796D01*
X117611227Y-112575196D01*
X117587428Y-112569235D01*
X117564329Y-112560970D01*
X117542150Y-112550480D01*
X117521107Y-112537868D01*
X117501401Y-112523253D01*
X117483223Y-112506777D01*
X117466747Y-112488599D01*
X117452132Y-112468893D01*
X117439520Y-112447850D01*
X117429030Y-112425671D01*
X117420765Y-112402572D01*
X117414804Y-112378773D01*
X117411204Y-112354505D01*
X117410000Y-112330001D01*
X117410000Y-111679999D01*
X117411204Y-111655495D01*
X117414804Y-111631227D01*
X117420765Y-111607428D01*
X117429030Y-111584329D01*
X117439520Y-111562150D01*
X117452132Y-111541107D01*
X117466747Y-111521401D01*
X117483223Y-111503223D01*
X117501401Y-111486747D01*
X117521107Y-111472132D01*
X117542150Y-111459520D01*
X117564329Y-111449030D01*
X117587428Y-111440765D01*
X117611227Y-111434804D01*
X117635495Y-111431204D01*
X117659999Y-111430000D01*
X118560001Y-111430000D01*
X118584505Y-111431204D01*
X118584505Y-111431204D01*
G37*
D18*
G04 #@! TD*
G04 #@! TO.P,R9,1*
G04 #@! TO.N,GND*
X118110000Y-112005000D03*
D17*
G04 #@! TO.N,dist-sig-5*
G04 #@! TO.C,R9*
G36*
X118584505Y-113481204D02*
X118608773Y-113484804D01*
X118632572Y-113490765D01*
X118655671Y-113499030D01*
X118677850Y-113509520D01*
X118698893Y-113522132D01*
X118718599Y-113536747D01*
X118736777Y-113553223D01*
X118753253Y-113571401D01*
X118767868Y-113591107D01*
X118780480Y-113612150D01*
X118790970Y-113634329D01*
X118799235Y-113657428D01*
X118805196Y-113681227D01*
X118808796Y-113705495D01*
X118810000Y-113729999D01*
X118810000Y-114380001D01*
X118808796Y-114404505D01*
X118805196Y-114428773D01*
X118799235Y-114452572D01*
X118790970Y-114475671D01*
X118780480Y-114497850D01*
X118767868Y-114518893D01*
X118753253Y-114538599D01*
X118736777Y-114556777D01*
X118718599Y-114573253D01*
X118698893Y-114587868D01*
X118677850Y-114600480D01*
X118655671Y-114610970D01*
X118632572Y-114619235D01*
X118608773Y-114625196D01*
X118584505Y-114628796D01*
X118560001Y-114630000D01*
X117659999Y-114630000D01*
X117635495Y-114628796D01*
X117611227Y-114625196D01*
X117587428Y-114619235D01*
X117564329Y-114610970D01*
X117542150Y-114600480D01*
X117521107Y-114587868D01*
X117501401Y-114573253D01*
X117483223Y-114556777D01*
X117466747Y-114538599D01*
X117452132Y-114518893D01*
X117439520Y-114497850D01*
X117429030Y-114475671D01*
X117420765Y-114452572D01*
X117414804Y-114428773D01*
X117411204Y-114404505D01*
X117410000Y-114380001D01*
X117410000Y-113729999D01*
X117411204Y-113705495D01*
X117414804Y-113681227D01*
X117420765Y-113657428D01*
X117429030Y-113634329D01*
X117439520Y-113612150D01*
X117452132Y-113591107D01*
X117466747Y-113571401D01*
X117483223Y-113553223D01*
X117501401Y-113536747D01*
X117521107Y-113522132D01*
X117542150Y-113509520D01*
X117564329Y-113499030D01*
X117587428Y-113490765D01*
X117611227Y-113484804D01*
X117635495Y-113481204D01*
X117659999Y-113480000D01*
X118560001Y-113480000D01*
X118584505Y-113481204D01*
X118584505Y-113481204D01*
G37*
D18*
G04 #@! TD*
G04 #@! TO.P,R9,2*
G04 #@! TO.N,dist-sig-5*
X118110000Y-114055000D03*
D17*
G04 #@! TO.N,GND*
G04 #@! TO.C,R10*
G36*
X121124505Y-118806204D02*
X121148773Y-118809804D01*
X121172572Y-118815765D01*
X121195671Y-118824030D01*
X121217850Y-118834520D01*
X121238893Y-118847132D01*
X121258599Y-118861747D01*
X121276777Y-118878223D01*
X121293253Y-118896401D01*
X121307868Y-118916107D01*
X121320480Y-118937150D01*
X121330970Y-118959329D01*
X121339235Y-118982428D01*
X121345196Y-119006227D01*
X121348796Y-119030495D01*
X121350000Y-119054999D01*
X121350000Y-119705001D01*
X121348796Y-119729505D01*
X121345196Y-119753773D01*
X121339235Y-119777572D01*
X121330970Y-119800671D01*
X121320480Y-119822850D01*
X121307868Y-119843893D01*
X121293253Y-119863599D01*
X121276777Y-119881777D01*
X121258599Y-119898253D01*
X121238893Y-119912868D01*
X121217850Y-119925480D01*
X121195671Y-119935970D01*
X121172572Y-119944235D01*
X121148773Y-119950196D01*
X121124505Y-119953796D01*
X121100001Y-119955000D01*
X120199999Y-119955000D01*
X120175495Y-119953796D01*
X120151227Y-119950196D01*
X120127428Y-119944235D01*
X120104329Y-119935970D01*
X120082150Y-119925480D01*
X120061107Y-119912868D01*
X120041401Y-119898253D01*
X120023223Y-119881777D01*
X120006747Y-119863599D01*
X119992132Y-119843893D01*
X119979520Y-119822850D01*
X119969030Y-119800671D01*
X119960765Y-119777572D01*
X119954804Y-119753773D01*
X119951204Y-119729505D01*
X119950000Y-119705001D01*
X119950000Y-119054999D01*
X119951204Y-119030495D01*
X119954804Y-119006227D01*
X119960765Y-118982428D01*
X119969030Y-118959329D01*
X119979520Y-118937150D01*
X119992132Y-118916107D01*
X120006747Y-118896401D01*
X120023223Y-118878223D01*
X120041401Y-118861747D01*
X120061107Y-118847132D01*
X120082150Y-118834520D01*
X120104329Y-118824030D01*
X120127428Y-118815765D01*
X120151227Y-118809804D01*
X120175495Y-118806204D01*
X120199999Y-118805000D01*
X121100001Y-118805000D01*
X121124505Y-118806204D01*
X121124505Y-118806204D01*
G37*
D18*
G04 #@! TD*
G04 #@! TO.P,R10,2*
G04 #@! TO.N,GND*
X120650000Y-119380000D03*
D17*
G04 #@! TO.N,Net-(J8-Pad1)*
G04 #@! TO.C,R10*
G36*
X121124505Y-120856204D02*
X121148773Y-120859804D01*
X121172572Y-120865765D01*
X121195671Y-120874030D01*
X121217850Y-120884520D01*
X121238893Y-120897132D01*
X121258599Y-120911747D01*
X121276777Y-120928223D01*
X121293253Y-120946401D01*
X121307868Y-120966107D01*
X121320480Y-120987150D01*
X121330970Y-121009329D01*
X121339235Y-121032428D01*
X121345196Y-121056227D01*
X121348796Y-121080495D01*
X121350000Y-121104999D01*
X121350000Y-121755001D01*
X121348796Y-121779505D01*
X121345196Y-121803773D01*
X121339235Y-121827572D01*
X121330970Y-121850671D01*
X121320480Y-121872850D01*
X121307868Y-121893893D01*
X121293253Y-121913599D01*
X121276777Y-121931777D01*
X121258599Y-121948253D01*
X121238893Y-121962868D01*
X121217850Y-121975480D01*
X121195671Y-121985970D01*
X121172572Y-121994235D01*
X121148773Y-122000196D01*
X121124505Y-122003796D01*
X121100001Y-122005000D01*
X120199999Y-122005000D01*
X120175495Y-122003796D01*
X120151227Y-122000196D01*
X120127428Y-121994235D01*
X120104329Y-121985970D01*
X120082150Y-121975480D01*
X120061107Y-121962868D01*
X120041401Y-121948253D01*
X120023223Y-121931777D01*
X120006747Y-121913599D01*
X119992132Y-121893893D01*
X119979520Y-121872850D01*
X119969030Y-121850671D01*
X119960765Y-121827572D01*
X119954804Y-121803773D01*
X119951204Y-121779505D01*
X119950000Y-121755001D01*
X119950000Y-121104999D01*
X119951204Y-121080495D01*
X119954804Y-121056227D01*
X119960765Y-121032428D01*
X119969030Y-121009329D01*
X119979520Y-120987150D01*
X119992132Y-120966107D01*
X120006747Y-120946401D01*
X120023223Y-120928223D01*
X120041401Y-120911747D01*
X120061107Y-120897132D01*
X120082150Y-120884520D01*
X120104329Y-120874030D01*
X120127428Y-120865765D01*
X120151227Y-120859804D01*
X120175495Y-120856204D01*
X120199999Y-120855000D01*
X121100001Y-120855000D01*
X121124505Y-120856204D01*
X121124505Y-120856204D01*
G37*
D18*
G04 #@! TD*
G04 #@! TO.P,R10,1*
G04 #@! TO.N,Net-(J8-Pad1)*
X120650000Y-121430000D03*
D21*
G04 #@! TO.P,U1,1*
G04 #@! TO.N,+9V*
X107950000Y-82550000D03*
G04 #@! TO.P,U1,2*
G04 #@! TO.N,+5V*
X105410000Y-82550000D03*
G04 #@! TO.P,U1,3*
G04 #@! TO.N,GND*
X102870000Y-82550000D03*
G04 #@! TO.P,U1,4*
G04 #@! TO.N,Net-(J1-Pad1)*
X100330000Y-82550000D03*
G04 #@! TO.P,U1,5*
G04 #@! TO.N,Net-(J1-Pad2)*
X97790000Y-82550000D03*
G04 #@! TO.P,U1,6*
G04 #@! TO.N,Net-(J2-Pad1)*
X95250000Y-82550000D03*
G04 #@! TO.P,U1,7*
G04 #@! TO.N,Net-(J2-Pad2)*
X92710000Y-82550000D03*
G04 #@! TO.P,U1,8*
G04 #@! TO.N,GND*
X90170000Y-82550000D03*
G04 #@! TO.P,U1,9*
X90170000Y-97790000D03*
G04 #@! TO.P,U1,10*
G04 #@! TO.N,Net-(A1-Pad14)*
X92710000Y-97790000D03*
G04 #@! TO.P,U1,11*
G04 #@! TO.N,Net-(A1-Pad13)*
X95250000Y-97790000D03*
G04 #@! TO.P,U1,12*
G04 #@! TO.N,Net-(A1-Pad12)*
X97790000Y-97790000D03*
G04 #@! TO.P,U1,13*
G04 #@! TO.N,Net-(A1-Pad11)*
X100330000Y-97790000D03*
G04 #@! TO.P,U1,14*
G04 #@! TO.N,Net-(A1-Pad10)*
X102870000Y-97790000D03*
G04 #@! TO.P,U1,15*
G04 #@! TO.N,Net-(A1-Pad9)*
X105410000Y-97790000D03*
G04 #@! TO.P,U1,16*
G04 #@! TO.N,Net-(A1-Pad8)*
X107950000Y-97790000D03*
G04 #@! TD*
G04 #@! TO.P,U2,1*
G04 #@! TO.N,+5V*
X96520000Y-73660000D03*
G04 #@! TO.P,U2,2*
G04 #@! TO.N,Net-(U2-Pad2)*
X99060000Y-73660000D03*
G04 #@! TO.P,U2,3*
G04 #@! TO.N,GND*
X101600000Y-73660000D03*
G04 #@! TO.P,U2,4*
G04 #@! TO.N,IMU_SCL*
X104140000Y-73660000D03*
G04 #@! TO.P,U2,5*
G04 #@! TO.N,IMU_SDA*
X106680000Y-73660000D03*
G04 #@! TO.P,U2,6*
G04 #@! TO.N,Net-(U2-Pad6)*
X109220000Y-73660000D03*
G04 #@! TO.P,U2,7*
G04 #@! TO.N,Net-(U2-Pad7)*
X111760000Y-73660000D03*
G04 #@! TO.P,U2,8*
G04 #@! TO.N,Net-(U2-Pad8)*
X114300000Y-73660000D03*
G04 #@! TO.P,U2,9*
G04 #@! TO.N,Net-(U2-Pad9)*
X116840000Y-73660000D03*
G04 #@! TO.P,U2,10*
G04 #@! TO.N,Net-(U2-Pad10)*
X119380000Y-73660000D03*
G04 #@! TD*
D15*
G04 #@! TO.P,,10*
G04 #@! TO.N,Net-(U2-Pad10)*
X119380000Y-71120000D03*
G04 #@! TO.P,,9*
G04 #@! TO.N,Net-(U2-Pad9)*
X116840000Y-71120000D03*
G04 #@! TO.P,,8*
G04 #@! TO.N,Net-(U2-Pad8)*
X114300000Y-71120000D03*
G04 #@! TO.P,,7*
G04 #@! TO.N,Net-(U2-Pad7)*
X111760000Y-71120000D03*
G04 #@! TO.P,,6*
G04 #@! TO.N,Net-(U2-Pad6)*
X109220000Y-71120000D03*
G04 #@! TO.P,,5*
G04 #@! TO.N,IMU_SDA*
X106680000Y-71120000D03*
G04 #@! TO.P,,4*
G04 #@! TO.N,IMU_SCL*
X104140000Y-71120000D03*
G04 #@! TO.P,,3*
G04 #@! TO.N,GND*
X101600000Y-71120000D03*
G04 #@! TO.P,,2*
G04 #@! TO.N,Net-(U2-Pad2)*
X99060000Y-71120000D03*
D10*
G04 #@! TO.P,,1*
G04 #@! TO.N,+5V*
X96520000Y-71120000D03*
G04 #@! TD*
G04 #@! TO.P,,1*
G04 #@! TO.N,GND*
X130810000Y-88900000D03*
G04 #@! TD*
D11*
G04 #@! TO.P,TP1,1*
G04 #@! TO.N,dist-sig-1*
X99695000Y-50800000D03*
G04 #@! TD*
D10*
G04 #@! TO.P,5V,1*
G04 #@! TO.N,+5V*
X105410000Y-78740000D03*
G04 #@! TD*
D22*
G04 #@! TO.N,dist-sig-2*
X108585000Y-63500000D03*
X108850000Y-59690000D03*
D23*
G04 #@! TO.N,dist-led-1*
X104775000Y-107315000D03*
X87630000Y-112395000D03*
D22*
G04 #@! TO.N,dist-sig-3*
X125095000Y-65405000D03*
X111760000Y-65405000D03*
D23*
G04 #@! TO.N,dist-led-2*
X113030000Y-96520000D03*
D22*
G04 #@! TO.N,dist-led-4*
X90170000Y-109855000D03*
G04 #@! TO.N,dist-led-5*
X111125000Y-121285000D03*
X106045000Y-121285000D03*
G04 #@! TO.N,IMU_SDA*
X107950000Y-112395000D03*
G04 #@! TD*
D24*
G04 #@! TO.N,dist-sig-1*
X96520000Y-55880000D02*
X96520000Y-50800000D01*
X96520000Y-55880000D02*
X99060000Y-55880000D01*
X85479979Y-113348065D02*
X85479979Y-66920021D01*
X85479979Y-66920021D02*
X96520000Y-55880000D01*
X86676933Y-114545019D02*
X85479979Y-113348065D01*
X97790000Y-116840000D02*
X95495020Y-114545020D01*
X95495020Y-114545020D02*
X86676933Y-114545019D01*
X96520000Y-50800000D02*
X99695000Y-50800000D01*
G04 #@! TO.N,dist-sig-2*
X110490000Y-55880000D02*
X110490000Y-50800000D01*
X110490000Y-55880000D02*
X113030000Y-55880000D01*
X86079989Y-113099533D02*
X86079989Y-77115011D01*
X86925466Y-113945010D02*
X86079989Y-113099533D01*
X100330000Y-116840000D02*
X97435011Y-113945011D01*
X97435011Y-113945011D02*
X86925466Y-113945010D01*
X86079989Y-77115011D02*
X99695000Y-63500000D01*
X99695000Y-63500000D02*
X108585000Y-63500000D01*
X108850000Y-57520000D02*
X110490000Y-55880000D01*
X108850000Y-59690000D02*
X108850000Y-57520000D01*
X110490000Y-50800000D02*
X113665000Y-50800000D01*
D25*
G04 #@! TO.N,dist-led-1*
X99695000Y-112395000D02*
X88337106Y-112395000D01*
X104775000Y-107315000D02*
X99695000Y-112395000D01*
X88337106Y-112395000D02*
X87630000Y-112395000D01*
D24*
G04 #@! TO.N,dist-sig-3*
X124460000Y-55880000D02*
X124460000Y-50800000D01*
X124460000Y-55880000D02*
X127000000Y-55880000D01*
X125083372Y-56503372D02*
X124460000Y-55880000D01*
X125849990Y-57269990D02*
X125083372Y-56503372D01*
X125849990Y-64650010D02*
X125849990Y-57269990D01*
X125095000Y-65405000D02*
X125849990Y-64650010D01*
X86679999Y-112851001D02*
X86679999Y-78449999D01*
X99375001Y-113345001D02*
X87173999Y-113345001D01*
X102870000Y-116840000D02*
X99375001Y-113345001D01*
X86679999Y-78449999D02*
X99724998Y-65405000D01*
X87173999Y-113345001D02*
X86679999Y-112851001D01*
X111265026Y-65405000D02*
X111760000Y-65405000D01*
X99724998Y-65405000D02*
X111265026Y-65405000D01*
X124460000Y-50800000D02*
X127635000Y-50800000D01*
D25*
G04 #@! TO.N,dist-led-2*
X107950000Y-50800000D02*
X107950000Y-60325000D01*
X113030000Y-83185000D02*
X113030000Y-96520000D01*
X107950000Y-60325000D02*
X111760000Y-64135000D01*
X111760000Y-64135000D02*
X116840000Y-64135000D01*
X121920000Y-69215000D02*
X121920000Y-74295000D01*
X116840000Y-64135000D02*
X121920000Y-69215000D01*
X121920000Y-74295000D02*
X113030000Y-83185000D01*
D24*
G04 #@! TO.N,dist-sig-4*
X113030000Y-116840000D02*
X113030000Y-114055000D01*
X113030000Y-114055000D02*
X110490000Y-114055000D01*
X95250000Y-121285000D02*
X95250000Y-124460000D01*
D25*
G04 #@! TO.N,dist-led-3*
X114300000Y-97790000D02*
X111289999Y-100800001D01*
X114300000Y-84439998D02*
X114300000Y-97790000D01*
X123190000Y-75549998D02*
X114300000Y-84439998D01*
X121920000Y-50800000D02*
X123190000Y-52070000D01*
X111289999Y-100800001D02*
X110490000Y-101600000D01*
X123190000Y-52070000D02*
X123190000Y-75549998D01*
D24*
G04 #@! TO.N,dist-sig-5*
X115570000Y-116840000D02*
X115570000Y-114055000D01*
X115570000Y-114055000D02*
X118110000Y-114055000D01*
X125730000Y-124460000D02*
X125730000Y-121285000D01*
G04 #@! TO.N,dist-led-4*
X90170000Y-109855000D02*
X90170000Y-101600000D01*
G04 #@! TO.N,dist-led-5*
X110630026Y-121285000D02*
X106045000Y-121285000D01*
X111125000Y-121285000D02*
X110630026Y-121285000D01*
G04 #@! TO.N,+5V*
X96520000Y-73660000D02*
X96520000Y-71120000D01*
G04 #@! TO.N,GND*
X90170000Y-119380000D02*
X120650000Y-119380000D01*
X120650000Y-119380000D02*
X123190000Y-116840000D01*
X123190000Y-116840000D02*
X123190000Y-113665000D01*
X123190000Y-113665000D02*
X123190000Y-112395000D01*
X122800000Y-112005000D02*
X118110000Y-112005000D01*
X123190000Y-112395000D02*
X122800000Y-112005000D01*
X118110000Y-112005000D02*
X115570000Y-112005000D01*
X115570000Y-112005000D02*
X113030000Y-112005000D01*
X113030000Y-112005000D02*
X110490000Y-112005000D01*
X101600000Y-73660000D02*
X101600000Y-71120000D01*
G04 #@! TO.N,Net-(J3-Pad1)*
X105410000Y-51950000D02*
X105410000Y-55880000D01*
X105410000Y-50800000D02*
X105410000Y-51950000D01*
G04 #@! TO.N,Net-(J4-Pad1)*
X91440000Y-55880000D02*
X91440000Y-50800000D01*
G04 #@! TO.N,Net-(J5-Pad1)*
X119380000Y-55880000D02*
X119380000Y-50800000D01*
G04 #@! TO.N,Net-(J7-Pad1)*
X90170000Y-124460000D02*
X90170000Y-121430000D01*
G04 #@! TO.N,Net-(J8-Pad1)*
X120650000Y-124460000D02*
X120650000Y-121430000D01*
G04 #@! TO.N,IMU_SDA*
X109200001Y-111144999D02*
X107950000Y-112395000D01*
X106680000Y-73660000D02*
X106680000Y-71120000D01*
X106680000Y-74737630D02*
X111760000Y-79817630D01*
X106680000Y-73660000D02*
X106680000Y-74737630D01*
X111760000Y-79817630D02*
X111760000Y-98425000D01*
X111760000Y-98425000D02*
X109220000Y-100965000D01*
X109220000Y-100965000D02*
X109220000Y-111125000D01*
G04 #@! TO.N,IMU_SCL*
X104140000Y-73660000D02*
X104140000Y-71120000D01*
X109690001Y-116040001D02*
X110490000Y-116840000D01*
X106680000Y-113030000D02*
X109690001Y-116040001D01*
X106680000Y-101019998D02*
X106680000Y-113030000D01*
X110490000Y-97209998D02*
X106680000Y-101019998D01*
X104140000Y-73660000D02*
X110490000Y-80010000D01*
X110490000Y-80010000D02*
X110490000Y-97209998D01*
D25*
G04 #@! TO.N,V_a*
X125240000Y-116350000D02*
X125730000Y-116840000D01*
X125240000Y-113665000D02*
X125240000Y-116350000D01*
D24*
G04 #@! TO.N,Net-(U2-Pad2)*
X99060000Y-73660000D02*
X99060000Y-71120000D01*
G04 #@! TO.N,Net-(U2-Pad6)*
X109220000Y-73660000D02*
X109220000Y-71120000D01*
G04 #@! TO.N,Net-(U2-Pad7)*
X111760000Y-73660000D02*
X111760000Y-71120000D01*
G04 #@! TO.N,Net-(U2-Pad8)*
X114300000Y-73660000D02*
X114300000Y-71120000D01*
G04 #@! TO.N,Net-(U2-Pad9)*
X116840000Y-73660000D02*
X116840000Y-71120000D01*
G04 #@! TO.N,Net-(U2-Pad10)*
X119380000Y-73660000D02*
X119380000Y-71120000D01*
G04 #@! TD*
D26*
G04 #@! TO.N,GND*
G36*
X136450001Y-126290000D02*
X79450000Y-126290000D01*
X79450000Y-122275866D01*
X79765000Y-122275866D01*
X79765000Y-123324134D01*
X80166155Y-124292608D01*
X80907392Y-125033845D01*
X81875866Y-125435000D01*
X82924134Y-125435000D01*
X83892608Y-125033845D01*
X84633845Y-124292608D01*
X84916590Y-123610000D01*
X88672560Y-123610000D01*
X88672560Y-125310000D01*
X88721843Y-125557765D01*
X88862191Y-125767809D01*
X89072235Y-125908157D01*
X89320000Y-125957440D01*
X91020000Y-125957440D01*
X91267765Y-125908157D01*
X91477809Y-125767809D01*
X91618157Y-125557765D01*
X91627184Y-125512381D01*
X91639375Y-125530625D01*
X92130582Y-125858839D01*
X92563744Y-125945000D01*
X92856256Y-125945000D01*
X93289418Y-125858839D01*
X93780625Y-125530625D01*
X93980000Y-125232239D01*
X94179375Y-125530625D01*
X94670582Y-125858839D01*
X95103744Y-125945000D01*
X95396256Y-125945000D01*
X95829418Y-125858839D01*
X96320625Y-125530625D01*
X96648839Y-125039418D01*
X96764092Y-124460000D01*
X96648839Y-123880582D01*
X96468042Y-123610000D01*
X119152560Y-123610000D01*
X119152560Y-125310000D01*
X119201843Y-125557765D01*
X119342191Y-125767809D01*
X119552235Y-125908157D01*
X119800000Y-125957440D01*
X121500000Y-125957440D01*
X121747765Y-125908157D01*
X121957809Y-125767809D01*
X122098157Y-125557765D01*
X122107184Y-125512381D01*
X122119375Y-125530625D01*
X122610582Y-125858839D01*
X123043744Y-125945000D01*
X123336256Y-125945000D01*
X123769418Y-125858839D01*
X124260625Y-125530625D01*
X124460000Y-125232239D01*
X124659375Y-125530625D01*
X125150582Y-125858839D01*
X125583744Y-125945000D01*
X125876256Y-125945000D01*
X126309418Y-125858839D01*
X126800625Y-125530625D01*
X127128839Y-125039418D01*
X127244092Y-124460000D01*
X127128839Y-123880582D01*
X126800625Y-123389375D01*
X126515000Y-123198526D01*
X126515000Y-122729554D01*
X126656153Y-122671086D01*
X127051373Y-122275866D01*
X130865000Y-122275866D01*
X130865000Y-123324134D01*
X131266155Y-124292608D01*
X132007392Y-125033845D01*
X132975866Y-125435000D01*
X134024134Y-125435000D01*
X134992608Y-125033845D01*
X135733845Y-124292608D01*
X136135000Y-123324134D01*
X136135000Y-122275866D01*
X135733845Y-121307392D01*
X134992608Y-120566155D01*
X134024134Y-120165000D01*
X132975866Y-120165000D01*
X132007392Y-120566155D01*
X131266155Y-121307392D01*
X130865000Y-122275866D01*
X127051373Y-122275866D01*
X127116086Y-122211153D01*
X127365000Y-121610222D01*
X127365000Y-120959778D01*
X127116086Y-120358847D01*
X126656153Y-119898914D01*
X126055222Y-119650000D01*
X125404778Y-119650000D01*
X124803847Y-119898914D01*
X124343914Y-120358847D01*
X124095000Y-120959778D01*
X124095000Y-121610222D01*
X124343914Y-122211153D01*
X124803847Y-122671086D01*
X124945001Y-122729554D01*
X124945000Y-123198526D01*
X124659375Y-123389375D01*
X124460000Y-123687761D01*
X124260625Y-123389375D01*
X123769418Y-123061161D01*
X123336256Y-122975000D01*
X123043744Y-122975000D01*
X122610582Y-123061161D01*
X122119375Y-123389375D01*
X122107184Y-123407619D01*
X122098157Y-123362235D01*
X121957809Y-123152191D01*
X121747765Y-123011843D01*
X121500000Y-122962560D01*
X121435000Y-122962560D01*
X121435000Y-122585805D01*
X121443436Y-122584127D01*
X121734586Y-122389586D01*
X121929127Y-122098436D01*
X121997440Y-121755001D01*
X121997440Y-121104999D01*
X121929127Y-120761564D01*
X121734586Y-120470414D01*
X121733403Y-120469623D01*
X121888327Y-120314698D01*
X121985000Y-120081309D01*
X121985000Y-119665750D01*
X121826250Y-119507000D01*
X120777000Y-119507000D01*
X120777000Y-119527000D01*
X120523000Y-119527000D01*
X120523000Y-119507000D01*
X119473750Y-119507000D01*
X119315000Y-119665750D01*
X119315000Y-120081309D01*
X119411673Y-120314698D01*
X119566597Y-120469623D01*
X119565414Y-120470414D01*
X119370873Y-120761564D01*
X119302560Y-121104999D01*
X119302560Y-121755001D01*
X119370873Y-122098436D01*
X119565414Y-122389586D01*
X119856564Y-122584127D01*
X119865001Y-122585805D01*
X119865000Y-122962560D01*
X119800000Y-122962560D01*
X119552235Y-123011843D01*
X119342191Y-123152191D01*
X119201843Y-123362235D01*
X119152560Y-123610000D01*
X96468042Y-123610000D01*
X96320625Y-123389375D01*
X96035000Y-123198526D01*
X96035000Y-122729554D01*
X96176153Y-122671086D01*
X96636086Y-122211153D01*
X96885000Y-121610222D01*
X96885000Y-121089071D01*
X105060000Y-121089071D01*
X105060000Y-121480929D01*
X105209958Y-121842958D01*
X105487042Y-122120042D01*
X105849071Y-122270000D01*
X106240929Y-122270000D01*
X106602958Y-122120042D01*
X106653000Y-122070000D01*
X110517000Y-122070000D01*
X110567042Y-122120042D01*
X110929071Y-122270000D01*
X111320929Y-122270000D01*
X111682958Y-122120042D01*
X111960042Y-121842958D01*
X112110000Y-121480929D01*
X112110000Y-121089071D01*
X111960042Y-120727042D01*
X111682958Y-120449958D01*
X111320929Y-120300000D01*
X110929071Y-120300000D01*
X110567042Y-120449958D01*
X110517000Y-120500000D01*
X106653000Y-120500000D01*
X106602958Y-120449958D01*
X106240929Y-120300000D01*
X105849071Y-120300000D01*
X105487042Y-120449958D01*
X105209958Y-120727042D01*
X105060000Y-121089071D01*
X96885000Y-121089071D01*
X96885000Y-120959778D01*
X96636086Y-120358847D01*
X96176153Y-119898914D01*
X95575222Y-119650000D01*
X94924778Y-119650000D01*
X94323847Y-119898914D01*
X93863914Y-120358847D01*
X93615000Y-120959778D01*
X93615000Y-121610222D01*
X93863914Y-122211153D01*
X94323847Y-122671086D01*
X94465000Y-122729554D01*
X94465001Y-123198526D01*
X94179375Y-123389375D01*
X93980000Y-123687761D01*
X93780625Y-123389375D01*
X93289418Y-123061161D01*
X92856256Y-122975000D01*
X92563744Y-122975000D01*
X92130582Y-123061161D01*
X91639375Y-123389375D01*
X91627184Y-123407619D01*
X91618157Y-123362235D01*
X91477809Y-123152191D01*
X91267765Y-123011843D01*
X91020000Y-122962560D01*
X90955000Y-122962560D01*
X90955000Y-122585805D01*
X90963436Y-122584127D01*
X91254586Y-122389586D01*
X91449127Y-122098436D01*
X91517440Y-121755001D01*
X91517440Y-121104999D01*
X91449127Y-120761564D01*
X91254586Y-120470414D01*
X91253403Y-120469623D01*
X91408327Y-120314698D01*
X91505000Y-120081309D01*
X91505000Y-119665750D01*
X91346250Y-119507000D01*
X90297000Y-119507000D01*
X90297000Y-119527000D01*
X90043000Y-119527000D01*
X90043000Y-119507000D01*
X88993750Y-119507000D01*
X88835000Y-119665750D01*
X88835000Y-120081309D01*
X88931673Y-120314698D01*
X89086597Y-120469623D01*
X89085414Y-120470414D01*
X88890873Y-120761564D01*
X88822560Y-121104999D01*
X88822560Y-121755001D01*
X88890873Y-122098436D01*
X89085414Y-122389586D01*
X89376564Y-122584127D01*
X89385001Y-122585805D01*
X89385000Y-122962560D01*
X89320000Y-122962560D01*
X89072235Y-123011843D01*
X88862191Y-123152191D01*
X88721843Y-123362235D01*
X88672560Y-123610000D01*
X84916590Y-123610000D01*
X85035000Y-123324134D01*
X85035000Y-122275866D01*
X84633845Y-121307392D01*
X83892608Y-120566155D01*
X82924134Y-120165000D01*
X81875866Y-120165000D01*
X80907392Y-120566155D01*
X80166155Y-121307392D01*
X79765000Y-122275866D01*
X79450000Y-122275866D01*
X79450000Y-66920021D01*
X84679601Y-66920021D01*
X84694980Y-66997338D01*
X84694979Y-113270753D01*
X84679601Y-113348065D01*
X84694979Y-113425377D01*
X84694979Y-113425380D01*
X84728908Y-113595953D01*
X84740525Y-113654356D01*
X84841561Y-113805566D01*
X84914026Y-113914018D01*
X84979571Y-113957814D01*
X86067185Y-115045428D01*
X86110980Y-115110971D01*
X86176522Y-115154765D01*
X86176525Y-115154768D01*
X86370641Y-115284473D01*
X86676933Y-115345397D01*
X86754250Y-115330018D01*
X95169863Y-115330020D01*
X95244843Y-115405000D01*
X95108667Y-115405000D01*
X94690091Y-115488260D01*
X94215423Y-115805423D01*
X93980000Y-116157758D01*
X93744577Y-115805423D01*
X93269909Y-115488260D01*
X92851333Y-115405000D01*
X92568667Y-115405000D01*
X92150091Y-115488260D01*
X91675423Y-115805423D01*
X91440000Y-116157758D01*
X91204577Y-115805423D01*
X90729909Y-115488260D01*
X90311333Y-115405000D01*
X90028667Y-115405000D01*
X89610091Y-115488260D01*
X89135423Y-115805423D01*
X88818260Y-116280091D01*
X88706887Y-116840000D01*
X88818260Y-117399909D01*
X89135423Y-117874577D01*
X89577555Y-118170000D01*
X89343690Y-118170000D01*
X89110301Y-118266673D01*
X88931673Y-118445302D01*
X88835000Y-118678691D01*
X88835000Y-119094250D01*
X88993750Y-119253000D01*
X90043000Y-119253000D01*
X90043000Y-119233000D01*
X90297000Y-119233000D01*
X90297000Y-119253000D01*
X91346250Y-119253000D01*
X91505000Y-119094250D01*
X91505000Y-118678691D01*
X91408327Y-118445302D01*
X91229699Y-118266673D01*
X90996310Y-118170000D01*
X90762445Y-118170000D01*
X91204577Y-117874577D01*
X91440000Y-117522242D01*
X91675423Y-117874577D01*
X92150091Y-118191740D01*
X92568667Y-118275000D01*
X92851333Y-118275000D01*
X93269909Y-118191740D01*
X93744577Y-117874577D01*
X93980000Y-117522242D01*
X94215423Y-117874577D01*
X94690091Y-118191740D01*
X95108667Y-118275000D01*
X95391333Y-118275000D01*
X95809909Y-118191740D01*
X96284577Y-117874577D01*
X96520000Y-117522242D01*
X96755423Y-117874577D01*
X97230091Y-118191740D01*
X97648667Y-118275000D01*
X97931333Y-118275000D01*
X98349909Y-118191740D01*
X98824577Y-117874577D01*
X99060000Y-117522242D01*
X99295423Y-117874577D01*
X99770091Y-118191740D01*
X100188667Y-118275000D01*
X100471333Y-118275000D01*
X100889909Y-118191740D01*
X101364577Y-117874577D01*
X101600000Y-117522242D01*
X101835423Y-117874577D01*
X102310091Y-118191740D01*
X102728667Y-118275000D01*
X103011333Y-118275000D01*
X103429909Y-118191740D01*
X103904577Y-117874577D01*
X104140000Y-117522242D01*
X104375423Y-117874577D01*
X104850091Y-118191740D01*
X105268667Y-118275000D01*
X105551333Y-118275000D01*
X105969909Y-118191740D01*
X106444577Y-117874577D01*
X106680000Y-117522242D01*
X106915423Y-117874577D01*
X107390091Y-118191740D01*
X107808667Y-118275000D01*
X108091333Y-118275000D01*
X108509909Y-118191740D01*
X108984577Y-117874577D01*
X109220000Y-117522242D01*
X109455423Y-117874577D01*
X109930091Y-118191740D01*
X110348667Y-118275000D01*
X110631333Y-118275000D01*
X111049909Y-118191740D01*
X111524577Y-117874577D01*
X111760000Y-117522242D01*
X111995423Y-117874577D01*
X112470091Y-118191740D01*
X112888667Y-118275000D01*
X113171333Y-118275000D01*
X113589909Y-118191740D01*
X114064577Y-117874577D01*
X114300000Y-117522242D01*
X114535423Y-117874577D01*
X115010091Y-118191740D01*
X115428667Y-118275000D01*
X115711333Y-118275000D01*
X116129909Y-118191740D01*
X116604577Y-117874577D01*
X116840000Y-117522242D01*
X117075423Y-117874577D01*
X117550091Y-118191740D01*
X117968667Y-118275000D01*
X118251333Y-118275000D01*
X118669909Y-118191740D01*
X119144577Y-117874577D01*
X119380000Y-117522242D01*
X119615423Y-117874577D01*
X120057555Y-118170000D01*
X119823690Y-118170000D01*
X119590301Y-118266673D01*
X119411673Y-118445302D01*
X119315000Y-118678691D01*
X119315000Y-119094250D01*
X119473750Y-119253000D01*
X120523000Y-119253000D01*
X120523000Y-119233000D01*
X120777000Y-119233000D01*
X120777000Y-119253000D01*
X121826250Y-119253000D01*
X121985000Y-119094250D01*
X121985000Y-118678691D01*
X121888327Y-118445302D01*
X121709699Y-118266673D01*
X121476310Y-118170000D01*
X121242445Y-118170000D01*
X121684577Y-117874577D01*
X121940947Y-117490892D01*
X122037611Y-117695134D01*
X122452577Y-118071041D01*
X122840961Y-118231904D01*
X123063000Y-118109915D01*
X123063000Y-116967000D01*
X123043000Y-116967000D01*
X123043000Y-116713000D01*
X123063000Y-116713000D01*
X123063000Y-115570085D01*
X122840961Y-115448096D01*
X122452577Y-115608959D01*
X122037611Y-115984866D01*
X121940947Y-116189108D01*
X121684577Y-115805423D01*
X121209909Y-115488260D01*
X120791333Y-115405000D01*
X120508667Y-115405000D01*
X120090091Y-115488260D01*
X119615423Y-115805423D01*
X119380000Y-116157758D01*
X119144577Y-115805423D01*
X118669909Y-115488260D01*
X118251333Y-115405000D01*
X117968667Y-115405000D01*
X117550091Y-115488260D01*
X117075423Y-115805423D01*
X116840000Y-116157758D01*
X116604577Y-115805423D01*
X116355000Y-115638661D01*
X116355000Y-115210805D01*
X116363436Y-115209127D01*
X116654586Y-115014586D01*
X116771241Y-114840000D01*
X116908759Y-114840000D01*
X117025414Y-115014586D01*
X117316564Y-115209127D01*
X117659999Y-115277440D01*
X118560001Y-115277440D01*
X118903436Y-115209127D01*
X119194586Y-115014586D01*
X119389127Y-114723436D01*
X119457440Y-114380001D01*
X119457440Y-113950750D01*
X121980000Y-113950750D01*
X121980000Y-114491310D01*
X122076673Y-114724699D01*
X122255302Y-114903327D01*
X122488691Y-115000000D01*
X122904250Y-115000000D01*
X123063000Y-114841250D01*
X123063000Y-113792000D01*
X122138750Y-113792000D01*
X121980000Y-113950750D01*
X119457440Y-113950750D01*
X119457440Y-113729999D01*
X119389127Y-113386564D01*
X119194586Y-113095414D01*
X119193403Y-113094623D01*
X119348327Y-112939698D01*
X119390165Y-112838690D01*
X121980000Y-112838690D01*
X121980000Y-113379250D01*
X122138750Y-113538000D01*
X123063000Y-113538000D01*
X123063000Y-112488750D01*
X123317000Y-112488750D01*
X123317000Y-113538000D01*
X123337000Y-113538000D01*
X123337000Y-113792000D01*
X123317000Y-113792000D01*
X123317000Y-114841250D01*
X123475750Y-115000000D01*
X123891309Y-115000000D01*
X124124698Y-114903327D01*
X124279623Y-114748403D01*
X124280414Y-114749586D01*
X124355000Y-114799423D01*
X124355001Y-116011514D01*
X124342389Y-115984866D01*
X123927423Y-115608959D01*
X123539039Y-115448096D01*
X123317000Y-115570085D01*
X123317000Y-116713000D01*
X123337000Y-116713000D01*
X123337000Y-116967000D01*
X123317000Y-116967000D01*
X123317000Y-118109915D01*
X123539039Y-118231904D01*
X123927423Y-118071041D01*
X124342389Y-117695134D01*
X124439053Y-117490892D01*
X124695423Y-117874577D01*
X125170091Y-118191740D01*
X125588667Y-118275000D01*
X125871333Y-118275000D01*
X126289909Y-118191740D01*
X126764577Y-117874577D01*
X127081740Y-117399909D01*
X127193113Y-116840000D01*
X127081740Y-116280091D01*
X126764577Y-115805423D01*
X126289909Y-115488260D01*
X126125000Y-115455458D01*
X126125000Y-114799423D01*
X126199586Y-114749586D01*
X126394127Y-114458436D01*
X126462440Y-114115001D01*
X126462440Y-113214999D01*
X126394127Y-112871564D01*
X126199586Y-112580414D01*
X125908436Y-112385873D01*
X125565001Y-112317560D01*
X124914999Y-112317560D01*
X124571564Y-112385873D01*
X124280414Y-112580414D01*
X124279623Y-112581597D01*
X124124698Y-112426673D01*
X123891309Y-112330000D01*
X123475750Y-112330000D01*
X123317000Y-112488750D01*
X123063000Y-112488750D01*
X122904250Y-112330000D01*
X122488691Y-112330000D01*
X122255302Y-112426673D01*
X122076673Y-112605301D01*
X121980000Y-112838690D01*
X119390165Y-112838690D01*
X119445000Y-112706309D01*
X119445000Y-112290750D01*
X119286250Y-112132000D01*
X118237000Y-112132000D01*
X118237000Y-112152000D01*
X117983000Y-112152000D01*
X117983000Y-112132000D01*
X116933750Y-112132000D01*
X116840000Y-112225750D01*
X116746250Y-112132000D01*
X115697000Y-112132000D01*
X115697000Y-112152000D01*
X115443000Y-112152000D01*
X115443000Y-112132000D01*
X114393750Y-112132000D01*
X114300000Y-112225750D01*
X114206250Y-112132000D01*
X113157000Y-112132000D01*
X113157000Y-112152000D01*
X112903000Y-112152000D01*
X112903000Y-112132000D01*
X111853750Y-112132000D01*
X111760000Y-112225750D01*
X111666250Y-112132000D01*
X110617000Y-112132000D01*
X110617000Y-112152000D01*
X110363000Y-112152000D01*
X110363000Y-112132000D01*
X110343000Y-112132000D01*
X110343000Y-111878000D01*
X110363000Y-111878000D01*
X110363000Y-110953750D01*
X110617000Y-110953750D01*
X110617000Y-111878000D01*
X111666250Y-111878000D01*
X111760000Y-111784250D01*
X111853750Y-111878000D01*
X112903000Y-111878000D01*
X112903000Y-110953750D01*
X113157000Y-110953750D01*
X113157000Y-111878000D01*
X114206250Y-111878000D01*
X114300000Y-111784250D01*
X114393750Y-111878000D01*
X115443000Y-111878000D01*
X115443000Y-110953750D01*
X115697000Y-110953750D01*
X115697000Y-111878000D01*
X116746250Y-111878000D01*
X116840000Y-111784250D01*
X116933750Y-111878000D01*
X117983000Y-111878000D01*
X117983000Y-110953750D01*
X118237000Y-110953750D01*
X118237000Y-111878000D01*
X119286250Y-111878000D01*
X119445000Y-111719250D01*
X119445000Y-111303691D01*
X119348327Y-111070302D01*
X119169699Y-110891673D01*
X118936310Y-110795000D01*
X118395750Y-110795000D01*
X118237000Y-110953750D01*
X117983000Y-110953750D01*
X117824250Y-110795000D01*
X117283690Y-110795000D01*
X117050301Y-110891673D01*
X116871673Y-111070302D01*
X116840000Y-111146767D01*
X116808327Y-111070302D01*
X116629699Y-110891673D01*
X116396310Y-110795000D01*
X115855750Y-110795000D01*
X115697000Y-110953750D01*
X115443000Y-110953750D01*
X115284250Y-110795000D01*
X114743690Y-110795000D01*
X114510301Y-110891673D01*
X114331673Y-111070302D01*
X114300000Y-111146767D01*
X114268327Y-111070302D01*
X114089699Y-110891673D01*
X113856310Y-110795000D01*
X113315750Y-110795000D01*
X113157000Y-110953750D01*
X112903000Y-110953750D01*
X112744250Y-110795000D01*
X112203690Y-110795000D01*
X111970301Y-110891673D01*
X111791673Y-111070302D01*
X111760000Y-111146767D01*
X111728327Y-111070302D01*
X111549699Y-110891673D01*
X111316310Y-110795000D01*
X110775750Y-110795000D01*
X110617000Y-110953750D01*
X110363000Y-110953750D01*
X110204250Y-110795000D01*
X110005000Y-110795000D01*
X110005000Y-102966640D01*
X110348667Y-103035000D01*
X110631333Y-103035000D01*
X111049909Y-102951740D01*
X111524577Y-102634577D01*
X111760000Y-102282242D01*
X111995423Y-102634577D01*
X112470091Y-102951740D01*
X112888667Y-103035000D01*
X113171333Y-103035000D01*
X113589909Y-102951740D01*
X114064577Y-102634577D01*
X114300000Y-102282242D01*
X114535423Y-102634577D01*
X115010091Y-102951740D01*
X115428667Y-103035000D01*
X115711333Y-103035000D01*
X116129909Y-102951740D01*
X116604577Y-102634577D01*
X116860947Y-102250892D01*
X116957611Y-102455134D01*
X117372577Y-102831041D01*
X117760961Y-102991904D01*
X117983000Y-102869915D01*
X117983000Y-101727000D01*
X117963000Y-101727000D01*
X117963000Y-101473000D01*
X117983000Y-101473000D01*
X117983000Y-100330085D01*
X118237000Y-100330085D01*
X118237000Y-101473000D01*
X118257000Y-101473000D01*
X118257000Y-101727000D01*
X118237000Y-101727000D01*
X118237000Y-102869915D01*
X118459039Y-102991904D01*
X118847423Y-102831041D01*
X119262389Y-102455134D01*
X119359053Y-102250892D01*
X119615423Y-102634577D01*
X120090091Y-102951740D01*
X120508667Y-103035000D01*
X120791333Y-103035000D01*
X121209909Y-102951740D01*
X121684577Y-102634577D01*
X121920000Y-102282242D01*
X122155423Y-102634577D01*
X122630091Y-102951740D01*
X123048667Y-103035000D01*
X123331333Y-103035000D01*
X123749909Y-102951740D01*
X124224577Y-102634577D01*
X124305215Y-102513894D01*
X124331843Y-102647765D01*
X124472191Y-102857809D01*
X124682235Y-102998157D01*
X124930000Y-103047440D01*
X126530000Y-103047440D01*
X126777765Y-102998157D01*
X126987809Y-102857809D01*
X127128157Y-102647765D01*
X127177440Y-102400000D01*
X127177440Y-100800000D01*
X127128157Y-100552235D01*
X126987809Y-100342191D01*
X126777765Y-100201843D01*
X126530000Y-100152560D01*
X124930000Y-100152560D01*
X124682235Y-100201843D01*
X124472191Y-100342191D01*
X124331843Y-100552235D01*
X124305215Y-100686106D01*
X124224577Y-100565423D01*
X123749909Y-100248260D01*
X123331333Y-100165000D01*
X123048667Y-100165000D01*
X122630091Y-100248260D01*
X122155423Y-100565423D01*
X121920000Y-100917758D01*
X121684577Y-100565423D01*
X121209909Y-100248260D01*
X120791333Y-100165000D01*
X120508667Y-100165000D01*
X120090091Y-100248260D01*
X119615423Y-100565423D01*
X119359053Y-100949108D01*
X119262389Y-100744866D01*
X118847423Y-100368959D01*
X118459039Y-100208096D01*
X118237000Y-100330085D01*
X117983000Y-100330085D01*
X117760961Y-100208096D01*
X117372577Y-100368959D01*
X116957611Y-100744866D01*
X116860947Y-100949108D01*
X116604577Y-100565423D01*
X116129909Y-100248260D01*
X115711333Y-100165000D01*
X115428667Y-100165000D01*
X115010091Y-100248260D01*
X114535423Y-100565423D01*
X114300000Y-100917758D01*
X114064577Y-100565423D01*
X113589909Y-100248260D01*
X113175708Y-100165870D01*
X114864156Y-98477423D01*
X114938049Y-98428049D01*
X115133652Y-98135310D01*
X115185000Y-97877165D01*
X115185000Y-97877161D01*
X115202337Y-97790001D01*
X115185000Y-97702841D01*
X115185000Y-96940000D01*
X121692560Y-96940000D01*
X121692560Y-98640000D01*
X121741843Y-98887765D01*
X121882191Y-99097809D01*
X122092235Y-99238157D01*
X122340000Y-99287440D01*
X124040000Y-99287440D01*
X124287765Y-99238157D01*
X124497809Y-99097809D01*
X124638157Y-98887765D01*
X124647184Y-98842381D01*
X124659375Y-98860625D01*
X125150582Y-99188839D01*
X125583744Y-99275000D01*
X125876256Y-99275000D01*
X126309418Y-99188839D01*
X126800625Y-98860625D01*
X127128839Y-98369418D01*
X127244092Y-97790000D01*
X127128839Y-97210582D01*
X126800625Y-96719375D01*
X126309418Y-96391161D01*
X125876256Y-96305000D01*
X125583744Y-96305000D01*
X125150582Y-96391161D01*
X124659375Y-96719375D01*
X124647184Y-96737619D01*
X124638157Y-96692235D01*
X124497809Y-96482191D01*
X124287765Y-96341843D01*
X124040000Y-96292560D01*
X122340000Y-96292560D01*
X122092235Y-96341843D01*
X121882191Y-96482191D01*
X121741843Y-96692235D01*
X121692560Y-96940000D01*
X115185000Y-96940000D01*
X115185000Y-89185750D01*
X129325000Y-89185750D01*
X129325000Y-89876310D01*
X129421673Y-90109699D01*
X129600302Y-90288327D01*
X129833691Y-90385000D01*
X130524250Y-90385000D01*
X130683000Y-90226250D01*
X130683000Y-89027000D01*
X130937000Y-89027000D01*
X130937000Y-90226250D01*
X131095750Y-90385000D01*
X131786309Y-90385000D01*
X132019698Y-90288327D01*
X132198327Y-90109699D01*
X132295000Y-89876310D01*
X132295000Y-89185750D01*
X132136250Y-89027000D01*
X130937000Y-89027000D01*
X130683000Y-89027000D01*
X129483750Y-89027000D01*
X129325000Y-89185750D01*
X115185000Y-89185750D01*
X115185000Y-86830000D01*
X119202560Y-86830000D01*
X119202560Y-88430000D01*
X119251843Y-88677765D01*
X119392191Y-88887809D01*
X119602235Y-89028157D01*
X119850000Y-89077440D01*
X121450000Y-89077440D01*
X121697765Y-89028157D01*
X121907809Y-88887809D01*
X122048157Y-88677765D01*
X122056117Y-88637745D01*
X122321861Y-88637745D01*
X122395995Y-88883864D01*
X122933223Y-89076965D01*
X123503454Y-89049778D01*
X123904005Y-88883864D01*
X123978139Y-88637745D01*
X123150000Y-87809605D01*
X122321861Y-88637745D01*
X122056117Y-88637745D01*
X122094693Y-88443813D01*
X122142255Y-88458139D01*
X122970395Y-87630000D01*
X123329605Y-87630000D01*
X124157745Y-88458139D01*
X124403864Y-88384005D01*
X124569319Y-87923690D01*
X129325000Y-87923690D01*
X129325000Y-88614250D01*
X129483750Y-88773000D01*
X130683000Y-88773000D01*
X130683000Y-87573750D01*
X130937000Y-87573750D01*
X130937000Y-88773000D01*
X132136250Y-88773000D01*
X132295000Y-88614250D01*
X132295000Y-87923690D01*
X132198327Y-87690301D01*
X132019698Y-87511673D01*
X131786309Y-87415000D01*
X131095750Y-87415000D01*
X130937000Y-87573750D01*
X130683000Y-87573750D01*
X130524250Y-87415000D01*
X129833691Y-87415000D01*
X129600302Y-87511673D01*
X129421673Y-87690301D01*
X129325000Y-87923690D01*
X124569319Y-87923690D01*
X124596965Y-87846777D01*
X124569778Y-87276546D01*
X124403864Y-86875995D01*
X124157745Y-86801861D01*
X123329605Y-87630000D01*
X122970395Y-87630000D01*
X122142255Y-86801861D01*
X122094693Y-86816187D01*
X122056118Y-86622255D01*
X122321861Y-86622255D01*
X123150000Y-87450395D01*
X123978139Y-86622255D01*
X123904005Y-86376136D01*
X123366777Y-86183035D01*
X122796546Y-86210222D01*
X122395995Y-86376136D01*
X122321861Y-86622255D01*
X122056118Y-86622255D01*
X122048157Y-86582235D01*
X121907809Y-86372191D01*
X121697765Y-86231843D01*
X121450000Y-86182560D01*
X119850000Y-86182560D01*
X119602235Y-86231843D01*
X119392191Y-86372191D01*
X119251843Y-86582235D01*
X119202560Y-86830000D01*
X115185000Y-86830000D01*
X115185000Y-84806576D01*
X115814686Y-84176890D01*
X129368524Y-84176890D01*
X129538355Y-84586924D01*
X129928642Y-85015183D01*
X130453108Y-85261486D01*
X130683000Y-85140819D01*
X130683000Y-83947000D01*
X130937000Y-83947000D01*
X130937000Y-85140819D01*
X131166892Y-85261486D01*
X131691358Y-85015183D01*
X132081645Y-84586924D01*
X132251476Y-84176890D01*
X132130155Y-83947000D01*
X130937000Y-83947000D01*
X130683000Y-83947000D01*
X129489845Y-83947000D01*
X129368524Y-84176890D01*
X115814686Y-84176890D01*
X118902560Y-81089016D01*
X118902560Y-82380000D01*
X118951843Y-82627765D01*
X119092191Y-82837809D01*
X119302235Y-82978157D01*
X119550000Y-83027440D01*
X121750000Y-83027440D01*
X121997765Y-82978157D01*
X122207809Y-82837809D01*
X122348157Y-82627765D01*
X122397440Y-82380000D01*
X122397440Y-81280000D01*
X126501010Y-81280000D01*
X126635666Y-81956963D01*
X127019135Y-82530865D01*
X127593037Y-82914334D01*
X128099120Y-83015000D01*
X128440880Y-83015000D01*
X128946963Y-82914334D01*
X129481650Y-82557068D01*
X129502191Y-82587809D01*
X129712235Y-82728157D01*
X129815708Y-82748739D01*
X129538355Y-83053076D01*
X129368524Y-83463110D01*
X129489845Y-83693000D01*
X130683000Y-83693000D01*
X130683000Y-83673000D01*
X130937000Y-83673000D01*
X130937000Y-83693000D01*
X132130155Y-83693000D01*
X132251476Y-83463110D01*
X132081645Y-83053076D01*
X131804292Y-82748739D01*
X131907765Y-82728157D01*
X132117809Y-82587809D01*
X132258157Y-82377765D01*
X132307440Y-82130000D01*
X132307440Y-80430000D01*
X132258157Y-80182235D01*
X132117809Y-79972191D01*
X131907765Y-79831843D01*
X131660000Y-79782560D01*
X129960000Y-79782560D01*
X129712235Y-79831843D01*
X129502191Y-79972191D01*
X129481650Y-80002932D01*
X128946963Y-79645666D01*
X128440880Y-79545000D01*
X128099120Y-79545000D01*
X127593037Y-79645666D01*
X127019135Y-80029135D01*
X126635666Y-80603037D01*
X126501010Y-81280000D01*
X122397440Y-81280000D01*
X122397440Y-80180000D01*
X122348157Y-79932235D01*
X122207809Y-79722191D01*
X121997765Y-79581843D01*
X121750000Y-79532560D01*
X120459017Y-79532560D01*
X123754156Y-76237421D01*
X123828049Y-76188047D01*
X124023652Y-75895308D01*
X124075000Y-75637163D01*
X124075000Y-75637159D01*
X124092337Y-75549998D01*
X124075000Y-75462837D01*
X124075000Y-74715000D01*
X129312560Y-74715000D01*
X129312560Y-76415000D01*
X129361843Y-76662765D01*
X129502191Y-76872809D01*
X129712235Y-77013157D01*
X129960000Y-77062440D01*
X131660000Y-77062440D01*
X131907765Y-77013157D01*
X132117809Y-76872809D01*
X132258157Y-76662765D01*
X132307440Y-76415000D01*
X132307440Y-74715000D01*
X132258157Y-74467235D01*
X132117809Y-74257191D01*
X131907765Y-74116843D01*
X131660000Y-74067560D01*
X129960000Y-74067560D01*
X129712235Y-74116843D01*
X129502191Y-74257191D01*
X129361843Y-74467235D01*
X129312560Y-74715000D01*
X124075000Y-74715000D01*
X124075000Y-59140000D01*
X124174250Y-59140000D01*
X124333000Y-58981250D01*
X124333000Y-58057000D01*
X124313000Y-58057000D01*
X124313000Y-57803000D01*
X124333000Y-57803000D01*
X124333000Y-57783000D01*
X124587000Y-57783000D01*
X124587000Y-57803000D01*
X124607000Y-57803000D01*
X124607000Y-58057000D01*
X124587000Y-58057000D01*
X124587000Y-58981250D01*
X124745750Y-59140000D01*
X125064991Y-59140000D01*
X125064990Y-64324852D01*
X124969842Y-64420000D01*
X124899071Y-64420000D01*
X124537042Y-64569958D01*
X124259958Y-64847042D01*
X124110000Y-65209071D01*
X124110000Y-65600929D01*
X124259958Y-65962958D01*
X124537042Y-66240042D01*
X124899071Y-66390000D01*
X125290929Y-66390000D01*
X125652958Y-66240042D01*
X125930042Y-65962958D01*
X126080000Y-65600929D01*
X126080000Y-65530158D01*
X126350401Y-65259757D01*
X126415943Y-65215963D01*
X126459737Y-65150421D01*
X126459739Y-65150419D01*
X126589444Y-64956302D01*
X126616074Y-64822424D01*
X126634990Y-64727326D01*
X126634990Y-64727323D01*
X126650368Y-64650011D01*
X126634990Y-64572699D01*
X126634990Y-59140000D01*
X126714250Y-59140000D01*
X126873000Y-58981250D01*
X126873000Y-58057000D01*
X127127000Y-58057000D01*
X127127000Y-58981250D01*
X127285750Y-59140000D01*
X127826310Y-59140000D01*
X128059699Y-59043327D01*
X128238327Y-58864698D01*
X128335000Y-58631309D01*
X128335000Y-58215750D01*
X128176250Y-58057000D01*
X127127000Y-58057000D01*
X126873000Y-58057000D01*
X126853000Y-58057000D01*
X126853000Y-57803000D01*
X126873000Y-57803000D01*
X126873000Y-57783000D01*
X127127000Y-57783000D01*
X127127000Y-57803000D01*
X128176250Y-57803000D01*
X128335000Y-57644250D01*
X128335000Y-57228691D01*
X128238327Y-56995302D01*
X128083403Y-56840377D01*
X128084586Y-56839586D01*
X128279127Y-56548436D01*
X128347440Y-56205001D01*
X128347440Y-55554999D01*
X128279127Y-55211564D01*
X128084586Y-54920414D01*
X127793436Y-54725873D01*
X127450001Y-54657560D01*
X126549999Y-54657560D01*
X126206564Y-54725873D01*
X125915414Y-54920414D01*
X125798759Y-55095000D01*
X125661241Y-55095000D01*
X125544586Y-54920414D01*
X125253436Y-54725873D01*
X125245000Y-54724195D01*
X125245000Y-52061474D01*
X125530625Y-51870625D01*
X125721474Y-51585000D01*
X126190446Y-51585000D01*
X126248914Y-51726153D01*
X126708847Y-52186086D01*
X127309778Y-52435000D01*
X127960222Y-52435000D01*
X128561153Y-52186086D01*
X128871373Y-51875866D01*
X130865000Y-51875866D01*
X130865000Y-52924134D01*
X131266155Y-53892608D01*
X132007392Y-54633845D01*
X132975866Y-55035000D01*
X134024134Y-55035000D01*
X134992608Y-54633845D01*
X135733845Y-53892608D01*
X136135000Y-52924134D01*
X136135000Y-51875866D01*
X135733845Y-50907392D01*
X134992608Y-50166155D01*
X134024134Y-49765000D01*
X132975866Y-49765000D01*
X132007392Y-50166155D01*
X131266155Y-50907392D01*
X130865000Y-51875866D01*
X128871373Y-51875866D01*
X129021086Y-51726153D01*
X129270000Y-51125222D01*
X129270000Y-50474778D01*
X129021086Y-49873847D01*
X128561153Y-49413914D01*
X127960222Y-49165000D01*
X127309778Y-49165000D01*
X126708847Y-49413914D01*
X126248914Y-49873847D01*
X126190446Y-50015000D01*
X125721474Y-50015000D01*
X125530625Y-49729375D01*
X125039418Y-49401161D01*
X124606256Y-49315000D01*
X124313744Y-49315000D01*
X123880582Y-49401161D01*
X123389375Y-49729375D01*
X123190000Y-50027761D01*
X122990625Y-49729375D01*
X122499418Y-49401161D01*
X122066256Y-49315000D01*
X121773744Y-49315000D01*
X121340582Y-49401161D01*
X120849375Y-49729375D01*
X120837184Y-49747619D01*
X120828157Y-49702235D01*
X120687809Y-49492191D01*
X120477765Y-49351843D01*
X120230000Y-49302560D01*
X118530000Y-49302560D01*
X118282235Y-49351843D01*
X118072191Y-49492191D01*
X117931843Y-49702235D01*
X117882560Y-49950000D01*
X117882560Y-51650000D01*
X117931843Y-51897765D01*
X118072191Y-52107809D01*
X118282235Y-52248157D01*
X118530000Y-52297440D01*
X118595001Y-52297440D01*
X118595000Y-54724195D01*
X118586564Y-54725873D01*
X118295414Y-54920414D01*
X118100873Y-55211564D01*
X118032560Y-55554999D01*
X118032560Y-56205001D01*
X118100873Y-56548436D01*
X118295414Y-56839586D01*
X118296597Y-56840377D01*
X118141673Y-56995302D01*
X118045000Y-57228691D01*
X118045000Y-57644250D01*
X118203750Y-57803000D01*
X119253000Y-57803000D01*
X119253000Y-57783000D01*
X119507000Y-57783000D01*
X119507000Y-57803000D01*
X120556250Y-57803000D01*
X120715000Y-57644250D01*
X120715000Y-57228691D01*
X120618327Y-56995302D01*
X120463403Y-56840377D01*
X120464586Y-56839586D01*
X120659127Y-56548436D01*
X120727440Y-56205001D01*
X120727440Y-55554999D01*
X120659127Y-55211564D01*
X120464586Y-54920414D01*
X120173436Y-54725873D01*
X120165000Y-54724195D01*
X120165000Y-52297440D01*
X120230000Y-52297440D01*
X120477765Y-52248157D01*
X120687809Y-52107809D01*
X120828157Y-51897765D01*
X120837184Y-51852381D01*
X120849375Y-51870625D01*
X121340582Y-52198839D01*
X121773744Y-52285000D01*
X122066256Y-52285000D01*
X122138960Y-52270538D01*
X122305000Y-52436579D01*
X122305001Y-68348422D01*
X117527425Y-63570847D01*
X117478049Y-63496951D01*
X117185310Y-63301348D01*
X116927165Y-63250000D01*
X116927161Y-63250000D01*
X116840000Y-63232663D01*
X116752839Y-63250000D01*
X112126579Y-63250000D01*
X109403477Y-60526898D01*
X109407958Y-60525042D01*
X109685042Y-60247958D01*
X109835000Y-59885929D01*
X109835000Y-59494071D01*
X109688338Y-59140000D01*
X110204250Y-59140000D01*
X110363000Y-58981250D01*
X110363000Y-58057000D01*
X110617000Y-58057000D01*
X110617000Y-58981250D01*
X110775750Y-59140000D01*
X111316310Y-59140000D01*
X111549699Y-59043327D01*
X111728327Y-58864698D01*
X111760000Y-58788233D01*
X111791673Y-58864698D01*
X111970301Y-59043327D01*
X112203690Y-59140000D01*
X112744250Y-59140000D01*
X112903000Y-58981250D01*
X112903000Y-58057000D01*
X113157000Y-58057000D01*
X113157000Y-58981250D01*
X113315750Y-59140000D01*
X113856310Y-59140000D01*
X114089699Y-59043327D01*
X114268327Y-58864698D01*
X114365000Y-58631309D01*
X114365000Y-58215750D01*
X118045000Y-58215750D01*
X118045000Y-58631309D01*
X118141673Y-58864698D01*
X118320301Y-59043327D01*
X118553690Y-59140000D01*
X119094250Y-59140000D01*
X119253000Y-58981250D01*
X119253000Y-58057000D01*
X119507000Y-58057000D01*
X119507000Y-58981250D01*
X119665750Y-59140000D01*
X120206310Y-59140000D01*
X120439699Y-59043327D01*
X120618327Y-58864698D01*
X120715000Y-58631309D01*
X120715000Y-58215750D01*
X120556250Y-58057000D01*
X119507000Y-58057000D01*
X119253000Y-58057000D01*
X118203750Y-58057000D01*
X118045000Y-58215750D01*
X114365000Y-58215750D01*
X114206250Y-58057000D01*
X113157000Y-58057000D01*
X112903000Y-58057000D01*
X111853750Y-58057000D01*
X111760000Y-58150750D01*
X111666250Y-58057000D01*
X110617000Y-58057000D01*
X110363000Y-58057000D01*
X110343000Y-58057000D01*
X110343000Y-57803000D01*
X110363000Y-57803000D01*
X110363000Y-57783000D01*
X110617000Y-57783000D01*
X110617000Y-57803000D01*
X111666250Y-57803000D01*
X111760000Y-57709250D01*
X111853750Y-57803000D01*
X112903000Y-57803000D01*
X112903000Y-57783000D01*
X113157000Y-57783000D01*
X113157000Y-57803000D01*
X114206250Y-57803000D01*
X114365000Y-57644250D01*
X114365000Y-57228691D01*
X114268327Y-56995302D01*
X114113403Y-56840377D01*
X114114586Y-56839586D01*
X114309127Y-56548436D01*
X114377440Y-56205001D01*
X114377440Y-55554999D01*
X114309127Y-55211564D01*
X114114586Y-54920414D01*
X113823436Y-54725873D01*
X113480001Y-54657560D01*
X112579999Y-54657560D01*
X112236564Y-54725873D01*
X111945414Y-54920414D01*
X111828759Y-55095000D01*
X111691241Y-55095000D01*
X111574586Y-54920414D01*
X111283436Y-54725873D01*
X111275000Y-54724195D01*
X111275000Y-52061474D01*
X111560625Y-51870625D01*
X111751474Y-51585000D01*
X112220446Y-51585000D01*
X112278914Y-51726153D01*
X112738847Y-52186086D01*
X113339778Y-52435000D01*
X113990222Y-52435000D01*
X114591153Y-52186086D01*
X115051086Y-51726153D01*
X115300000Y-51125222D01*
X115300000Y-50474778D01*
X115051086Y-49873847D01*
X114591153Y-49413914D01*
X113990222Y-49165000D01*
X113339778Y-49165000D01*
X112738847Y-49413914D01*
X112278914Y-49873847D01*
X112220446Y-50015000D01*
X111751474Y-50015000D01*
X111560625Y-49729375D01*
X111069418Y-49401161D01*
X110636256Y-49315000D01*
X110343744Y-49315000D01*
X109910582Y-49401161D01*
X109419375Y-49729375D01*
X109220000Y-50027761D01*
X109020625Y-49729375D01*
X108529418Y-49401161D01*
X108096256Y-49315000D01*
X107803744Y-49315000D01*
X107370582Y-49401161D01*
X106879375Y-49729375D01*
X106867184Y-49747619D01*
X106858157Y-49702235D01*
X106717809Y-49492191D01*
X106507765Y-49351843D01*
X106260000Y-49302560D01*
X104560000Y-49302560D01*
X104312235Y-49351843D01*
X104102191Y-49492191D01*
X103961843Y-49702235D01*
X103912560Y-49950000D01*
X103912560Y-51650000D01*
X103961843Y-51897765D01*
X104102191Y-52107809D01*
X104312235Y-52248157D01*
X104560000Y-52297440D01*
X104625000Y-52297440D01*
X104625001Y-54724195D01*
X104616564Y-54725873D01*
X104325414Y-54920414D01*
X104130873Y-55211564D01*
X104062560Y-55554999D01*
X104062560Y-56205001D01*
X104130873Y-56548436D01*
X104325414Y-56839586D01*
X104326597Y-56840377D01*
X104171673Y-56995302D01*
X104075000Y-57228691D01*
X104075000Y-57644250D01*
X104233750Y-57803000D01*
X105283000Y-57803000D01*
X105283000Y-57783000D01*
X105537000Y-57783000D01*
X105537000Y-57803000D01*
X106586250Y-57803000D01*
X106745000Y-57644250D01*
X106745000Y-57228691D01*
X106648327Y-56995302D01*
X106493403Y-56840377D01*
X106494586Y-56839586D01*
X106689127Y-56548436D01*
X106757440Y-56205001D01*
X106757440Y-55554999D01*
X106689127Y-55211564D01*
X106494586Y-54920414D01*
X106203436Y-54725873D01*
X106195000Y-54724195D01*
X106195000Y-52297440D01*
X106260000Y-52297440D01*
X106507765Y-52248157D01*
X106717809Y-52107809D01*
X106858157Y-51897765D01*
X106867184Y-51852381D01*
X106879375Y-51870625D01*
X107065000Y-51994656D01*
X107065001Y-60237835D01*
X107047663Y-60325000D01*
X107116348Y-60670309D01*
X107262576Y-60889154D01*
X107262578Y-60889156D01*
X107311952Y-60963049D01*
X107385845Y-61012423D01*
X108964431Y-62591009D01*
X108780929Y-62515000D01*
X108389071Y-62515000D01*
X108027042Y-62664958D01*
X107977000Y-62715000D01*
X99772310Y-62715000D01*
X99694999Y-62699622D01*
X99617688Y-62715000D01*
X99617684Y-62715000D01*
X99388708Y-62760546D01*
X99269625Y-62840115D01*
X99194591Y-62890251D01*
X99194589Y-62890253D01*
X99129047Y-62934047D01*
X99085253Y-62999589D01*
X86264979Y-75819864D01*
X86264979Y-67245178D01*
X95185000Y-58325158D01*
X95185000Y-58631309D01*
X95281673Y-58864698D01*
X95460301Y-59043327D01*
X95693690Y-59140000D01*
X96234250Y-59140000D01*
X96393000Y-58981250D01*
X96393000Y-58057000D01*
X96647000Y-58057000D01*
X96647000Y-58981250D01*
X96805750Y-59140000D01*
X97346310Y-59140000D01*
X97579699Y-59043327D01*
X97758327Y-58864698D01*
X97790000Y-58788233D01*
X97821673Y-58864698D01*
X98000301Y-59043327D01*
X98233690Y-59140000D01*
X98774250Y-59140000D01*
X98933000Y-58981250D01*
X98933000Y-58057000D01*
X99187000Y-58057000D01*
X99187000Y-58981250D01*
X99345750Y-59140000D01*
X99886310Y-59140000D01*
X100119699Y-59043327D01*
X100298327Y-58864698D01*
X100395000Y-58631309D01*
X100395000Y-58215750D01*
X104075000Y-58215750D01*
X104075000Y-58631309D01*
X104171673Y-58864698D01*
X104350301Y-59043327D01*
X104583690Y-59140000D01*
X105124250Y-59140000D01*
X105283000Y-58981250D01*
X105283000Y-58057000D01*
X105537000Y-58057000D01*
X105537000Y-58981250D01*
X105695750Y-59140000D01*
X106236310Y-59140000D01*
X106469699Y-59043327D01*
X106648327Y-58864698D01*
X106745000Y-58631309D01*
X106745000Y-58215750D01*
X106586250Y-58057000D01*
X105537000Y-58057000D01*
X105283000Y-58057000D01*
X104233750Y-58057000D01*
X104075000Y-58215750D01*
X100395000Y-58215750D01*
X100236250Y-58057000D01*
X99187000Y-58057000D01*
X98933000Y-58057000D01*
X97883750Y-58057000D01*
X97790000Y-58150750D01*
X97696250Y-58057000D01*
X96647000Y-58057000D01*
X96393000Y-58057000D01*
X96373000Y-58057000D01*
X96373000Y-57803000D01*
X96393000Y-57803000D01*
X96393000Y-57783000D01*
X96647000Y-57783000D01*
X96647000Y-57803000D01*
X97696250Y-57803000D01*
X97790000Y-57709250D01*
X97883750Y-57803000D01*
X98933000Y-57803000D01*
X98933000Y-57783000D01*
X99187000Y-57783000D01*
X99187000Y-57803000D01*
X100236250Y-57803000D01*
X100395000Y-57644250D01*
X100395000Y-57228691D01*
X100298327Y-56995302D01*
X100143403Y-56840377D01*
X100144586Y-56839586D01*
X100339127Y-56548436D01*
X100407440Y-56205001D01*
X100407440Y-55554999D01*
X100339127Y-55211564D01*
X100144586Y-54920414D01*
X99853436Y-54725873D01*
X99510001Y-54657560D01*
X98609999Y-54657560D01*
X98266564Y-54725873D01*
X97975414Y-54920414D01*
X97858759Y-55095000D01*
X97721241Y-55095000D01*
X97604586Y-54920414D01*
X97313436Y-54725873D01*
X97305000Y-54724195D01*
X97305000Y-52061474D01*
X97590625Y-51870625D01*
X97781474Y-51585000D01*
X98250446Y-51585000D01*
X98308914Y-51726153D01*
X98768847Y-52186086D01*
X99369778Y-52435000D01*
X100020222Y-52435000D01*
X100621153Y-52186086D01*
X101081086Y-51726153D01*
X101330000Y-51125222D01*
X101330000Y-50474778D01*
X101081086Y-49873847D01*
X100621153Y-49413914D01*
X100020222Y-49165000D01*
X99369778Y-49165000D01*
X98768847Y-49413914D01*
X98308914Y-49873847D01*
X98250446Y-50015000D01*
X97781474Y-50015000D01*
X97590625Y-49729375D01*
X97099418Y-49401161D01*
X96666256Y-49315000D01*
X96373744Y-49315000D01*
X95940582Y-49401161D01*
X95449375Y-49729375D01*
X95250000Y-50027761D01*
X95050625Y-49729375D01*
X94559418Y-49401161D01*
X94126256Y-49315000D01*
X93833744Y-49315000D01*
X93400582Y-49401161D01*
X92909375Y-49729375D01*
X92897184Y-49747619D01*
X92888157Y-49702235D01*
X92747809Y-49492191D01*
X92537765Y-49351843D01*
X92290000Y-49302560D01*
X90590000Y-49302560D01*
X90342235Y-49351843D01*
X90132191Y-49492191D01*
X89991843Y-49702235D01*
X89942560Y-49950000D01*
X89942560Y-51650000D01*
X89991843Y-51897765D01*
X90132191Y-52107809D01*
X90342235Y-52248157D01*
X90590000Y-52297440D01*
X90655001Y-52297440D01*
X90655000Y-54724195D01*
X90646564Y-54725873D01*
X90355414Y-54920414D01*
X90160873Y-55211564D01*
X90092560Y-55554999D01*
X90092560Y-56205001D01*
X90160873Y-56548436D01*
X90355414Y-56839586D01*
X90356597Y-56840377D01*
X90201673Y-56995302D01*
X90105000Y-57228691D01*
X90105000Y-57644250D01*
X90263750Y-57803000D01*
X91313000Y-57803000D01*
X91313000Y-57783000D01*
X91567000Y-57783000D01*
X91567000Y-57803000D01*
X92616250Y-57803000D01*
X92775000Y-57644250D01*
X92775000Y-57228691D01*
X92678327Y-56995302D01*
X92523403Y-56840377D01*
X92524586Y-56839586D01*
X92719127Y-56548436D01*
X92787440Y-56205001D01*
X92787440Y-55554999D01*
X92719127Y-55211564D01*
X92524586Y-54920414D01*
X92233436Y-54725873D01*
X92225000Y-54724195D01*
X92225000Y-52297440D01*
X92290000Y-52297440D01*
X92537765Y-52248157D01*
X92747809Y-52107809D01*
X92888157Y-51897765D01*
X92897184Y-51852381D01*
X92909375Y-51870625D01*
X93400582Y-52198839D01*
X93833744Y-52285000D01*
X94126256Y-52285000D01*
X94559418Y-52198839D01*
X95050625Y-51870625D01*
X95250000Y-51572239D01*
X95449375Y-51870625D01*
X95735001Y-52061474D01*
X95735000Y-54724195D01*
X95726564Y-54725873D01*
X95435414Y-54920414D01*
X95240873Y-55211564D01*
X95172560Y-55554999D01*
X95172560Y-56117282D01*
X92775000Y-58514842D01*
X92775000Y-58215750D01*
X92616250Y-58057000D01*
X91567000Y-58057000D01*
X91567000Y-58981250D01*
X91725750Y-59140000D01*
X92149842Y-59140000D01*
X84979569Y-66310274D01*
X84914027Y-66354068D01*
X84870233Y-66419610D01*
X84870230Y-66419613D01*
X84740525Y-66613730D01*
X84679601Y-66920021D01*
X79450000Y-66920021D01*
X79450000Y-58215750D01*
X90105000Y-58215750D01*
X90105000Y-58631309D01*
X90201673Y-58864698D01*
X90380301Y-59043327D01*
X90613690Y-59140000D01*
X91154250Y-59140000D01*
X91313000Y-58981250D01*
X91313000Y-58057000D01*
X90263750Y-58057000D01*
X90105000Y-58215750D01*
X79450000Y-58215750D01*
X79450000Y-51875866D01*
X79765000Y-51875866D01*
X79765000Y-52924134D01*
X80166155Y-53892608D01*
X80907392Y-54633845D01*
X81875866Y-55035000D01*
X82924134Y-55035000D01*
X83892608Y-54633845D01*
X84633845Y-53892608D01*
X85035000Y-52924134D01*
X85035000Y-51875866D01*
X84633845Y-50907392D01*
X83892608Y-50166155D01*
X82924134Y-49765000D01*
X81875866Y-49765000D01*
X80907392Y-50166155D01*
X80166155Y-50907392D01*
X79765000Y-51875866D01*
X79450000Y-51875866D01*
X79450000Y-48970000D01*
X136450000Y-48970000D01*
X136450001Y-126290000D01*
X136450001Y-126290000D01*
G37*
X136450001Y-126290000D02*
X79450000Y-126290000D01*
X79450000Y-122275866D01*
X79765000Y-122275866D01*
X79765000Y-123324134D01*
X80166155Y-124292608D01*
X80907392Y-125033845D01*
X81875866Y-125435000D01*
X82924134Y-125435000D01*
X83892608Y-125033845D01*
X84633845Y-124292608D01*
X84916590Y-123610000D01*
X88672560Y-123610000D01*
X88672560Y-125310000D01*
X88721843Y-125557765D01*
X88862191Y-125767809D01*
X89072235Y-125908157D01*
X89320000Y-125957440D01*
X91020000Y-125957440D01*
X91267765Y-125908157D01*
X91477809Y-125767809D01*
X91618157Y-125557765D01*
X91627184Y-125512381D01*
X91639375Y-125530625D01*
X92130582Y-125858839D01*
X92563744Y-125945000D01*
X92856256Y-125945000D01*
X93289418Y-125858839D01*
X93780625Y-125530625D01*
X93980000Y-125232239D01*
X94179375Y-125530625D01*
X94670582Y-125858839D01*
X95103744Y-125945000D01*
X95396256Y-125945000D01*
X95829418Y-125858839D01*
X96320625Y-125530625D01*
X96648839Y-125039418D01*
X96764092Y-124460000D01*
X96648839Y-123880582D01*
X96468042Y-123610000D01*
X119152560Y-123610000D01*
X119152560Y-125310000D01*
X119201843Y-125557765D01*
X119342191Y-125767809D01*
X119552235Y-125908157D01*
X119800000Y-125957440D01*
X121500000Y-125957440D01*
X121747765Y-125908157D01*
X121957809Y-125767809D01*
X122098157Y-125557765D01*
X122107184Y-125512381D01*
X122119375Y-125530625D01*
X122610582Y-125858839D01*
X123043744Y-125945000D01*
X123336256Y-125945000D01*
X123769418Y-125858839D01*
X124260625Y-125530625D01*
X124460000Y-125232239D01*
X124659375Y-125530625D01*
X125150582Y-125858839D01*
X125583744Y-125945000D01*
X125876256Y-125945000D01*
X126309418Y-125858839D01*
X126800625Y-125530625D01*
X127128839Y-125039418D01*
X127244092Y-124460000D01*
X127128839Y-123880582D01*
X126800625Y-123389375D01*
X126515000Y-123198526D01*
X126515000Y-122729554D01*
X126656153Y-122671086D01*
X127051373Y-122275866D01*
X130865000Y-122275866D01*
X130865000Y-123324134D01*
X131266155Y-124292608D01*
X132007392Y-125033845D01*
X132975866Y-125435000D01*
X134024134Y-125435000D01*
X134992608Y-125033845D01*
X135733845Y-124292608D01*
X136135000Y-123324134D01*
X136135000Y-122275866D01*
X135733845Y-121307392D01*
X134992608Y-120566155D01*
X134024134Y-120165000D01*
X132975866Y-120165000D01*
X132007392Y-120566155D01*
X131266155Y-121307392D01*
X130865000Y-122275866D01*
X127051373Y-122275866D01*
X127116086Y-122211153D01*
X127365000Y-121610222D01*
X127365000Y-120959778D01*
X127116086Y-120358847D01*
X126656153Y-119898914D01*
X126055222Y-119650000D01*
X125404778Y-119650000D01*
X124803847Y-119898914D01*
X124343914Y-120358847D01*
X124095000Y-120959778D01*
X124095000Y-121610222D01*
X124343914Y-122211153D01*
X124803847Y-122671086D01*
X124945001Y-122729554D01*
X124945000Y-123198526D01*
X124659375Y-123389375D01*
X124460000Y-123687761D01*
X124260625Y-123389375D01*
X123769418Y-123061161D01*
X123336256Y-122975000D01*
X123043744Y-122975000D01*
X122610582Y-123061161D01*
X122119375Y-123389375D01*
X122107184Y-123407619D01*
X122098157Y-123362235D01*
X121957809Y-123152191D01*
X121747765Y-123011843D01*
X121500000Y-122962560D01*
X121435000Y-122962560D01*
X121435000Y-122585805D01*
X121443436Y-122584127D01*
X121734586Y-122389586D01*
X121929127Y-122098436D01*
X121997440Y-121755001D01*
X121997440Y-121104999D01*
X121929127Y-120761564D01*
X121734586Y-120470414D01*
X121733403Y-120469623D01*
X121888327Y-120314698D01*
X121985000Y-120081309D01*
X121985000Y-119665750D01*
X121826250Y-119507000D01*
X120777000Y-119507000D01*
X120777000Y-119527000D01*
X120523000Y-119527000D01*
X120523000Y-119507000D01*
X119473750Y-119507000D01*
X119315000Y-119665750D01*
X119315000Y-120081309D01*
X119411673Y-120314698D01*
X119566597Y-120469623D01*
X119565414Y-120470414D01*
X119370873Y-120761564D01*
X119302560Y-121104999D01*
X119302560Y-121755001D01*
X119370873Y-122098436D01*
X119565414Y-122389586D01*
X119856564Y-122584127D01*
X119865001Y-122585805D01*
X119865000Y-122962560D01*
X119800000Y-122962560D01*
X119552235Y-123011843D01*
X119342191Y-123152191D01*
X119201843Y-123362235D01*
X119152560Y-123610000D01*
X96468042Y-123610000D01*
X96320625Y-123389375D01*
X96035000Y-123198526D01*
X96035000Y-122729554D01*
X96176153Y-122671086D01*
X96636086Y-122211153D01*
X96885000Y-121610222D01*
X96885000Y-121089071D01*
X105060000Y-121089071D01*
X105060000Y-121480929D01*
X105209958Y-121842958D01*
X105487042Y-122120042D01*
X105849071Y-122270000D01*
X106240929Y-122270000D01*
X106602958Y-122120042D01*
X106653000Y-122070000D01*
X110517000Y-122070000D01*
X110567042Y-122120042D01*
X110929071Y-122270000D01*
X111320929Y-122270000D01*
X111682958Y-122120042D01*
X111960042Y-121842958D01*
X112110000Y-121480929D01*
X112110000Y-121089071D01*
X111960042Y-120727042D01*
X111682958Y-120449958D01*
X111320929Y-120300000D01*
X110929071Y-120300000D01*
X110567042Y-120449958D01*
X110517000Y-120500000D01*
X106653000Y-120500000D01*
X106602958Y-120449958D01*
X106240929Y-120300000D01*
X105849071Y-120300000D01*
X105487042Y-120449958D01*
X105209958Y-120727042D01*
X105060000Y-121089071D01*
X96885000Y-121089071D01*
X96885000Y-120959778D01*
X96636086Y-120358847D01*
X96176153Y-119898914D01*
X95575222Y-119650000D01*
X94924778Y-119650000D01*
X94323847Y-119898914D01*
X93863914Y-120358847D01*
X93615000Y-120959778D01*
X93615000Y-121610222D01*
X93863914Y-122211153D01*
X94323847Y-122671086D01*
X94465000Y-122729554D01*
X94465001Y-123198526D01*
X94179375Y-123389375D01*
X93980000Y-123687761D01*
X93780625Y-123389375D01*
X93289418Y-123061161D01*
X92856256Y-122975000D01*
X92563744Y-122975000D01*
X92130582Y-123061161D01*
X91639375Y-123389375D01*
X91627184Y-123407619D01*
X91618157Y-123362235D01*
X91477809Y-123152191D01*
X91267765Y-123011843D01*
X91020000Y-122962560D01*
X90955000Y-122962560D01*
X90955000Y-122585805D01*
X90963436Y-122584127D01*
X91254586Y-122389586D01*
X91449127Y-122098436D01*
X91517440Y-121755001D01*
X91517440Y-121104999D01*
X91449127Y-120761564D01*
X91254586Y-120470414D01*
X91253403Y-120469623D01*
X91408327Y-120314698D01*
X91505000Y-120081309D01*
X91505000Y-119665750D01*
X91346250Y-119507000D01*
X90297000Y-119507000D01*
X90297000Y-119527000D01*
X90043000Y-119527000D01*
X90043000Y-119507000D01*
X88993750Y-119507000D01*
X88835000Y-119665750D01*
X88835000Y-120081309D01*
X88931673Y-120314698D01*
X89086597Y-120469623D01*
X89085414Y-120470414D01*
X88890873Y-120761564D01*
X88822560Y-121104999D01*
X88822560Y-121755001D01*
X88890873Y-122098436D01*
X89085414Y-122389586D01*
X89376564Y-122584127D01*
X89385001Y-122585805D01*
X89385000Y-122962560D01*
X89320000Y-122962560D01*
X89072235Y-123011843D01*
X88862191Y-123152191D01*
X88721843Y-123362235D01*
X88672560Y-123610000D01*
X84916590Y-123610000D01*
X85035000Y-123324134D01*
X85035000Y-122275866D01*
X84633845Y-121307392D01*
X83892608Y-120566155D01*
X82924134Y-120165000D01*
X81875866Y-120165000D01*
X80907392Y-120566155D01*
X80166155Y-121307392D01*
X79765000Y-122275866D01*
X79450000Y-122275866D01*
X79450000Y-66920021D01*
X84679601Y-66920021D01*
X84694980Y-66997338D01*
X84694979Y-113270753D01*
X84679601Y-113348065D01*
X84694979Y-113425377D01*
X84694979Y-113425380D01*
X84728908Y-113595953D01*
X84740525Y-113654356D01*
X84841561Y-113805566D01*
X84914026Y-113914018D01*
X84979571Y-113957814D01*
X86067185Y-115045428D01*
X86110980Y-115110971D01*
X86176522Y-115154765D01*
X86176525Y-115154768D01*
X86370641Y-115284473D01*
X86676933Y-115345397D01*
X86754250Y-115330018D01*
X95169863Y-115330020D01*
X95244843Y-115405000D01*
X95108667Y-115405000D01*
X94690091Y-115488260D01*
X94215423Y-115805423D01*
X93980000Y-116157758D01*
X93744577Y-115805423D01*
X93269909Y-115488260D01*
X92851333Y-115405000D01*
X92568667Y-115405000D01*
X92150091Y-115488260D01*
X91675423Y-115805423D01*
X91440000Y-116157758D01*
X91204577Y-115805423D01*
X90729909Y-115488260D01*
X90311333Y-115405000D01*
X90028667Y-115405000D01*
X89610091Y-115488260D01*
X89135423Y-115805423D01*
X88818260Y-116280091D01*
X88706887Y-116840000D01*
X88818260Y-117399909D01*
X89135423Y-117874577D01*
X89577555Y-118170000D01*
X89343690Y-118170000D01*
X89110301Y-118266673D01*
X88931673Y-118445302D01*
X88835000Y-118678691D01*
X88835000Y-119094250D01*
X88993750Y-119253000D01*
X90043000Y-119253000D01*
X90043000Y-119233000D01*
X90297000Y-119233000D01*
X90297000Y-119253000D01*
X91346250Y-119253000D01*
X91505000Y-119094250D01*
X91505000Y-118678691D01*
X91408327Y-118445302D01*
X91229699Y-118266673D01*
X90996310Y-118170000D01*
X90762445Y-118170000D01*
X91204577Y-117874577D01*
X91440000Y-117522242D01*
X91675423Y-117874577D01*
X92150091Y-118191740D01*
X92568667Y-118275000D01*
X92851333Y-118275000D01*
X93269909Y-118191740D01*
X93744577Y-117874577D01*
X93980000Y-117522242D01*
X94215423Y-117874577D01*
X94690091Y-118191740D01*
X95108667Y-118275000D01*
X95391333Y-118275000D01*
X95809909Y-118191740D01*
X96284577Y-117874577D01*
X96520000Y-117522242D01*
X96755423Y-117874577D01*
X97230091Y-118191740D01*
X97648667Y-118275000D01*
X97931333Y-118275000D01*
X98349909Y-118191740D01*
X98824577Y-117874577D01*
X99060000Y-117522242D01*
X99295423Y-117874577D01*
X99770091Y-118191740D01*
X100188667Y-118275000D01*
X100471333Y-118275000D01*
X100889909Y-118191740D01*
X101364577Y-117874577D01*
X101600000Y-117522242D01*
X101835423Y-117874577D01*
X102310091Y-118191740D01*
X102728667Y-118275000D01*
X103011333Y-118275000D01*
X103429909Y-118191740D01*
X103904577Y-117874577D01*
X104140000Y-117522242D01*
X104375423Y-117874577D01*
X104850091Y-118191740D01*
X105268667Y-118275000D01*
X105551333Y-118275000D01*
X105969909Y-118191740D01*
X106444577Y-117874577D01*
X106680000Y-117522242D01*
X106915423Y-117874577D01*
X107390091Y-118191740D01*
X107808667Y-118275000D01*
X108091333Y-118275000D01*
X108509909Y-118191740D01*
X108984577Y-117874577D01*
X109220000Y-117522242D01*
X109455423Y-117874577D01*
X109930091Y-118191740D01*
X110348667Y-118275000D01*
X110631333Y-118275000D01*
X111049909Y-118191740D01*
X111524577Y-117874577D01*
X111760000Y-117522242D01*
X111995423Y-117874577D01*
X112470091Y-118191740D01*
X112888667Y-118275000D01*
X113171333Y-118275000D01*
X113589909Y-118191740D01*
X114064577Y-117874577D01*
X114300000Y-117522242D01*
X114535423Y-117874577D01*
X115010091Y-118191740D01*
X115428667Y-118275000D01*
X115711333Y-118275000D01*
X116129909Y-118191740D01*
X116604577Y-117874577D01*
X116840000Y-117522242D01*
X117075423Y-117874577D01*
X117550091Y-118191740D01*
X117968667Y-118275000D01*
X118251333Y-118275000D01*
X118669909Y-118191740D01*
X119144577Y-117874577D01*
X119380000Y-117522242D01*
X119615423Y-117874577D01*
X120057555Y-118170000D01*
X119823690Y-118170000D01*
X119590301Y-118266673D01*
X119411673Y-118445302D01*
X119315000Y-118678691D01*
X119315000Y-119094250D01*
X119473750Y-119253000D01*
X120523000Y-119253000D01*
X120523000Y-119233000D01*
X120777000Y-119233000D01*
X120777000Y-119253000D01*
X121826250Y-119253000D01*
X121985000Y-119094250D01*
X121985000Y-118678691D01*
X121888327Y-118445302D01*
X121709699Y-118266673D01*
X121476310Y-118170000D01*
X121242445Y-118170000D01*
X121684577Y-117874577D01*
X121940947Y-117490892D01*
X122037611Y-117695134D01*
X122452577Y-118071041D01*
X122840961Y-118231904D01*
X123063000Y-118109915D01*
X123063000Y-116967000D01*
X123043000Y-116967000D01*
X123043000Y-116713000D01*
X123063000Y-116713000D01*
X123063000Y-115570085D01*
X122840961Y-115448096D01*
X122452577Y-115608959D01*
X122037611Y-115984866D01*
X121940947Y-116189108D01*
X121684577Y-115805423D01*
X121209909Y-115488260D01*
X120791333Y-115405000D01*
X120508667Y-115405000D01*
X120090091Y-115488260D01*
X119615423Y-115805423D01*
X119380000Y-116157758D01*
X119144577Y-115805423D01*
X118669909Y-115488260D01*
X118251333Y-115405000D01*
X117968667Y-115405000D01*
X117550091Y-115488260D01*
X117075423Y-115805423D01*
X116840000Y-116157758D01*
X116604577Y-115805423D01*
X116355000Y-115638661D01*
X116355000Y-115210805D01*
X116363436Y-115209127D01*
X116654586Y-115014586D01*
X116771241Y-114840000D01*
X116908759Y-114840000D01*
X117025414Y-115014586D01*
X117316564Y-115209127D01*
X117659999Y-115277440D01*
X118560001Y-115277440D01*
X118903436Y-115209127D01*
X119194586Y-115014586D01*
X119389127Y-114723436D01*
X119457440Y-114380001D01*
X119457440Y-113950750D01*
X121980000Y-113950750D01*
X121980000Y-114491310D01*
X122076673Y-114724699D01*
X122255302Y-114903327D01*
X122488691Y-115000000D01*
X122904250Y-115000000D01*
X123063000Y-114841250D01*
X123063000Y-113792000D01*
X122138750Y-113792000D01*
X121980000Y-113950750D01*
X119457440Y-113950750D01*
X119457440Y-113729999D01*
X119389127Y-113386564D01*
X119194586Y-113095414D01*
X119193403Y-113094623D01*
X119348327Y-112939698D01*
X119390165Y-112838690D01*
X121980000Y-112838690D01*
X121980000Y-113379250D01*
X122138750Y-113538000D01*
X123063000Y-113538000D01*
X123063000Y-112488750D01*
X123317000Y-112488750D01*
X123317000Y-113538000D01*
X123337000Y-113538000D01*
X123337000Y-113792000D01*
X123317000Y-113792000D01*
X123317000Y-114841250D01*
X123475750Y-115000000D01*
X123891309Y-115000000D01*
X124124698Y-114903327D01*
X124279623Y-114748403D01*
X124280414Y-114749586D01*
X124355000Y-114799423D01*
X124355001Y-116011514D01*
X124342389Y-115984866D01*
X123927423Y-115608959D01*
X123539039Y-115448096D01*
X123317000Y-115570085D01*
X123317000Y-116713000D01*
X123337000Y-116713000D01*
X123337000Y-116967000D01*
X123317000Y-116967000D01*
X123317000Y-118109915D01*
X123539039Y-118231904D01*
X123927423Y-118071041D01*
X124342389Y-117695134D01*
X124439053Y-117490892D01*
X124695423Y-117874577D01*
X125170091Y-118191740D01*
X125588667Y-118275000D01*
X125871333Y-118275000D01*
X126289909Y-118191740D01*
X126764577Y-117874577D01*
X127081740Y-117399909D01*
X127193113Y-116840000D01*
X127081740Y-116280091D01*
X126764577Y-115805423D01*
X126289909Y-115488260D01*
X126125000Y-115455458D01*
X126125000Y-114799423D01*
X126199586Y-114749586D01*
X126394127Y-114458436D01*
X126462440Y-114115001D01*
X126462440Y-113214999D01*
X126394127Y-112871564D01*
X126199586Y-112580414D01*
X125908436Y-112385873D01*
X125565001Y-112317560D01*
X124914999Y-112317560D01*
X124571564Y-112385873D01*
X124280414Y-112580414D01*
X124279623Y-112581597D01*
X124124698Y-112426673D01*
X123891309Y-112330000D01*
X123475750Y-112330000D01*
X123317000Y-112488750D01*
X123063000Y-112488750D01*
X122904250Y-112330000D01*
X122488691Y-112330000D01*
X122255302Y-112426673D01*
X122076673Y-112605301D01*
X121980000Y-112838690D01*
X119390165Y-112838690D01*
X119445000Y-112706309D01*
X119445000Y-112290750D01*
X119286250Y-112132000D01*
X118237000Y-112132000D01*
X118237000Y-112152000D01*
X117983000Y-112152000D01*
X117983000Y-112132000D01*
X116933750Y-112132000D01*
X116840000Y-112225750D01*
X116746250Y-112132000D01*
X115697000Y-112132000D01*
X115697000Y-112152000D01*
X115443000Y-112152000D01*
X115443000Y-112132000D01*
X114393750Y-112132000D01*
X114300000Y-112225750D01*
X114206250Y-112132000D01*
X113157000Y-112132000D01*
X113157000Y-112152000D01*
X112903000Y-112152000D01*
X112903000Y-112132000D01*
X111853750Y-112132000D01*
X111760000Y-112225750D01*
X111666250Y-112132000D01*
X110617000Y-112132000D01*
X110617000Y-112152000D01*
X110363000Y-112152000D01*
X110363000Y-112132000D01*
X110343000Y-112132000D01*
X110343000Y-111878000D01*
X110363000Y-111878000D01*
X110363000Y-110953750D01*
X110617000Y-110953750D01*
X110617000Y-111878000D01*
X111666250Y-111878000D01*
X111760000Y-111784250D01*
X111853750Y-111878000D01*
X112903000Y-111878000D01*
X112903000Y-110953750D01*
X113157000Y-110953750D01*
X113157000Y-111878000D01*
X114206250Y-111878000D01*
X114300000Y-111784250D01*
X114393750Y-111878000D01*
X115443000Y-111878000D01*
X115443000Y-110953750D01*
X115697000Y-110953750D01*
X115697000Y-111878000D01*
X116746250Y-111878000D01*
X116840000Y-111784250D01*
X116933750Y-111878000D01*
X117983000Y-111878000D01*
X117983000Y-110953750D01*
X118237000Y-110953750D01*
X118237000Y-111878000D01*
X119286250Y-111878000D01*
X119445000Y-111719250D01*
X119445000Y-111303691D01*
X119348327Y-111070302D01*
X119169699Y-110891673D01*
X118936310Y-110795000D01*
X118395750Y-110795000D01*
X118237000Y-110953750D01*
X117983000Y-110953750D01*
X117824250Y-110795000D01*
X117283690Y-110795000D01*
X117050301Y-110891673D01*
X116871673Y-111070302D01*
X116840000Y-111146767D01*
X116808327Y-111070302D01*
X116629699Y-110891673D01*
X116396310Y-110795000D01*
X115855750Y-110795000D01*
X115697000Y-110953750D01*
X115443000Y-110953750D01*
X115284250Y-110795000D01*
X114743690Y-110795000D01*
X114510301Y-110891673D01*
X114331673Y-111070302D01*
X114300000Y-111146767D01*
X114268327Y-111070302D01*
X114089699Y-110891673D01*
X113856310Y-110795000D01*
X113315750Y-110795000D01*
X113157000Y-110953750D01*
X112903000Y-110953750D01*
X112744250Y-110795000D01*
X112203690Y-110795000D01*
X111970301Y-110891673D01*
X111791673Y-111070302D01*
X111760000Y-111146767D01*
X111728327Y-111070302D01*
X111549699Y-110891673D01*
X111316310Y-110795000D01*
X110775750Y-110795000D01*
X110617000Y-110953750D01*
X110363000Y-110953750D01*
X110204250Y-110795000D01*
X110005000Y-110795000D01*
X110005000Y-102966640D01*
X110348667Y-103035000D01*
X110631333Y-103035000D01*
X111049909Y-102951740D01*
X111524577Y-102634577D01*
X111760000Y-102282242D01*
X111995423Y-102634577D01*
X112470091Y-102951740D01*
X112888667Y-103035000D01*
X113171333Y-103035000D01*
X113589909Y-102951740D01*
X114064577Y-102634577D01*
X114300000Y-102282242D01*
X114535423Y-102634577D01*
X115010091Y-102951740D01*
X115428667Y-103035000D01*
X115711333Y-103035000D01*
X116129909Y-102951740D01*
X116604577Y-102634577D01*
X116860947Y-102250892D01*
X116957611Y-102455134D01*
X117372577Y-102831041D01*
X117760961Y-102991904D01*
X117983000Y-102869915D01*
X117983000Y-101727000D01*
X117963000Y-101727000D01*
X117963000Y-101473000D01*
X117983000Y-101473000D01*
X117983000Y-100330085D01*
X118237000Y-100330085D01*
X118237000Y-101473000D01*
X118257000Y-101473000D01*
X118257000Y-101727000D01*
X118237000Y-101727000D01*
X118237000Y-102869915D01*
X118459039Y-102991904D01*
X118847423Y-102831041D01*
X119262389Y-102455134D01*
X119359053Y-102250892D01*
X119615423Y-102634577D01*
X120090091Y-102951740D01*
X120508667Y-103035000D01*
X120791333Y-103035000D01*
X121209909Y-102951740D01*
X121684577Y-102634577D01*
X121920000Y-102282242D01*
X122155423Y-102634577D01*
X122630091Y-102951740D01*
X123048667Y-103035000D01*
X123331333Y-103035000D01*
X123749909Y-102951740D01*
X124224577Y-102634577D01*
X124305215Y-102513894D01*
X124331843Y-102647765D01*
X124472191Y-102857809D01*
X124682235Y-102998157D01*
X124930000Y-103047440D01*
X126530000Y-103047440D01*
X126777765Y-102998157D01*
X126987809Y-102857809D01*
X127128157Y-102647765D01*
X127177440Y-102400000D01*
X127177440Y-100800000D01*
X127128157Y-100552235D01*
X126987809Y-100342191D01*
X126777765Y-100201843D01*
X126530000Y-100152560D01*
X124930000Y-100152560D01*
X124682235Y-100201843D01*
X124472191Y-100342191D01*
X124331843Y-100552235D01*
X124305215Y-100686106D01*
X124224577Y-100565423D01*
X123749909Y-100248260D01*
X123331333Y-100165000D01*
X123048667Y-100165000D01*
X122630091Y-100248260D01*
X122155423Y-100565423D01*
X121920000Y-100917758D01*
X121684577Y-100565423D01*
X121209909Y-100248260D01*
X120791333Y-100165000D01*
X120508667Y-100165000D01*
X120090091Y-100248260D01*
X119615423Y-100565423D01*
X119359053Y-100949108D01*
X119262389Y-100744866D01*
X118847423Y-100368959D01*
X118459039Y-100208096D01*
X118237000Y-100330085D01*
X117983000Y-100330085D01*
X117760961Y-100208096D01*
X117372577Y-100368959D01*
X116957611Y-100744866D01*
X116860947Y-100949108D01*
X116604577Y-100565423D01*
X116129909Y-100248260D01*
X115711333Y-100165000D01*
X115428667Y-100165000D01*
X115010091Y-100248260D01*
X114535423Y-100565423D01*
X114300000Y-100917758D01*
X114064577Y-100565423D01*
X113589909Y-100248260D01*
X113175708Y-100165870D01*
X114864156Y-98477423D01*
X114938049Y-98428049D01*
X115133652Y-98135310D01*
X115185000Y-97877165D01*
X115185000Y-97877161D01*
X115202337Y-97790001D01*
X115185000Y-97702841D01*
X115185000Y-96940000D01*
X121692560Y-96940000D01*
X121692560Y-98640000D01*
X121741843Y-98887765D01*
X121882191Y-99097809D01*
X122092235Y-99238157D01*
X122340000Y-99287440D01*
X124040000Y-99287440D01*
X124287765Y-99238157D01*
X124497809Y-99097809D01*
X124638157Y-98887765D01*
X124647184Y-98842381D01*
X124659375Y-98860625D01*
X125150582Y-99188839D01*
X125583744Y-99275000D01*
X125876256Y-99275000D01*
X126309418Y-99188839D01*
X126800625Y-98860625D01*
X127128839Y-98369418D01*
X127244092Y-97790000D01*
X127128839Y-97210582D01*
X126800625Y-96719375D01*
X126309418Y-96391161D01*
X125876256Y-96305000D01*
X125583744Y-96305000D01*
X125150582Y-96391161D01*
X124659375Y-96719375D01*
X124647184Y-96737619D01*
X124638157Y-96692235D01*
X124497809Y-96482191D01*
X124287765Y-96341843D01*
X124040000Y-96292560D01*
X122340000Y-96292560D01*
X122092235Y-96341843D01*
X121882191Y-96482191D01*
X121741843Y-96692235D01*
X121692560Y-96940000D01*
X115185000Y-96940000D01*
X115185000Y-89185750D01*
X129325000Y-89185750D01*
X129325000Y-89876310D01*
X129421673Y-90109699D01*
X129600302Y-90288327D01*
X129833691Y-90385000D01*
X130524250Y-90385000D01*
X130683000Y-90226250D01*
X130683000Y-89027000D01*
X130937000Y-89027000D01*
X130937000Y-90226250D01*
X131095750Y-90385000D01*
X131786309Y-90385000D01*
X132019698Y-90288327D01*
X132198327Y-90109699D01*
X132295000Y-89876310D01*
X132295000Y-89185750D01*
X132136250Y-89027000D01*
X130937000Y-89027000D01*
X130683000Y-89027000D01*
X129483750Y-89027000D01*
X129325000Y-89185750D01*
X115185000Y-89185750D01*
X115185000Y-86830000D01*
X119202560Y-86830000D01*
X119202560Y-88430000D01*
X119251843Y-88677765D01*
X119392191Y-88887809D01*
X119602235Y-89028157D01*
X119850000Y-89077440D01*
X121450000Y-89077440D01*
X121697765Y-89028157D01*
X121907809Y-88887809D01*
X122048157Y-88677765D01*
X122056117Y-88637745D01*
X122321861Y-88637745D01*
X122395995Y-88883864D01*
X122933223Y-89076965D01*
X123503454Y-89049778D01*
X123904005Y-88883864D01*
X123978139Y-88637745D01*
X123150000Y-87809605D01*
X122321861Y-88637745D01*
X122056117Y-88637745D01*
X122094693Y-88443813D01*
X122142255Y-88458139D01*
X122970395Y-87630000D01*
X123329605Y-87630000D01*
X124157745Y-88458139D01*
X124403864Y-88384005D01*
X124569319Y-87923690D01*
X129325000Y-87923690D01*
X129325000Y-88614250D01*
X129483750Y-88773000D01*
X130683000Y-88773000D01*
X130683000Y-87573750D01*
X130937000Y-87573750D01*
X130937000Y-88773000D01*
X132136250Y-88773000D01*
X132295000Y-88614250D01*
X132295000Y-87923690D01*
X132198327Y-87690301D01*
X132019698Y-87511673D01*
X131786309Y-87415000D01*
X131095750Y-87415000D01*
X130937000Y-87573750D01*
X130683000Y-87573750D01*
X130524250Y-87415000D01*
X129833691Y-87415000D01*
X129600302Y-87511673D01*
X129421673Y-87690301D01*
X129325000Y-87923690D01*
X124569319Y-87923690D01*
X124596965Y-87846777D01*
X124569778Y-87276546D01*
X124403864Y-86875995D01*
X124157745Y-86801861D01*
X123329605Y-87630000D01*
X122970395Y-87630000D01*
X122142255Y-86801861D01*
X122094693Y-86816187D01*
X122056118Y-86622255D01*
X122321861Y-86622255D01*
X123150000Y-87450395D01*
X123978139Y-86622255D01*
X123904005Y-86376136D01*
X123366777Y-86183035D01*
X122796546Y-86210222D01*
X122395995Y-86376136D01*
X122321861Y-86622255D01*
X122056118Y-86622255D01*
X122048157Y-86582235D01*
X121907809Y-86372191D01*
X121697765Y-86231843D01*
X121450000Y-86182560D01*
X119850000Y-86182560D01*
X119602235Y-86231843D01*
X119392191Y-86372191D01*
X119251843Y-86582235D01*
X119202560Y-86830000D01*
X115185000Y-86830000D01*
X115185000Y-84806576D01*
X115814686Y-84176890D01*
X129368524Y-84176890D01*
X129538355Y-84586924D01*
X129928642Y-85015183D01*
X130453108Y-85261486D01*
X130683000Y-85140819D01*
X130683000Y-83947000D01*
X130937000Y-83947000D01*
X130937000Y-85140819D01*
X131166892Y-85261486D01*
X131691358Y-85015183D01*
X132081645Y-84586924D01*
X132251476Y-84176890D01*
X132130155Y-83947000D01*
X130937000Y-83947000D01*
X130683000Y-83947000D01*
X129489845Y-83947000D01*
X129368524Y-84176890D01*
X115814686Y-84176890D01*
X118902560Y-81089016D01*
X118902560Y-82380000D01*
X118951843Y-82627765D01*
X119092191Y-82837809D01*
X119302235Y-82978157D01*
X119550000Y-83027440D01*
X121750000Y-83027440D01*
X121997765Y-82978157D01*
X122207809Y-82837809D01*
X122348157Y-82627765D01*
X122397440Y-82380000D01*
X122397440Y-81280000D01*
X126501010Y-81280000D01*
X126635666Y-81956963D01*
X127019135Y-82530865D01*
X127593037Y-82914334D01*
X128099120Y-83015000D01*
X128440880Y-83015000D01*
X128946963Y-82914334D01*
X129481650Y-82557068D01*
X129502191Y-82587809D01*
X129712235Y-82728157D01*
X129815708Y-82748739D01*
X129538355Y-83053076D01*
X129368524Y-83463110D01*
X129489845Y-83693000D01*
X130683000Y-83693000D01*
X130683000Y-83673000D01*
X130937000Y-83673000D01*
X130937000Y-83693000D01*
X132130155Y-83693000D01*
X132251476Y-83463110D01*
X132081645Y-83053076D01*
X131804292Y-82748739D01*
X131907765Y-82728157D01*
X132117809Y-82587809D01*
X132258157Y-82377765D01*
X132307440Y-82130000D01*
X132307440Y-80430000D01*
X132258157Y-80182235D01*
X132117809Y-79972191D01*
X131907765Y-79831843D01*
X131660000Y-79782560D01*
X129960000Y-79782560D01*
X129712235Y-79831843D01*
X129502191Y-79972191D01*
X129481650Y-80002932D01*
X128946963Y-79645666D01*
X128440880Y-79545000D01*
X128099120Y-79545000D01*
X127593037Y-79645666D01*
X127019135Y-80029135D01*
X126635666Y-80603037D01*
X126501010Y-81280000D01*
X122397440Y-81280000D01*
X122397440Y-80180000D01*
X122348157Y-79932235D01*
X122207809Y-79722191D01*
X121997765Y-79581843D01*
X121750000Y-79532560D01*
X120459017Y-79532560D01*
X123754156Y-76237421D01*
X123828049Y-76188047D01*
X124023652Y-75895308D01*
X124075000Y-75637163D01*
X124075000Y-75637159D01*
X124092337Y-75549998D01*
X124075000Y-75462837D01*
X124075000Y-74715000D01*
X129312560Y-74715000D01*
X129312560Y-76415000D01*
X129361843Y-76662765D01*
X129502191Y-76872809D01*
X129712235Y-77013157D01*
X129960000Y-77062440D01*
X131660000Y-77062440D01*
X131907765Y-77013157D01*
X132117809Y-76872809D01*
X132258157Y-76662765D01*
X132307440Y-76415000D01*
X132307440Y-74715000D01*
X132258157Y-74467235D01*
X132117809Y-74257191D01*
X131907765Y-74116843D01*
X131660000Y-74067560D01*
X129960000Y-74067560D01*
X129712235Y-74116843D01*
X129502191Y-74257191D01*
X129361843Y-74467235D01*
X129312560Y-74715000D01*
X124075000Y-74715000D01*
X124075000Y-59140000D01*
X124174250Y-59140000D01*
X124333000Y-58981250D01*
X124333000Y-58057000D01*
X124313000Y-58057000D01*
X124313000Y-57803000D01*
X124333000Y-57803000D01*
X124333000Y-57783000D01*
X124587000Y-57783000D01*
X124587000Y-57803000D01*
X124607000Y-57803000D01*
X124607000Y-58057000D01*
X124587000Y-58057000D01*
X124587000Y-58981250D01*
X124745750Y-59140000D01*
X125064991Y-59140000D01*
X125064990Y-64324852D01*
X124969842Y-64420000D01*
X124899071Y-64420000D01*
X124537042Y-64569958D01*
X124259958Y-64847042D01*
X124110000Y-65209071D01*
X124110000Y-65600929D01*
X124259958Y-65962958D01*
X124537042Y-66240042D01*
X124899071Y-66390000D01*
X125290929Y-66390000D01*
X125652958Y-66240042D01*
X125930042Y-65962958D01*
X126080000Y-65600929D01*
X126080000Y-65530158D01*
X126350401Y-65259757D01*
X126415943Y-65215963D01*
X126459737Y-65150421D01*
X126459739Y-65150419D01*
X126589444Y-64956302D01*
X126616074Y-64822424D01*
X126634990Y-64727326D01*
X126634990Y-64727323D01*
X126650368Y-64650011D01*
X126634990Y-64572699D01*
X126634990Y-59140000D01*
X126714250Y-59140000D01*
X126873000Y-58981250D01*
X126873000Y-58057000D01*
X127127000Y-58057000D01*
X127127000Y-58981250D01*
X127285750Y-59140000D01*
X127826310Y-59140000D01*
X128059699Y-59043327D01*
X128238327Y-58864698D01*
X128335000Y-58631309D01*
X128335000Y-58215750D01*
X128176250Y-58057000D01*
X127127000Y-58057000D01*
X126873000Y-58057000D01*
X126853000Y-58057000D01*
X126853000Y-57803000D01*
X126873000Y-57803000D01*
X126873000Y-57783000D01*
X127127000Y-57783000D01*
X127127000Y-57803000D01*
X128176250Y-57803000D01*
X128335000Y-57644250D01*
X128335000Y-57228691D01*
X128238327Y-56995302D01*
X128083403Y-56840377D01*
X128084586Y-56839586D01*
X128279127Y-56548436D01*
X128347440Y-56205001D01*
X128347440Y-55554999D01*
X128279127Y-55211564D01*
X128084586Y-54920414D01*
X127793436Y-54725873D01*
X127450001Y-54657560D01*
X126549999Y-54657560D01*
X126206564Y-54725873D01*
X125915414Y-54920414D01*
X125798759Y-55095000D01*
X125661241Y-55095000D01*
X125544586Y-54920414D01*
X125253436Y-54725873D01*
X125245000Y-54724195D01*
X125245000Y-52061474D01*
X125530625Y-51870625D01*
X125721474Y-51585000D01*
X126190446Y-51585000D01*
X126248914Y-51726153D01*
X126708847Y-52186086D01*
X127309778Y-52435000D01*
X127960222Y-52435000D01*
X128561153Y-52186086D01*
X128871373Y-51875866D01*
X130865000Y-51875866D01*
X130865000Y-52924134D01*
X131266155Y-53892608D01*
X132007392Y-54633845D01*
X132975866Y-55035000D01*
X134024134Y-55035000D01*
X134992608Y-54633845D01*
X135733845Y-53892608D01*
X136135000Y-52924134D01*
X136135000Y-51875866D01*
X135733845Y-50907392D01*
X134992608Y-50166155D01*
X134024134Y-49765000D01*
X132975866Y-49765000D01*
X132007392Y-50166155D01*
X131266155Y-50907392D01*
X130865000Y-51875866D01*
X128871373Y-51875866D01*
X129021086Y-51726153D01*
X129270000Y-51125222D01*
X129270000Y-50474778D01*
X129021086Y-49873847D01*
X128561153Y-49413914D01*
X127960222Y-49165000D01*
X127309778Y-49165000D01*
X126708847Y-49413914D01*
X126248914Y-49873847D01*
X126190446Y-50015000D01*
X125721474Y-50015000D01*
X125530625Y-49729375D01*
X125039418Y-49401161D01*
X124606256Y-49315000D01*
X124313744Y-49315000D01*
X123880582Y-49401161D01*
X123389375Y-49729375D01*
X123190000Y-50027761D01*
X122990625Y-49729375D01*
X122499418Y-49401161D01*
X122066256Y-49315000D01*
X121773744Y-49315000D01*
X121340582Y-49401161D01*
X120849375Y-49729375D01*
X120837184Y-49747619D01*
X120828157Y-49702235D01*
X120687809Y-49492191D01*
X120477765Y-49351843D01*
X120230000Y-49302560D01*
X118530000Y-49302560D01*
X118282235Y-49351843D01*
X118072191Y-49492191D01*
X117931843Y-49702235D01*
X117882560Y-49950000D01*
X117882560Y-51650000D01*
X117931843Y-51897765D01*
X118072191Y-52107809D01*
X118282235Y-52248157D01*
X118530000Y-52297440D01*
X118595001Y-52297440D01*
X118595000Y-54724195D01*
X118586564Y-54725873D01*
X118295414Y-54920414D01*
X118100873Y-55211564D01*
X118032560Y-55554999D01*
X118032560Y-56205001D01*
X118100873Y-56548436D01*
X118295414Y-56839586D01*
X118296597Y-56840377D01*
X118141673Y-56995302D01*
X118045000Y-57228691D01*
X118045000Y-57644250D01*
X118203750Y-57803000D01*
X119253000Y-57803000D01*
X119253000Y-57783000D01*
X119507000Y-57783000D01*
X119507000Y-57803000D01*
X120556250Y-57803000D01*
X120715000Y-57644250D01*
X120715000Y-57228691D01*
X120618327Y-56995302D01*
X120463403Y-56840377D01*
X120464586Y-56839586D01*
X120659127Y-56548436D01*
X120727440Y-56205001D01*
X120727440Y-55554999D01*
X120659127Y-55211564D01*
X120464586Y-54920414D01*
X120173436Y-54725873D01*
X120165000Y-54724195D01*
X120165000Y-52297440D01*
X120230000Y-52297440D01*
X120477765Y-52248157D01*
X120687809Y-52107809D01*
X120828157Y-51897765D01*
X120837184Y-51852381D01*
X120849375Y-51870625D01*
X121340582Y-52198839D01*
X121773744Y-52285000D01*
X122066256Y-52285000D01*
X122138960Y-52270538D01*
X122305000Y-52436579D01*
X122305001Y-68348422D01*
X117527425Y-63570847D01*
X117478049Y-63496951D01*
X117185310Y-63301348D01*
X116927165Y-63250000D01*
X116927161Y-63250000D01*
X116840000Y-63232663D01*
X116752839Y-63250000D01*
X112126579Y-63250000D01*
X109403477Y-60526898D01*
X109407958Y-60525042D01*
X109685042Y-60247958D01*
X109835000Y-59885929D01*
X109835000Y-59494071D01*
X109688338Y-59140000D01*
X110204250Y-59140000D01*
X110363000Y-58981250D01*
X110363000Y-58057000D01*
X110617000Y-58057000D01*
X110617000Y-58981250D01*
X110775750Y-59140000D01*
X111316310Y-59140000D01*
X111549699Y-59043327D01*
X111728327Y-58864698D01*
X111760000Y-58788233D01*
X111791673Y-58864698D01*
X111970301Y-59043327D01*
X112203690Y-59140000D01*
X112744250Y-59140000D01*
X112903000Y-58981250D01*
X112903000Y-58057000D01*
X113157000Y-58057000D01*
X113157000Y-58981250D01*
X113315750Y-59140000D01*
X113856310Y-59140000D01*
X114089699Y-59043327D01*
X114268327Y-58864698D01*
X114365000Y-58631309D01*
X114365000Y-58215750D01*
X118045000Y-58215750D01*
X118045000Y-58631309D01*
X118141673Y-58864698D01*
X118320301Y-59043327D01*
X118553690Y-59140000D01*
X119094250Y-59140000D01*
X119253000Y-58981250D01*
X119253000Y-58057000D01*
X119507000Y-58057000D01*
X119507000Y-58981250D01*
X119665750Y-59140000D01*
X120206310Y-59140000D01*
X120439699Y-59043327D01*
X120618327Y-58864698D01*
X120715000Y-58631309D01*
X120715000Y-58215750D01*
X120556250Y-58057000D01*
X119507000Y-58057000D01*
X119253000Y-58057000D01*
X118203750Y-58057000D01*
X118045000Y-58215750D01*
X114365000Y-58215750D01*
X114206250Y-58057000D01*
X113157000Y-58057000D01*
X112903000Y-58057000D01*
X111853750Y-58057000D01*
X111760000Y-58150750D01*
X111666250Y-58057000D01*
X110617000Y-58057000D01*
X110363000Y-58057000D01*
X110343000Y-58057000D01*
X110343000Y-57803000D01*
X110363000Y-57803000D01*
X110363000Y-57783000D01*
X110617000Y-57783000D01*
X110617000Y-57803000D01*
X111666250Y-57803000D01*
X111760000Y-57709250D01*
X111853750Y-57803000D01*
X112903000Y-57803000D01*
X112903000Y-57783000D01*
X113157000Y-57783000D01*
X113157000Y-57803000D01*
X114206250Y-57803000D01*
X114365000Y-57644250D01*
X114365000Y-57228691D01*
X114268327Y-56995302D01*
X114113403Y-56840377D01*
X114114586Y-56839586D01*
X114309127Y-56548436D01*
X114377440Y-56205001D01*
X114377440Y-55554999D01*
X114309127Y-55211564D01*
X114114586Y-54920414D01*
X113823436Y-54725873D01*
X113480001Y-54657560D01*
X112579999Y-54657560D01*
X112236564Y-54725873D01*
X111945414Y-54920414D01*
X111828759Y-55095000D01*
X111691241Y-55095000D01*
X111574586Y-54920414D01*
X111283436Y-54725873D01*
X111275000Y-54724195D01*
X111275000Y-52061474D01*
X111560625Y-51870625D01*
X111751474Y-51585000D01*
X112220446Y-51585000D01*
X112278914Y-51726153D01*
X112738847Y-52186086D01*
X113339778Y-52435000D01*
X113990222Y-52435000D01*
X114591153Y-52186086D01*
X115051086Y-51726153D01*
X115300000Y-51125222D01*
X115300000Y-50474778D01*
X115051086Y-49873847D01*
X114591153Y-49413914D01*
X113990222Y-49165000D01*
X113339778Y-49165000D01*
X112738847Y-49413914D01*
X112278914Y-49873847D01*
X112220446Y-50015000D01*
X111751474Y-50015000D01*
X111560625Y-49729375D01*
X111069418Y-49401161D01*
X110636256Y-49315000D01*
X110343744Y-49315000D01*
X109910582Y-49401161D01*
X109419375Y-49729375D01*
X109220000Y-50027761D01*
X109020625Y-49729375D01*
X108529418Y-49401161D01*
X108096256Y-49315000D01*
X107803744Y-49315000D01*
X107370582Y-49401161D01*
X106879375Y-49729375D01*
X106867184Y-49747619D01*
X106858157Y-49702235D01*
X106717809Y-49492191D01*
X106507765Y-49351843D01*
X106260000Y-49302560D01*
X104560000Y-49302560D01*
X104312235Y-49351843D01*
X104102191Y-49492191D01*
X103961843Y-49702235D01*
X103912560Y-49950000D01*
X103912560Y-51650000D01*
X103961843Y-51897765D01*
X104102191Y-52107809D01*
X104312235Y-52248157D01*
X104560000Y-52297440D01*
X104625000Y-52297440D01*
X104625001Y-54724195D01*
X104616564Y-54725873D01*
X104325414Y-54920414D01*
X104130873Y-55211564D01*
X104062560Y-55554999D01*
X104062560Y-56205001D01*
X104130873Y-56548436D01*
X104325414Y-56839586D01*
X104326597Y-56840377D01*
X104171673Y-56995302D01*
X104075000Y-57228691D01*
X104075000Y-57644250D01*
X104233750Y-57803000D01*
X105283000Y-57803000D01*
X105283000Y-57783000D01*
X105537000Y-57783000D01*
X105537000Y-57803000D01*
X106586250Y-57803000D01*
X106745000Y-57644250D01*
X106745000Y-57228691D01*
X106648327Y-56995302D01*
X106493403Y-56840377D01*
X106494586Y-56839586D01*
X106689127Y-56548436D01*
X106757440Y-56205001D01*
X106757440Y-55554999D01*
X106689127Y-55211564D01*
X106494586Y-54920414D01*
X106203436Y-54725873D01*
X106195000Y-54724195D01*
X106195000Y-52297440D01*
X106260000Y-52297440D01*
X106507765Y-52248157D01*
X106717809Y-52107809D01*
X106858157Y-51897765D01*
X106867184Y-51852381D01*
X106879375Y-51870625D01*
X107065000Y-51994656D01*
X107065001Y-60237835D01*
X107047663Y-60325000D01*
X107116348Y-60670309D01*
X107262576Y-60889154D01*
X107262578Y-60889156D01*
X107311952Y-60963049D01*
X107385845Y-61012423D01*
X108964431Y-62591009D01*
X108780929Y-62515000D01*
X108389071Y-62515000D01*
X108027042Y-62664958D01*
X107977000Y-62715000D01*
X99772310Y-62715000D01*
X99694999Y-62699622D01*
X99617688Y-62715000D01*
X99617684Y-62715000D01*
X99388708Y-62760546D01*
X99269625Y-62840115D01*
X99194591Y-62890251D01*
X99194589Y-62890253D01*
X99129047Y-62934047D01*
X99085253Y-62999589D01*
X86264979Y-75819864D01*
X86264979Y-67245178D01*
X95185000Y-58325158D01*
X95185000Y-58631309D01*
X95281673Y-58864698D01*
X95460301Y-59043327D01*
X95693690Y-59140000D01*
X96234250Y-59140000D01*
X96393000Y-58981250D01*
X96393000Y-58057000D01*
X96647000Y-58057000D01*
X96647000Y-58981250D01*
X96805750Y-59140000D01*
X97346310Y-59140000D01*
X97579699Y-59043327D01*
X97758327Y-58864698D01*
X97790000Y-58788233D01*
X97821673Y-58864698D01*
X98000301Y-59043327D01*
X98233690Y-59140000D01*
X98774250Y-59140000D01*
X98933000Y-58981250D01*
X98933000Y-58057000D01*
X99187000Y-58057000D01*
X99187000Y-58981250D01*
X99345750Y-59140000D01*
X99886310Y-59140000D01*
X100119699Y-59043327D01*
X100298327Y-58864698D01*
X100395000Y-58631309D01*
X100395000Y-58215750D01*
X104075000Y-58215750D01*
X104075000Y-58631309D01*
X104171673Y-58864698D01*
X104350301Y-59043327D01*
X104583690Y-59140000D01*
X105124250Y-59140000D01*
X105283000Y-58981250D01*
X105283000Y-58057000D01*
X105537000Y-58057000D01*
X105537000Y-58981250D01*
X105695750Y-59140000D01*
X106236310Y-59140000D01*
X106469699Y-59043327D01*
X106648327Y-58864698D01*
X106745000Y-58631309D01*
X106745000Y-58215750D01*
X106586250Y-58057000D01*
X105537000Y-58057000D01*
X105283000Y-58057000D01*
X104233750Y-58057000D01*
X104075000Y-58215750D01*
X100395000Y-58215750D01*
X100236250Y-58057000D01*
X99187000Y-58057000D01*
X98933000Y-58057000D01*
X97883750Y-58057000D01*
X97790000Y-58150750D01*
X97696250Y-58057000D01*
X96647000Y-58057000D01*
X96393000Y-58057000D01*
X96373000Y-58057000D01*
X96373000Y-57803000D01*
X96393000Y-57803000D01*
X96393000Y-57783000D01*
X96647000Y-57783000D01*
X96647000Y-57803000D01*
X97696250Y-57803000D01*
X97790000Y-57709250D01*
X97883750Y-57803000D01*
X98933000Y-57803000D01*
X98933000Y-57783000D01*
X99187000Y-57783000D01*
X99187000Y-57803000D01*
X100236250Y-57803000D01*
X100395000Y-57644250D01*
X100395000Y-57228691D01*
X100298327Y-56995302D01*
X100143403Y-56840377D01*
X100144586Y-56839586D01*
X100339127Y-56548436D01*
X100407440Y-56205001D01*
X100407440Y-55554999D01*
X100339127Y-55211564D01*
X100144586Y-54920414D01*
X99853436Y-54725873D01*
X99510001Y-54657560D01*
X98609999Y-54657560D01*
X98266564Y-54725873D01*
X97975414Y-54920414D01*
X97858759Y-55095000D01*
X97721241Y-55095000D01*
X97604586Y-54920414D01*
X97313436Y-54725873D01*
X97305000Y-54724195D01*
X97305000Y-52061474D01*
X97590625Y-51870625D01*
X97781474Y-51585000D01*
X98250446Y-51585000D01*
X98308914Y-51726153D01*
X98768847Y-52186086D01*
X99369778Y-52435000D01*
X100020222Y-52435000D01*
X100621153Y-52186086D01*
X101081086Y-51726153D01*
X101330000Y-51125222D01*
X101330000Y-50474778D01*
X101081086Y-49873847D01*
X100621153Y-49413914D01*
X100020222Y-49165000D01*
X99369778Y-49165000D01*
X98768847Y-49413914D01*
X98308914Y-49873847D01*
X98250446Y-50015000D01*
X97781474Y-50015000D01*
X97590625Y-49729375D01*
X97099418Y-49401161D01*
X96666256Y-49315000D01*
X96373744Y-49315000D01*
X95940582Y-49401161D01*
X95449375Y-49729375D01*
X95250000Y-50027761D01*
X95050625Y-49729375D01*
X94559418Y-49401161D01*
X94126256Y-49315000D01*
X93833744Y-49315000D01*
X93400582Y-49401161D01*
X92909375Y-49729375D01*
X92897184Y-49747619D01*
X92888157Y-49702235D01*
X92747809Y-49492191D01*
X92537765Y-49351843D01*
X92290000Y-49302560D01*
X90590000Y-49302560D01*
X90342235Y-49351843D01*
X90132191Y-49492191D01*
X89991843Y-49702235D01*
X89942560Y-49950000D01*
X89942560Y-51650000D01*
X89991843Y-51897765D01*
X90132191Y-52107809D01*
X90342235Y-52248157D01*
X90590000Y-52297440D01*
X90655001Y-52297440D01*
X90655000Y-54724195D01*
X90646564Y-54725873D01*
X90355414Y-54920414D01*
X90160873Y-55211564D01*
X90092560Y-55554999D01*
X90092560Y-56205001D01*
X90160873Y-56548436D01*
X90355414Y-56839586D01*
X90356597Y-56840377D01*
X90201673Y-56995302D01*
X90105000Y-57228691D01*
X90105000Y-57644250D01*
X90263750Y-57803000D01*
X91313000Y-57803000D01*
X91313000Y-57783000D01*
X91567000Y-57783000D01*
X91567000Y-57803000D01*
X92616250Y-57803000D01*
X92775000Y-57644250D01*
X92775000Y-57228691D01*
X92678327Y-56995302D01*
X92523403Y-56840377D01*
X92524586Y-56839586D01*
X92719127Y-56548436D01*
X92787440Y-56205001D01*
X92787440Y-55554999D01*
X92719127Y-55211564D01*
X92524586Y-54920414D01*
X92233436Y-54725873D01*
X92225000Y-54724195D01*
X92225000Y-52297440D01*
X92290000Y-52297440D01*
X92537765Y-52248157D01*
X92747809Y-52107809D01*
X92888157Y-51897765D01*
X92897184Y-51852381D01*
X92909375Y-51870625D01*
X93400582Y-52198839D01*
X93833744Y-52285000D01*
X94126256Y-52285000D01*
X94559418Y-52198839D01*
X95050625Y-51870625D01*
X95250000Y-51572239D01*
X95449375Y-51870625D01*
X95735001Y-52061474D01*
X95735000Y-54724195D01*
X95726564Y-54725873D01*
X95435414Y-54920414D01*
X95240873Y-55211564D01*
X95172560Y-55554999D01*
X95172560Y-56117282D01*
X92775000Y-58514842D01*
X92775000Y-58215750D01*
X92616250Y-58057000D01*
X91567000Y-58057000D01*
X91567000Y-58981250D01*
X91725750Y-59140000D01*
X92149842Y-59140000D01*
X84979569Y-66310274D01*
X84914027Y-66354068D01*
X84870233Y-66419610D01*
X84870230Y-66419613D01*
X84740525Y-66613730D01*
X84679601Y-66920021D01*
X79450000Y-66920021D01*
X79450000Y-58215750D01*
X90105000Y-58215750D01*
X90105000Y-58631309D01*
X90201673Y-58864698D01*
X90380301Y-59043327D01*
X90613690Y-59140000D01*
X91154250Y-59140000D01*
X91313000Y-58981250D01*
X91313000Y-58057000D01*
X90263750Y-58057000D01*
X90105000Y-58215750D01*
X79450000Y-58215750D01*
X79450000Y-51875866D01*
X79765000Y-51875866D01*
X79765000Y-52924134D01*
X80166155Y-53892608D01*
X80907392Y-54633845D01*
X81875866Y-55035000D01*
X82924134Y-55035000D01*
X83892608Y-54633845D01*
X84633845Y-53892608D01*
X85035000Y-52924134D01*
X85035000Y-51875866D01*
X84633845Y-50907392D01*
X83892608Y-50166155D01*
X82924134Y-49765000D01*
X81875866Y-49765000D01*
X80907392Y-50166155D01*
X80166155Y-50907392D01*
X79765000Y-51875866D01*
X79450000Y-51875866D01*
X79450000Y-48970000D01*
X136450000Y-48970000D01*
X136450001Y-126290000D01*
G36*
X95022560Y-71970000D02*
X95071843Y-72217765D01*
X95212191Y-72427809D01*
X95422235Y-72568157D01*
X95600690Y-72603653D01*
X95335680Y-72868663D01*
X95123000Y-73382119D01*
X95123000Y-73937881D01*
X95335680Y-74451337D01*
X95728663Y-74844320D01*
X96242119Y-75057000D01*
X96797881Y-75057000D01*
X97311337Y-74844320D01*
X97704320Y-74451337D01*
X97790000Y-74244487D01*
X97875680Y-74451337D01*
X98268663Y-74844320D01*
X98782119Y-75057000D01*
X99337881Y-75057000D01*
X99851337Y-74844320D01*
X100055444Y-74640213D01*
X100799392Y-74640213D01*
X100868857Y-74882397D01*
X101392302Y-75069144D01*
X101947368Y-75041362D01*
X102331143Y-74882397D01*
X102400608Y-74640213D01*
X101600000Y-73839605D01*
X100799392Y-74640213D01*
X100055444Y-74640213D01*
X100244320Y-74451337D01*
X100323428Y-74260353D01*
X100377603Y-74391143D01*
X100619787Y-74460608D01*
X101420395Y-73660000D01*
X100619787Y-72859392D01*
X100377603Y-72928857D01*
X100327465Y-73069393D01*
X100244320Y-72868663D01*
X99851337Y-72475680D01*
X99845000Y-72473055D01*
X99845000Y-72381474D01*
X100130625Y-72190625D01*
X100343843Y-71871522D01*
X100404817Y-72001358D01*
X100833076Y-72391645D01*
X100906445Y-72422034D01*
X100868857Y-72437603D01*
X100799392Y-72679787D01*
X101600000Y-73480395D01*
X102400608Y-72679787D01*
X102331143Y-72437603D01*
X102290754Y-72423194D01*
X102366924Y-72391645D01*
X102795183Y-72001358D01*
X102856157Y-71871522D01*
X103069375Y-72190625D01*
X103355001Y-72381474D01*
X103355000Y-72473055D01*
X103348663Y-72475680D01*
X102955680Y-72868663D01*
X102876572Y-73059647D01*
X102822397Y-72928857D01*
X102580213Y-72859392D01*
X101779605Y-73660000D01*
X102580213Y-74460608D01*
X102822397Y-74391143D01*
X102872535Y-74250607D01*
X102955680Y-74451337D01*
X103348663Y-74844320D01*
X103862119Y-75057000D01*
X104417881Y-75057000D01*
X104424218Y-75054375D01*
X109705000Y-80335158D01*
X109705001Y-96884840D01*
X109268130Y-97321711D01*
X109134320Y-96998663D01*
X108741337Y-96605680D01*
X108227881Y-96393000D01*
X107672119Y-96393000D01*
X107158663Y-96605680D01*
X106765680Y-96998663D01*
X106680000Y-97205513D01*
X106594320Y-96998663D01*
X106201337Y-96605680D01*
X105687881Y-96393000D01*
X105132119Y-96393000D01*
X104618663Y-96605680D01*
X104225680Y-96998663D01*
X104140000Y-97205513D01*
X104054320Y-96998663D01*
X103661337Y-96605680D01*
X103147881Y-96393000D01*
X102592119Y-96393000D01*
X102078663Y-96605680D01*
X101685680Y-96998663D01*
X101600000Y-97205513D01*
X101514320Y-96998663D01*
X101121337Y-96605680D01*
X100607881Y-96393000D01*
X100052119Y-96393000D01*
X99538663Y-96605680D01*
X99145680Y-96998663D01*
X99060000Y-97205513D01*
X98974320Y-96998663D01*
X98581337Y-96605680D01*
X98067881Y-96393000D01*
X97512119Y-96393000D01*
X96998663Y-96605680D01*
X96605680Y-96998663D01*
X96520000Y-97205513D01*
X96434320Y-96998663D01*
X96041337Y-96605680D01*
X95527881Y-96393000D01*
X94972119Y-96393000D01*
X94458663Y-96605680D01*
X94065680Y-96998663D01*
X93980000Y-97205513D01*
X93894320Y-96998663D01*
X93501337Y-96605680D01*
X92987881Y-96393000D01*
X92432119Y-96393000D01*
X91918663Y-96605680D01*
X91525680Y-96998663D01*
X91446572Y-97189647D01*
X91392397Y-97058857D01*
X91150213Y-96989392D01*
X90349605Y-97790000D01*
X91150213Y-98590608D01*
X91392397Y-98521143D01*
X91442535Y-98380607D01*
X91525680Y-98581337D01*
X91918663Y-98974320D01*
X92432119Y-99187000D01*
X92987881Y-99187000D01*
X93501337Y-98974320D01*
X93894320Y-98581337D01*
X93980000Y-98374487D01*
X94065680Y-98581337D01*
X94458663Y-98974320D01*
X94972119Y-99187000D01*
X95527881Y-99187000D01*
X96041337Y-98974320D01*
X96434320Y-98581337D01*
X96520000Y-98374487D01*
X96605680Y-98581337D01*
X96998663Y-98974320D01*
X97512119Y-99187000D01*
X98067881Y-99187000D01*
X98581337Y-98974320D01*
X98974320Y-98581337D01*
X99060000Y-98374487D01*
X99145680Y-98581337D01*
X99538663Y-98974320D01*
X100052119Y-99187000D01*
X100607881Y-99187000D01*
X101121337Y-98974320D01*
X101514320Y-98581337D01*
X101600000Y-98374487D01*
X101685680Y-98581337D01*
X102078663Y-98974320D01*
X102592119Y-99187000D01*
X103147881Y-99187000D01*
X103661337Y-98974320D01*
X104054320Y-98581337D01*
X104140000Y-98374487D01*
X104225680Y-98581337D01*
X104618663Y-98974320D01*
X105132119Y-99187000D01*
X105687881Y-99187000D01*
X106201337Y-98974320D01*
X106594320Y-98581337D01*
X106680000Y-98374487D01*
X106765680Y-98581337D01*
X107158663Y-98974320D01*
X107481711Y-99108130D01*
X106192710Y-100397131D01*
X105969909Y-100248260D01*
X105551333Y-100165000D01*
X105268667Y-100165000D01*
X104850091Y-100248260D01*
X104375423Y-100565423D01*
X104140000Y-100917758D01*
X103904577Y-100565423D01*
X103429909Y-100248260D01*
X103011333Y-100165000D01*
X102728667Y-100165000D01*
X102310091Y-100248260D01*
X101835423Y-100565423D01*
X101600000Y-100917758D01*
X101364577Y-100565423D01*
X100889909Y-100248260D01*
X100471333Y-100165000D01*
X100188667Y-100165000D01*
X99770091Y-100248260D01*
X99295423Y-100565423D01*
X99060000Y-100917758D01*
X98824577Y-100565423D01*
X98349909Y-100248260D01*
X97931333Y-100165000D01*
X97648667Y-100165000D01*
X97230091Y-100248260D01*
X96755423Y-100565423D01*
X96520000Y-100917758D01*
X96284577Y-100565423D01*
X95809909Y-100248260D01*
X95391333Y-100165000D01*
X95108667Y-100165000D01*
X94690091Y-100248260D01*
X94215423Y-100565423D01*
X93980000Y-100917758D01*
X93744577Y-100565423D01*
X93269909Y-100248260D01*
X92851333Y-100165000D01*
X92568667Y-100165000D01*
X92150091Y-100248260D01*
X91675423Y-100565423D01*
X91440000Y-100917758D01*
X91204577Y-100565423D01*
X90729909Y-100248260D01*
X90311333Y-100165000D01*
X90028667Y-100165000D01*
X89610091Y-100248260D01*
X89135423Y-100565423D01*
X88818260Y-101040091D01*
X88706887Y-101600000D01*
X88818260Y-102159909D01*
X89135423Y-102634577D01*
X89385001Y-102801340D01*
X89385000Y-109247000D01*
X89334958Y-109297042D01*
X89185000Y-109659071D01*
X89185000Y-110050929D01*
X89334958Y-110412958D01*
X89612042Y-110690042D01*
X89974071Y-110840000D01*
X90365929Y-110840000D01*
X90727958Y-110690042D01*
X91005042Y-110412958D01*
X91155000Y-110050929D01*
X91155000Y-109659071D01*
X91005042Y-109297042D01*
X90955000Y-109247000D01*
X90955000Y-102801339D01*
X91204577Y-102634577D01*
X91440000Y-102282242D01*
X91675423Y-102634577D01*
X92150091Y-102951740D01*
X92568667Y-103035000D01*
X92851333Y-103035000D01*
X93269909Y-102951740D01*
X93744577Y-102634577D01*
X93980000Y-102282242D01*
X94215423Y-102634577D01*
X94690091Y-102951740D01*
X95108667Y-103035000D01*
X95391333Y-103035000D01*
X95809909Y-102951740D01*
X96284577Y-102634577D01*
X96520000Y-102282242D01*
X96755423Y-102634577D01*
X97230091Y-102951740D01*
X97648667Y-103035000D01*
X97931333Y-103035000D01*
X98349909Y-102951740D01*
X98824577Y-102634577D01*
X99060000Y-102282242D01*
X99295423Y-102634577D01*
X99770091Y-102951740D01*
X100188667Y-103035000D01*
X100471333Y-103035000D01*
X100889909Y-102951740D01*
X101364577Y-102634577D01*
X101600000Y-102282242D01*
X101835423Y-102634577D01*
X102310091Y-102951740D01*
X102728667Y-103035000D01*
X103011333Y-103035000D01*
X103429909Y-102951740D01*
X103904577Y-102634577D01*
X104140000Y-102282242D01*
X104375423Y-102634577D01*
X104850091Y-102951740D01*
X105268667Y-103035000D01*
X105551333Y-103035000D01*
X105895000Y-102966640D01*
X105895001Y-107053022D01*
X105737207Y-106672074D01*
X105417926Y-106352793D01*
X105000766Y-106180000D01*
X104549234Y-106180000D01*
X104132074Y-106352793D01*
X103812793Y-106672074D01*
X103640000Y-107089234D01*
X103640000Y-107198421D01*
X99328422Y-111510000D01*
X88350133Y-111510000D01*
X88272926Y-111432793D01*
X87855766Y-111260000D01*
X87464999Y-111260000D01*
X87464999Y-98770213D01*
X89369392Y-98770213D01*
X89438857Y-99012397D01*
X89962302Y-99199144D01*
X90517368Y-99171362D01*
X90901143Y-99012397D01*
X90970608Y-98770213D01*
X90170000Y-97969605D01*
X89369392Y-98770213D01*
X87464999Y-98770213D01*
X87464999Y-97582302D01*
X88760856Y-97582302D01*
X88788638Y-98137368D01*
X88947603Y-98521143D01*
X89189787Y-98590608D01*
X89990395Y-97790000D01*
X89189787Y-96989392D01*
X88947603Y-97058857D01*
X88760856Y-97582302D01*
X87464999Y-97582302D01*
X87464999Y-96809787D01*
X89369392Y-96809787D01*
X90170000Y-97610395D01*
X90970608Y-96809787D01*
X90901143Y-96567603D01*
X90377698Y-96380856D01*
X89822632Y-96408638D01*
X89438857Y-96567603D01*
X89369392Y-96809787D01*
X87464999Y-96809787D01*
X87464999Y-83530213D01*
X89369392Y-83530213D01*
X89438857Y-83772397D01*
X89962302Y-83959144D01*
X90517368Y-83931362D01*
X90901143Y-83772397D01*
X90970608Y-83530213D01*
X90170000Y-82729605D01*
X89369392Y-83530213D01*
X87464999Y-83530213D01*
X87464999Y-82342302D01*
X88760856Y-82342302D01*
X88788638Y-82897368D01*
X88947603Y-83281143D01*
X89189787Y-83350608D01*
X89990395Y-82550000D01*
X90349605Y-82550000D01*
X91150213Y-83350608D01*
X91392397Y-83281143D01*
X91442535Y-83140607D01*
X91525680Y-83341337D01*
X91918663Y-83734320D01*
X92432119Y-83947000D01*
X92987881Y-83947000D01*
X93501337Y-83734320D01*
X93894320Y-83341337D01*
X93980000Y-83134487D01*
X94065680Y-83341337D01*
X94458663Y-83734320D01*
X94972119Y-83947000D01*
X95527881Y-83947000D01*
X96041337Y-83734320D01*
X96434320Y-83341337D01*
X96520000Y-83134487D01*
X96605680Y-83341337D01*
X96998663Y-83734320D01*
X97512119Y-83947000D01*
X98067881Y-83947000D01*
X98581337Y-83734320D01*
X98974320Y-83341337D01*
X99060000Y-83134487D01*
X99145680Y-83341337D01*
X99538663Y-83734320D01*
X100052119Y-83947000D01*
X100607881Y-83947000D01*
X101121337Y-83734320D01*
X101325444Y-83530213D01*
X102069392Y-83530213D01*
X102138857Y-83772397D01*
X102662302Y-83959144D01*
X103217368Y-83931362D01*
X103601143Y-83772397D01*
X103670608Y-83530213D01*
X102870000Y-82729605D01*
X102069392Y-83530213D01*
X101325444Y-83530213D01*
X101514320Y-83341337D01*
X101593428Y-83150353D01*
X101647603Y-83281143D01*
X101889787Y-83350608D01*
X102690395Y-82550000D01*
X103049605Y-82550000D01*
X103850213Y-83350608D01*
X104092397Y-83281143D01*
X104142535Y-83140607D01*
X104225680Y-83341337D01*
X104618663Y-83734320D01*
X105132119Y-83947000D01*
X105687881Y-83947000D01*
X106201337Y-83734320D01*
X106594320Y-83341337D01*
X106680000Y-83134487D01*
X106765680Y-83341337D01*
X107158663Y-83734320D01*
X107672119Y-83947000D01*
X108227881Y-83947000D01*
X108741337Y-83734320D01*
X109134320Y-83341337D01*
X109347000Y-82827881D01*
X109347000Y-82272119D01*
X109134320Y-81758663D01*
X108741337Y-81365680D01*
X108227881Y-81153000D01*
X107672119Y-81153000D01*
X107158663Y-81365680D01*
X106765680Y-81758663D01*
X106680000Y-81965513D01*
X106594320Y-81758663D01*
X106201337Y-81365680D01*
X105687881Y-81153000D01*
X105132119Y-81153000D01*
X104618663Y-81365680D01*
X104225680Y-81758663D01*
X104146572Y-81949647D01*
X104092397Y-81818857D01*
X103850213Y-81749392D01*
X103049605Y-82550000D01*
X102690395Y-82550000D01*
X101889787Y-81749392D01*
X101647603Y-81818857D01*
X101597465Y-81959393D01*
X101514320Y-81758663D01*
X101325444Y-81569787D01*
X102069392Y-81569787D01*
X102870000Y-82370395D01*
X103670608Y-81569787D01*
X103601143Y-81327603D01*
X103077698Y-81140856D01*
X102522632Y-81168638D01*
X102138857Y-81327603D01*
X102069392Y-81569787D01*
X101325444Y-81569787D01*
X101121337Y-81365680D01*
X100607881Y-81153000D01*
X100052119Y-81153000D01*
X99538663Y-81365680D01*
X99145680Y-81758663D01*
X99060000Y-81965513D01*
X98974320Y-81758663D01*
X98581337Y-81365680D01*
X98067881Y-81153000D01*
X97512119Y-81153000D01*
X96998663Y-81365680D01*
X96605680Y-81758663D01*
X96520000Y-81965513D01*
X96434320Y-81758663D01*
X96041337Y-81365680D01*
X95527881Y-81153000D01*
X94972119Y-81153000D01*
X94458663Y-81365680D01*
X94065680Y-81758663D01*
X93980000Y-81965513D01*
X93894320Y-81758663D01*
X93501337Y-81365680D01*
X92987881Y-81153000D01*
X92432119Y-81153000D01*
X91918663Y-81365680D01*
X91525680Y-81758663D01*
X91446572Y-81949647D01*
X91392397Y-81818857D01*
X91150213Y-81749392D01*
X90349605Y-82550000D01*
X89990395Y-82550000D01*
X89189787Y-81749392D01*
X88947603Y-81818857D01*
X88760856Y-82342302D01*
X87464999Y-82342302D01*
X87464999Y-81569787D01*
X89369392Y-81569787D01*
X90170000Y-82370395D01*
X90970608Y-81569787D01*
X90901143Y-81327603D01*
X90377698Y-81140856D01*
X89822632Y-81168638D01*
X89438857Y-81327603D01*
X89369392Y-81569787D01*
X87464999Y-81569787D01*
X87464999Y-78775156D01*
X87500155Y-78740000D01*
X91195908Y-78740000D01*
X91311161Y-79319418D01*
X91639375Y-79810625D01*
X92130582Y-80138839D01*
X92563744Y-80225000D01*
X92856256Y-80225000D01*
X93289418Y-80138839D01*
X93780625Y-79810625D01*
X93792816Y-79792381D01*
X93801843Y-79837765D01*
X93942191Y-80047809D01*
X94152235Y-80188157D01*
X94400000Y-80237440D01*
X96100000Y-80237440D01*
X96347765Y-80188157D01*
X96557809Y-80047809D01*
X96698157Y-79837765D01*
X96707184Y-79792381D01*
X96719375Y-79810625D01*
X97210582Y-80138839D01*
X97643744Y-80225000D01*
X97936256Y-80225000D01*
X98369418Y-80138839D01*
X98860625Y-79810625D01*
X98872816Y-79792381D01*
X98881843Y-79837765D01*
X99022191Y-80047809D01*
X99232235Y-80188157D01*
X99480000Y-80237440D01*
X101180000Y-80237440D01*
X101427765Y-80188157D01*
X101637809Y-80047809D01*
X101778157Y-79837765D01*
X101827440Y-79590000D01*
X101827440Y-77890000D01*
X103912560Y-77890000D01*
X103912560Y-79590000D01*
X103961843Y-79837765D01*
X104102191Y-80047809D01*
X104312235Y-80188157D01*
X104560000Y-80237440D01*
X106260000Y-80237440D01*
X106507765Y-80188157D01*
X106717809Y-80047809D01*
X106858157Y-79837765D01*
X106907440Y-79590000D01*
X106907440Y-77890000D01*
X106858157Y-77642235D01*
X106717809Y-77432191D01*
X106507765Y-77291843D01*
X106260000Y-77242560D01*
X104560000Y-77242560D01*
X104312235Y-77291843D01*
X104102191Y-77432191D01*
X103961843Y-77642235D01*
X103912560Y-77890000D01*
X101827440Y-77890000D01*
X101778157Y-77642235D01*
X101637809Y-77432191D01*
X101427765Y-77291843D01*
X101180000Y-77242560D01*
X99480000Y-77242560D01*
X99232235Y-77291843D01*
X99022191Y-77432191D01*
X98881843Y-77642235D01*
X98872816Y-77687619D01*
X98860625Y-77669375D01*
X98369418Y-77341161D01*
X97936256Y-77255000D01*
X97643744Y-77255000D01*
X97210582Y-77341161D01*
X96719375Y-77669375D01*
X96707184Y-77687619D01*
X96698157Y-77642235D01*
X96557809Y-77432191D01*
X96347765Y-77291843D01*
X96100000Y-77242560D01*
X94400000Y-77242560D01*
X94152235Y-77291843D01*
X93942191Y-77432191D01*
X93801843Y-77642235D01*
X93792816Y-77687619D01*
X93780625Y-77669375D01*
X93289418Y-77341161D01*
X92856256Y-77255000D01*
X92563744Y-77255000D01*
X92130582Y-77341161D01*
X91639375Y-77669375D01*
X91311161Y-78160582D01*
X91195908Y-78740000D01*
X87500155Y-78740000D01*
X95022560Y-71217595D01*
X95022560Y-71970000D01*
X95022560Y-71970000D01*
G37*
X95022560Y-71970000D02*
X95071843Y-72217765D01*
X95212191Y-72427809D01*
X95422235Y-72568157D01*
X95600690Y-72603653D01*
X95335680Y-72868663D01*
X95123000Y-73382119D01*
X95123000Y-73937881D01*
X95335680Y-74451337D01*
X95728663Y-74844320D01*
X96242119Y-75057000D01*
X96797881Y-75057000D01*
X97311337Y-74844320D01*
X97704320Y-74451337D01*
X97790000Y-74244487D01*
X97875680Y-74451337D01*
X98268663Y-74844320D01*
X98782119Y-75057000D01*
X99337881Y-75057000D01*
X99851337Y-74844320D01*
X100055444Y-74640213D01*
X100799392Y-74640213D01*
X100868857Y-74882397D01*
X101392302Y-75069144D01*
X101947368Y-75041362D01*
X102331143Y-74882397D01*
X102400608Y-74640213D01*
X101600000Y-73839605D01*
X100799392Y-74640213D01*
X100055444Y-74640213D01*
X100244320Y-74451337D01*
X100323428Y-74260353D01*
X100377603Y-74391143D01*
X100619787Y-74460608D01*
X101420395Y-73660000D01*
X100619787Y-72859392D01*
X100377603Y-72928857D01*
X100327465Y-73069393D01*
X100244320Y-72868663D01*
X99851337Y-72475680D01*
X99845000Y-72473055D01*
X99845000Y-72381474D01*
X100130625Y-72190625D01*
X100343843Y-71871522D01*
X100404817Y-72001358D01*
X100833076Y-72391645D01*
X100906445Y-72422034D01*
X100868857Y-72437603D01*
X100799392Y-72679787D01*
X101600000Y-73480395D01*
X102400608Y-72679787D01*
X102331143Y-72437603D01*
X102290754Y-72423194D01*
X102366924Y-72391645D01*
X102795183Y-72001358D01*
X102856157Y-71871522D01*
X103069375Y-72190625D01*
X103355001Y-72381474D01*
X103355000Y-72473055D01*
X103348663Y-72475680D01*
X102955680Y-72868663D01*
X102876572Y-73059647D01*
X102822397Y-72928857D01*
X102580213Y-72859392D01*
X101779605Y-73660000D01*
X102580213Y-74460608D01*
X102822397Y-74391143D01*
X102872535Y-74250607D01*
X102955680Y-74451337D01*
X103348663Y-74844320D01*
X103862119Y-75057000D01*
X104417881Y-75057000D01*
X104424218Y-75054375D01*
X109705000Y-80335158D01*
X109705001Y-96884840D01*
X109268130Y-97321711D01*
X109134320Y-96998663D01*
X108741337Y-96605680D01*
X108227881Y-96393000D01*
X107672119Y-96393000D01*
X107158663Y-96605680D01*
X106765680Y-96998663D01*
X106680000Y-97205513D01*
X106594320Y-96998663D01*
X106201337Y-96605680D01*
X105687881Y-96393000D01*
X105132119Y-96393000D01*
X104618663Y-96605680D01*
X104225680Y-96998663D01*
X104140000Y-97205513D01*
X104054320Y-96998663D01*
X103661337Y-96605680D01*
X103147881Y-96393000D01*
X102592119Y-96393000D01*
X102078663Y-96605680D01*
X101685680Y-96998663D01*
X101600000Y-97205513D01*
X101514320Y-96998663D01*
X101121337Y-96605680D01*
X100607881Y-96393000D01*
X100052119Y-96393000D01*
X99538663Y-96605680D01*
X99145680Y-96998663D01*
X99060000Y-97205513D01*
X98974320Y-96998663D01*
X98581337Y-96605680D01*
X98067881Y-96393000D01*
X97512119Y-96393000D01*
X96998663Y-96605680D01*
X96605680Y-96998663D01*
X96520000Y-97205513D01*
X96434320Y-96998663D01*
X96041337Y-96605680D01*
X95527881Y-96393000D01*
X94972119Y-96393000D01*
X94458663Y-96605680D01*
X94065680Y-96998663D01*
X93980000Y-97205513D01*
X93894320Y-96998663D01*
X93501337Y-96605680D01*
X92987881Y-96393000D01*
X92432119Y-96393000D01*
X91918663Y-96605680D01*
X91525680Y-96998663D01*
X91446572Y-97189647D01*
X91392397Y-97058857D01*
X91150213Y-96989392D01*
X90349605Y-97790000D01*
X91150213Y-98590608D01*
X91392397Y-98521143D01*
X91442535Y-98380607D01*
X91525680Y-98581337D01*
X91918663Y-98974320D01*
X92432119Y-99187000D01*
X92987881Y-99187000D01*
X93501337Y-98974320D01*
X93894320Y-98581337D01*
X93980000Y-98374487D01*
X94065680Y-98581337D01*
X94458663Y-98974320D01*
X94972119Y-99187000D01*
X95527881Y-99187000D01*
X96041337Y-98974320D01*
X96434320Y-98581337D01*
X96520000Y-98374487D01*
X96605680Y-98581337D01*
X96998663Y-98974320D01*
X97512119Y-99187000D01*
X98067881Y-99187000D01*
X98581337Y-98974320D01*
X98974320Y-98581337D01*
X99060000Y-98374487D01*
X99145680Y-98581337D01*
X99538663Y-98974320D01*
X100052119Y-99187000D01*
X100607881Y-99187000D01*
X101121337Y-98974320D01*
X101514320Y-98581337D01*
X101600000Y-98374487D01*
X101685680Y-98581337D01*
X102078663Y-98974320D01*
X102592119Y-99187000D01*
X103147881Y-99187000D01*
X103661337Y-98974320D01*
X104054320Y-98581337D01*
X104140000Y-98374487D01*
X104225680Y-98581337D01*
X104618663Y-98974320D01*
X105132119Y-99187000D01*
X105687881Y-99187000D01*
X106201337Y-98974320D01*
X106594320Y-98581337D01*
X106680000Y-98374487D01*
X106765680Y-98581337D01*
X107158663Y-98974320D01*
X107481711Y-99108130D01*
X106192710Y-100397131D01*
X105969909Y-100248260D01*
X105551333Y-100165000D01*
X105268667Y-100165000D01*
X104850091Y-100248260D01*
X104375423Y-100565423D01*
X104140000Y-100917758D01*
X103904577Y-100565423D01*
X103429909Y-100248260D01*
X103011333Y-100165000D01*
X102728667Y-100165000D01*
X102310091Y-100248260D01*
X101835423Y-100565423D01*
X101600000Y-100917758D01*
X101364577Y-100565423D01*
X100889909Y-100248260D01*
X100471333Y-100165000D01*
X100188667Y-100165000D01*
X99770091Y-100248260D01*
X99295423Y-100565423D01*
X99060000Y-100917758D01*
X98824577Y-100565423D01*
X98349909Y-100248260D01*
X97931333Y-100165000D01*
X97648667Y-100165000D01*
X97230091Y-100248260D01*
X96755423Y-100565423D01*
X96520000Y-100917758D01*
X96284577Y-100565423D01*
X95809909Y-100248260D01*
X95391333Y-100165000D01*
X95108667Y-100165000D01*
X94690091Y-100248260D01*
X94215423Y-100565423D01*
X93980000Y-100917758D01*
X93744577Y-100565423D01*
X93269909Y-100248260D01*
X92851333Y-100165000D01*
X92568667Y-100165000D01*
X92150091Y-100248260D01*
X91675423Y-100565423D01*
X91440000Y-100917758D01*
X91204577Y-100565423D01*
X90729909Y-100248260D01*
X90311333Y-100165000D01*
X90028667Y-100165000D01*
X89610091Y-100248260D01*
X89135423Y-100565423D01*
X88818260Y-101040091D01*
X88706887Y-101600000D01*
X88818260Y-102159909D01*
X89135423Y-102634577D01*
X89385001Y-102801340D01*
X89385000Y-109247000D01*
X89334958Y-109297042D01*
X89185000Y-109659071D01*
X89185000Y-110050929D01*
X89334958Y-110412958D01*
X89612042Y-110690042D01*
X89974071Y-110840000D01*
X90365929Y-110840000D01*
X90727958Y-110690042D01*
X91005042Y-110412958D01*
X91155000Y-110050929D01*
X91155000Y-109659071D01*
X91005042Y-109297042D01*
X90955000Y-109247000D01*
X90955000Y-102801339D01*
X91204577Y-102634577D01*
X91440000Y-102282242D01*
X91675423Y-102634577D01*
X92150091Y-102951740D01*
X92568667Y-103035000D01*
X92851333Y-103035000D01*
X93269909Y-102951740D01*
X93744577Y-102634577D01*
X93980000Y-102282242D01*
X94215423Y-102634577D01*
X94690091Y-102951740D01*
X95108667Y-103035000D01*
X95391333Y-103035000D01*
X95809909Y-102951740D01*
X96284577Y-102634577D01*
X96520000Y-102282242D01*
X96755423Y-102634577D01*
X97230091Y-102951740D01*
X97648667Y-103035000D01*
X97931333Y-103035000D01*
X98349909Y-102951740D01*
X98824577Y-102634577D01*
X99060000Y-102282242D01*
X99295423Y-102634577D01*
X99770091Y-102951740D01*
X100188667Y-103035000D01*
X100471333Y-103035000D01*
X100889909Y-102951740D01*
X101364577Y-102634577D01*
X101600000Y-102282242D01*
X101835423Y-102634577D01*
X102310091Y-102951740D01*
X102728667Y-103035000D01*
X103011333Y-103035000D01*
X103429909Y-102951740D01*
X103904577Y-102634577D01*
X104140000Y-102282242D01*
X104375423Y-102634577D01*
X104850091Y-102951740D01*
X105268667Y-103035000D01*
X105551333Y-103035000D01*
X105895000Y-102966640D01*
X105895001Y-107053022D01*
X105737207Y-106672074D01*
X105417926Y-106352793D01*
X105000766Y-106180000D01*
X104549234Y-106180000D01*
X104132074Y-106352793D01*
X103812793Y-106672074D01*
X103640000Y-107089234D01*
X103640000Y-107198421D01*
X99328422Y-111510000D01*
X88350133Y-111510000D01*
X88272926Y-111432793D01*
X87855766Y-111260000D01*
X87464999Y-111260000D01*
X87464999Y-98770213D01*
X89369392Y-98770213D01*
X89438857Y-99012397D01*
X89962302Y-99199144D01*
X90517368Y-99171362D01*
X90901143Y-99012397D01*
X90970608Y-98770213D01*
X90170000Y-97969605D01*
X89369392Y-98770213D01*
X87464999Y-98770213D01*
X87464999Y-97582302D01*
X88760856Y-97582302D01*
X88788638Y-98137368D01*
X88947603Y-98521143D01*
X89189787Y-98590608D01*
X89990395Y-97790000D01*
X89189787Y-96989392D01*
X88947603Y-97058857D01*
X88760856Y-97582302D01*
X87464999Y-97582302D01*
X87464999Y-96809787D01*
X89369392Y-96809787D01*
X90170000Y-97610395D01*
X90970608Y-96809787D01*
X90901143Y-96567603D01*
X90377698Y-96380856D01*
X89822632Y-96408638D01*
X89438857Y-96567603D01*
X89369392Y-96809787D01*
X87464999Y-96809787D01*
X87464999Y-83530213D01*
X89369392Y-83530213D01*
X89438857Y-83772397D01*
X89962302Y-83959144D01*
X90517368Y-83931362D01*
X90901143Y-83772397D01*
X90970608Y-83530213D01*
X90170000Y-82729605D01*
X89369392Y-83530213D01*
X87464999Y-83530213D01*
X87464999Y-82342302D01*
X88760856Y-82342302D01*
X88788638Y-82897368D01*
X88947603Y-83281143D01*
X89189787Y-83350608D01*
X89990395Y-82550000D01*
X90349605Y-82550000D01*
X91150213Y-83350608D01*
X91392397Y-83281143D01*
X91442535Y-83140607D01*
X91525680Y-83341337D01*
X91918663Y-83734320D01*
X92432119Y-83947000D01*
X92987881Y-83947000D01*
X93501337Y-83734320D01*
X93894320Y-83341337D01*
X93980000Y-83134487D01*
X94065680Y-83341337D01*
X94458663Y-83734320D01*
X94972119Y-83947000D01*
X95527881Y-83947000D01*
X96041337Y-83734320D01*
X96434320Y-83341337D01*
X96520000Y-83134487D01*
X96605680Y-83341337D01*
X96998663Y-83734320D01*
X97512119Y-83947000D01*
X98067881Y-83947000D01*
X98581337Y-83734320D01*
X98974320Y-83341337D01*
X99060000Y-83134487D01*
X99145680Y-83341337D01*
X99538663Y-83734320D01*
X100052119Y-83947000D01*
X100607881Y-83947000D01*
X101121337Y-83734320D01*
X101325444Y-83530213D01*
X102069392Y-83530213D01*
X102138857Y-83772397D01*
X102662302Y-83959144D01*
X103217368Y-83931362D01*
X103601143Y-83772397D01*
X103670608Y-83530213D01*
X102870000Y-82729605D01*
X102069392Y-83530213D01*
X101325444Y-83530213D01*
X101514320Y-83341337D01*
X101593428Y-83150353D01*
X101647603Y-83281143D01*
X101889787Y-83350608D01*
X102690395Y-82550000D01*
X103049605Y-82550000D01*
X103850213Y-83350608D01*
X104092397Y-83281143D01*
X104142535Y-83140607D01*
X104225680Y-83341337D01*
X104618663Y-83734320D01*
X105132119Y-83947000D01*
X105687881Y-83947000D01*
X106201337Y-83734320D01*
X106594320Y-83341337D01*
X106680000Y-83134487D01*
X106765680Y-83341337D01*
X107158663Y-83734320D01*
X107672119Y-83947000D01*
X108227881Y-83947000D01*
X108741337Y-83734320D01*
X109134320Y-83341337D01*
X109347000Y-82827881D01*
X109347000Y-82272119D01*
X109134320Y-81758663D01*
X108741337Y-81365680D01*
X108227881Y-81153000D01*
X107672119Y-81153000D01*
X107158663Y-81365680D01*
X106765680Y-81758663D01*
X106680000Y-81965513D01*
X106594320Y-81758663D01*
X106201337Y-81365680D01*
X105687881Y-81153000D01*
X105132119Y-81153000D01*
X104618663Y-81365680D01*
X104225680Y-81758663D01*
X104146572Y-81949647D01*
X104092397Y-81818857D01*
X103850213Y-81749392D01*
X103049605Y-82550000D01*
X102690395Y-82550000D01*
X101889787Y-81749392D01*
X101647603Y-81818857D01*
X101597465Y-81959393D01*
X101514320Y-81758663D01*
X101325444Y-81569787D01*
X102069392Y-81569787D01*
X102870000Y-82370395D01*
X103670608Y-81569787D01*
X103601143Y-81327603D01*
X103077698Y-81140856D01*
X102522632Y-81168638D01*
X102138857Y-81327603D01*
X102069392Y-81569787D01*
X101325444Y-81569787D01*
X101121337Y-81365680D01*
X100607881Y-81153000D01*
X100052119Y-81153000D01*
X99538663Y-81365680D01*
X99145680Y-81758663D01*
X99060000Y-81965513D01*
X98974320Y-81758663D01*
X98581337Y-81365680D01*
X98067881Y-81153000D01*
X97512119Y-81153000D01*
X96998663Y-81365680D01*
X96605680Y-81758663D01*
X96520000Y-81965513D01*
X96434320Y-81758663D01*
X96041337Y-81365680D01*
X95527881Y-81153000D01*
X94972119Y-81153000D01*
X94458663Y-81365680D01*
X94065680Y-81758663D01*
X93980000Y-81965513D01*
X93894320Y-81758663D01*
X93501337Y-81365680D01*
X92987881Y-81153000D01*
X92432119Y-81153000D01*
X91918663Y-81365680D01*
X91525680Y-81758663D01*
X91446572Y-81949647D01*
X91392397Y-81818857D01*
X91150213Y-81749392D01*
X90349605Y-82550000D01*
X89990395Y-82550000D01*
X89189787Y-81749392D01*
X88947603Y-81818857D01*
X88760856Y-82342302D01*
X87464999Y-82342302D01*
X87464999Y-81569787D01*
X89369392Y-81569787D01*
X90170000Y-82370395D01*
X90970608Y-81569787D01*
X90901143Y-81327603D01*
X90377698Y-81140856D01*
X89822632Y-81168638D01*
X89438857Y-81327603D01*
X89369392Y-81569787D01*
X87464999Y-81569787D01*
X87464999Y-78775156D01*
X87500155Y-78740000D01*
X91195908Y-78740000D01*
X91311161Y-79319418D01*
X91639375Y-79810625D01*
X92130582Y-80138839D01*
X92563744Y-80225000D01*
X92856256Y-80225000D01*
X93289418Y-80138839D01*
X93780625Y-79810625D01*
X93792816Y-79792381D01*
X93801843Y-79837765D01*
X93942191Y-80047809D01*
X94152235Y-80188157D01*
X94400000Y-80237440D01*
X96100000Y-80237440D01*
X96347765Y-80188157D01*
X96557809Y-80047809D01*
X96698157Y-79837765D01*
X96707184Y-79792381D01*
X96719375Y-79810625D01*
X97210582Y-80138839D01*
X97643744Y-80225000D01*
X97936256Y-80225000D01*
X98369418Y-80138839D01*
X98860625Y-79810625D01*
X98872816Y-79792381D01*
X98881843Y-79837765D01*
X99022191Y-80047809D01*
X99232235Y-80188157D01*
X99480000Y-80237440D01*
X101180000Y-80237440D01*
X101427765Y-80188157D01*
X101637809Y-80047809D01*
X101778157Y-79837765D01*
X101827440Y-79590000D01*
X101827440Y-77890000D01*
X103912560Y-77890000D01*
X103912560Y-79590000D01*
X103961843Y-79837765D01*
X104102191Y-80047809D01*
X104312235Y-80188157D01*
X104560000Y-80237440D01*
X106260000Y-80237440D01*
X106507765Y-80188157D01*
X106717809Y-80047809D01*
X106858157Y-79837765D01*
X106907440Y-79590000D01*
X106907440Y-77890000D01*
X106858157Y-77642235D01*
X106717809Y-77432191D01*
X106507765Y-77291843D01*
X106260000Y-77242560D01*
X104560000Y-77242560D01*
X104312235Y-77291843D01*
X104102191Y-77432191D01*
X103961843Y-77642235D01*
X103912560Y-77890000D01*
X101827440Y-77890000D01*
X101778157Y-77642235D01*
X101637809Y-77432191D01*
X101427765Y-77291843D01*
X101180000Y-77242560D01*
X99480000Y-77242560D01*
X99232235Y-77291843D01*
X99022191Y-77432191D01*
X98881843Y-77642235D01*
X98872816Y-77687619D01*
X98860625Y-77669375D01*
X98369418Y-77341161D01*
X97936256Y-77255000D01*
X97643744Y-77255000D01*
X97210582Y-77341161D01*
X96719375Y-77669375D01*
X96707184Y-77687619D01*
X96698157Y-77642235D01*
X96557809Y-77432191D01*
X96347765Y-77291843D01*
X96100000Y-77242560D01*
X94400000Y-77242560D01*
X94152235Y-77291843D01*
X93942191Y-77432191D01*
X93801843Y-77642235D01*
X93792816Y-77687619D01*
X93780625Y-77669375D01*
X93289418Y-77341161D01*
X92856256Y-77255000D01*
X92563744Y-77255000D01*
X92130582Y-77341161D01*
X91639375Y-77669375D01*
X91311161Y-78160582D01*
X91195908Y-78740000D01*
X87500155Y-78740000D01*
X95022560Y-71217595D01*
X95022560Y-71970000D01*
G36*
X121035000Y-69581579D02*
X121035001Y-73928420D01*
X120601256Y-74362165D01*
X120777000Y-73937881D01*
X120777000Y-73382119D01*
X120564320Y-72868663D01*
X120171337Y-72475680D01*
X120165000Y-72473055D01*
X120165000Y-72381474D01*
X120450625Y-72190625D01*
X120778839Y-71699418D01*
X120894092Y-71120000D01*
X120778839Y-70540582D01*
X120450625Y-70049375D01*
X119959418Y-69721161D01*
X119526256Y-69635000D01*
X119233744Y-69635000D01*
X118800582Y-69721161D01*
X118309375Y-70049375D01*
X118110000Y-70347761D01*
X117910625Y-70049375D01*
X117419418Y-69721161D01*
X116986256Y-69635000D01*
X116693744Y-69635000D01*
X116260582Y-69721161D01*
X115769375Y-70049375D01*
X115570000Y-70347761D01*
X115370625Y-70049375D01*
X114879418Y-69721161D01*
X114446256Y-69635000D01*
X114153744Y-69635000D01*
X113720582Y-69721161D01*
X113229375Y-70049375D01*
X113030000Y-70347761D01*
X112830625Y-70049375D01*
X112339418Y-69721161D01*
X111906256Y-69635000D01*
X111613744Y-69635000D01*
X111180582Y-69721161D01*
X110689375Y-70049375D01*
X110490000Y-70347761D01*
X110290625Y-70049375D01*
X109799418Y-69721161D01*
X109366256Y-69635000D01*
X109073744Y-69635000D01*
X108640582Y-69721161D01*
X108149375Y-70049375D01*
X107950000Y-70347761D01*
X107750625Y-70049375D01*
X107259418Y-69721161D01*
X106826256Y-69635000D01*
X106533744Y-69635000D01*
X106100582Y-69721161D01*
X105609375Y-70049375D01*
X105410000Y-70347761D01*
X105210625Y-70049375D01*
X104719418Y-69721161D01*
X104286256Y-69635000D01*
X103993744Y-69635000D01*
X103560582Y-69721161D01*
X103069375Y-70049375D01*
X102856157Y-70368478D01*
X102795183Y-70238642D01*
X102366924Y-69848355D01*
X101956890Y-69678524D01*
X101727000Y-69799845D01*
X101727000Y-70993000D01*
X101747000Y-70993000D01*
X101747000Y-71247000D01*
X101727000Y-71247000D01*
X101727000Y-71267000D01*
X101473000Y-71267000D01*
X101473000Y-71247000D01*
X101453000Y-71247000D01*
X101453000Y-70993000D01*
X101473000Y-70993000D01*
X101473000Y-69799845D01*
X101243110Y-69678524D01*
X100833076Y-69848355D01*
X100404817Y-70238642D01*
X100343843Y-70368478D01*
X100130625Y-70049375D01*
X99639418Y-69721161D01*
X99206256Y-69635000D01*
X98913744Y-69635000D01*
X98480582Y-69721161D01*
X97989375Y-70049375D01*
X97977184Y-70067619D01*
X97968157Y-70022235D01*
X97827809Y-69812191D01*
X97617765Y-69671843D01*
X97370000Y-69622560D01*
X96617595Y-69622560D01*
X100050155Y-66190000D01*
X111152000Y-66190000D01*
X111202042Y-66240042D01*
X111564071Y-66390000D01*
X111955929Y-66390000D01*
X112317958Y-66240042D01*
X112595042Y-65962958D01*
X112745000Y-65600929D01*
X112745000Y-65209071D01*
X112666684Y-65020000D01*
X116473422Y-65020000D01*
X121035000Y-69581579D01*
X121035000Y-69581579D01*
G37*
X121035000Y-69581579D02*
X121035001Y-73928420D01*
X120601256Y-74362165D01*
X120777000Y-73937881D01*
X120777000Y-73382119D01*
X120564320Y-72868663D01*
X120171337Y-72475680D01*
X120165000Y-72473055D01*
X120165000Y-72381474D01*
X120450625Y-72190625D01*
X120778839Y-71699418D01*
X120894092Y-71120000D01*
X120778839Y-70540582D01*
X120450625Y-70049375D01*
X119959418Y-69721161D01*
X119526256Y-69635000D01*
X119233744Y-69635000D01*
X118800582Y-69721161D01*
X118309375Y-70049375D01*
X118110000Y-70347761D01*
X117910625Y-70049375D01*
X117419418Y-69721161D01*
X116986256Y-69635000D01*
X116693744Y-69635000D01*
X116260582Y-69721161D01*
X115769375Y-70049375D01*
X115570000Y-70347761D01*
X115370625Y-70049375D01*
X114879418Y-69721161D01*
X114446256Y-69635000D01*
X114153744Y-69635000D01*
X113720582Y-69721161D01*
X113229375Y-70049375D01*
X113030000Y-70347761D01*
X112830625Y-70049375D01*
X112339418Y-69721161D01*
X111906256Y-69635000D01*
X111613744Y-69635000D01*
X111180582Y-69721161D01*
X110689375Y-70049375D01*
X110490000Y-70347761D01*
X110290625Y-70049375D01*
X109799418Y-69721161D01*
X109366256Y-69635000D01*
X109073744Y-69635000D01*
X108640582Y-69721161D01*
X108149375Y-70049375D01*
X107950000Y-70347761D01*
X107750625Y-70049375D01*
X107259418Y-69721161D01*
X106826256Y-69635000D01*
X106533744Y-69635000D01*
X106100582Y-69721161D01*
X105609375Y-70049375D01*
X105410000Y-70347761D01*
X105210625Y-70049375D01*
X104719418Y-69721161D01*
X104286256Y-69635000D01*
X103993744Y-69635000D01*
X103560582Y-69721161D01*
X103069375Y-70049375D01*
X102856157Y-70368478D01*
X102795183Y-70238642D01*
X102366924Y-69848355D01*
X101956890Y-69678524D01*
X101727000Y-69799845D01*
X101727000Y-70993000D01*
X101747000Y-70993000D01*
X101747000Y-71247000D01*
X101727000Y-71247000D01*
X101727000Y-71267000D01*
X101473000Y-71267000D01*
X101473000Y-71247000D01*
X101453000Y-71247000D01*
X101453000Y-70993000D01*
X101473000Y-70993000D01*
X101473000Y-69799845D01*
X101243110Y-69678524D01*
X100833076Y-69848355D01*
X100404817Y-70238642D01*
X100343843Y-70368478D01*
X100130625Y-70049375D01*
X99639418Y-69721161D01*
X99206256Y-69635000D01*
X98913744Y-69635000D01*
X98480582Y-69721161D01*
X97989375Y-70049375D01*
X97977184Y-70067619D01*
X97968157Y-70022235D01*
X97827809Y-69812191D01*
X97617765Y-69671843D01*
X97370000Y-69622560D01*
X96617595Y-69622560D01*
X100050155Y-66190000D01*
X111152000Y-66190000D01*
X111202042Y-66240042D01*
X111564071Y-66390000D01*
X111955929Y-66390000D01*
X112317958Y-66240042D01*
X112595042Y-65962958D01*
X112745000Y-65600929D01*
X112745000Y-65209071D01*
X112666684Y-65020000D01*
X116473422Y-65020000D01*
X121035000Y-69581579D01*
G04 #@! TD*
M02*
