M48
;DRILL file {KiCad 5.0.2-bee76a0~70~ubuntu18.04.1} date ke 24. huhtikuuta 2019 16.29.38
;FORMAT={-:-/ absolute / inch / decimal}
FMAT,2
INCH,TZ
T1C0.0118
T2C0.0197
T3C0.0300
T4C0.0315
T5C0.0394
T6C0.0433
T7C0.1260
%
G90
G05
T1
X3.55Y-4.325
X4.175Y-4.775
X4.25Y-4.425
X4.275Y-2.5
X4.2854Y-2.35
X4.375Y-4.775
X4.4Y-2.575
X4.925Y-2.575
T2
X3.45Y-4.425
X4.125Y-4.225
X4.45Y-3.8
T3
X3.8Y-2.9
X3.9Y-2.9
X4.Y-2.9
X4.1Y-2.9
X4.2Y-2.9
X4.3Y-2.9
X4.4Y-2.9
X4.5Y-2.9
X4.6Y-2.9
X4.7Y-2.9
X3.55Y-3.25
X3.55Y-3.85
X3.65Y-3.25
X3.65Y-3.85
X3.75Y-3.25
X3.75Y-3.85
X3.85Y-3.25
X3.85Y-3.85
X3.95Y-3.25
X3.95Y-3.85
X4.05Y-3.25
X4.05Y-3.85
X4.15Y-3.25
X4.15Y-3.85
X4.25Y-3.25
X4.25Y-3.85
T4
X4.75Y-3.45
X4.8484Y-3.45
X3.55Y-4.
X3.55Y-4.6
X3.65Y-4.
X3.65Y-4.6
X3.75Y-4.
X3.75Y-4.6
X3.85Y-4.
X3.85Y-4.6
X3.95Y-4.
X3.95Y-4.6
X4.05Y-4.
X4.05Y-4.6
X4.15Y-4.
X4.15Y-4.6
X4.25Y-4.
X4.25Y-4.6
X4.35Y-4.
X4.35Y-4.6
X4.45Y-4.
X4.45Y-4.6
X4.55Y-4.
X4.55Y-4.6
X4.65Y-4.
X4.65Y-4.6
X4.75Y-4.
X4.75Y-4.6
X4.85Y-4.
X4.85Y-4.6
X4.95Y-4.
X4.95Y-4.6
T5
X4.85Y-3.85
X4.95Y-3.85
X3.8Y-2.8
X3.9Y-2.8
X4.Y-2.8
X4.1Y-2.8
X4.2Y-2.8
X4.3Y-2.8
X4.4Y-2.8
X4.5Y-2.8
X4.6Y-2.8
X4.7Y-2.8
X3.85Y-3.1
X3.95Y-3.1
X3.6Y-2.
X3.7Y-2.
X3.8Y-2.
X3.65Y-3.1
X3.75Y-3.1
X4.15Y-2.
X4.25Y-2.
X4.35Y-2.
X5.15Y-3.2
X5.15Y-3.3
X4.15Y-3.1
X5.15Y-3.5
X3.55Y-4.9
X3.65Y-4.9
X3.75Y-4.9
X4.7Y-2.
X4.8Y-2.
X4.9Y-2.
X4.75Y-4.9
X4.85Y-4.9
X4.95Y-4.9
X5.15Y-2.975
T6
X4.75Y-3.2
X5.05Y-3.2
T7
X5.2559Y-2.063
X3.2441Y-2.063
X3.2441Y-4.8346
X5.2559Y-4.8346
T0
M30
